<?xml version="1.0" encoding="utf-8" standalone="no"?>
<!DOCTYPE svg PUBLIC "-//W3C//DTD SVG 1.1//EN"
  "http://www.w3.org/Graphics/SVG/1.1/DTD/svg11.dtd">
<svg xmlns:xlink="http://www.w3.org/1999/xlink" width="460.8pt" height="345.6pt" viewBox="0 0 460.8 345.6" xmlns="http://www.w3.org/2000/svg" version="1.1">
 <metadata>
  <rdf:RDF xmlns:dc="http://purl.org/dc/elements/1.1/" xmlns:cc="http://creativecommons.org/ns#" xmlns:rdf="http://www.w3.org/1999/02/22-rdf-syntax-ns#">
   <cc:Work>
    <dc:type rdf:resource="http://purl.org/dc/dcmitype/StillImage"/>
    <dc:date>2026-07-14T17:45:44.176702</dc:date>
    <dc:format>image/svg+xml</dc:format>
    <dc:creator>
     <cc:Agent>
      <dc:title>Matplotlib v3.10.8, https://matplotlib.org/</dc:title>
     </cc:Agent>
    </dc:creator>
   </cc:Work>
  </rdf:RDF>
 </metadata>
 <defs>
  <style type="text/css">*{stroke-linejoin: round; stroke-linecap: butt}</style>
 </defs>
 <g id="figure_1">
  <g id="patch_1">
   <path d="M 0 345.6 
L 460.8 345.6 
L 460.8 0 
L 0 0 
z
" style="fill: #ffffff"/>
  </g>
  <g id="axes_1">
   <g id="patch_2">
    <path d="M 57.6 307.584 
L 414.72 307.584 
L 414.72 41.472 
L 57.6 41.472 
z
" style="fill: #ffffff"/>
   </g>
   <g id="matplotlib.axis_1">
    <g id="xtick_1">
     <g id="line2d_1">
      <path d="M 73.832727 307.584 
L 73.832727 41.472 
" clip-path="url(#p0377bc150e)" style="fill: none; stroke: #b0b0b0; stroke-width: 0.8; stroke-linecap: square"/>
     </g>
     <g id="line2d_2">
      <defs>
       <path id="m49ae2508cf" d="M 0 0 
L 0 3.5 
" style="stroke: #000000; stroke-width: 0.8"/>
      </defs>
      <g>
       <use xlink:href="#m49ae2508cf" x="73.832727" y="307.584" style="stroke: #000000; stroke-width: 0.8"/>
      </g>
     </g>
     <g id="text_1">
      <!-- 0 -->
      <g transform="translate(70.651477 322.182437) scale(0.1 -0.1)">
       <defs>
        <path id="DejaVuSans-30" d="M 2034 4250 
Q 1547 4250 1301 3770 
Q 1056 3291 1056 2328 
Q 1056 1369 1301 889 
Q 1547 409 2034 409 
Q 2525 409 2770 889 
Q 3016 1369 3016 2328 
Q 3016 3291 2770 3770 
Q 2525 4250 2034 4250 
z
M 2034 4750 
Q 2819 4750 3233 4129 
Q 3647 3509 3647 2328 
Q 3647 1150 3233 529 
Q 2819 -91 2034 -91 
Q 1250 -91 836 529 
Q 422 1150 422 2328 
Q 422 3509 836 4129 
Q 1250 4750 2034 4750 
z
" transform="scale(0.015625)"/>
       </defs>
       <use xlink:href="#DejaVuSans-30"/>
      </g>
     </g>
    </g>
    <g id="xtick_2">
     <g id="line2d_3">
      <path d="M 139.419504 307.584 
L 139.419504 41.472 
" clip-path="url(#p0377bc150e)" style="fill: none; stroke: #b0b0b0; stroke-width: 0.8; stroke-linecap: square"/>
     </g>
     <g id="line2d_4">
      <g>
       <use xlink:href="#m49ae2508cf" x="139.419504" y="307.584" style="stroke: #000000; stroke-width: 0.8"/>
      </g>
     </g>
     <g id="text_2">
      <!-- 200 -->
      <g transform="translate(129.875754 322.182437) scale(0.1 -0.1)">
       <defs>
        <path id="DejaVuSans-32" d="M 1228 531 
L 3431 531 
L 3431 0 
L 469 0 
L 469 531 
Q 828 903 1448 1529 
Q 2069 2156 2228 2338 
Q 2531 2678 2651 2914 
Q 2772 3150 2772 3378 
Q 2772 3750 2511 3984 
Q 2250 4219 1831 4219 
Q 1534 4219 1204 4116 
Q 875 4013 500 3803 
L 500 4441 
Q 881 4594 1212 4672 
Q 1544 4750 1819 4750 
Q 2544 4750 2975 4387 
Q 3406 4025 3406 3419 
Q 3406 3131 3298 2873 
Q 3191 2616 2906 2266 
Q 2828 2175 2409 1742 
Q 1991 1309 1228 531 
z
" transform="scale(0.015625)"/>
       </defs>
       <use xlink:href="#DejaVuSans-32"/>
       <use xlink:href="#DejaVuSans-30" transform="translate(63.623047 0)"/>
       <use xlink:href="#DejaVuSans-30" transform="translate(127.246094 0)"/>
      </g>
     </g>
    </g>
    <g id="xtick_3">
     <g id="line2d_5">
      <path d="M 205.006281 307.584 
L 205.006281 41.472 
" clip-path="url(#p0377bc150e)" style="fill: none; stroke: #b0b0b0; stroke-width: 0.8; stroke-linecap: square"/>
     </g>
     <g id="line2d_6">
      <g>
       <use xlink:href="#m49ae2508cf" x="205.006281" y="307.584" style="stroke: #000000; stroke-width: 0.8"/>
      </g>
     </g>
     <g id="text_3">
      <!-- 400 -->
      <g transform="translate(195.462531 322.182437) scale(0.1 -0.1)">
       <defs>
        <path id="DejaVuSans-34" d="M 2419 4116 
L 825 1625 
L 2419 1625 
L 2419 4116 
z
M 2253 4666 
L 3047 4666 
L 3047 1625 
L 3713 1625 
L 3713 1100 
L 3047 1100 
L 3047 0 
L 2419 0 
L 2419 1100 
L 313 1100 
L 313 1709 
L 2253 4666 
z
" transform="scale(0.015625)"/>
       </defs>
       <use xlink:href="#DejaVuSans-34"/>
       <use xlink:href="#DejaVuSans-30" transform="translate(63.623047 0)"/>
       <use xlink:href="#DejaVuSans-30" transform="translate(127.246094 0)"/>
      </g>
     </g>
    </g>
    <g id="xtick_4">
     <g id="line2d_7">
      <path d="M 270.593058 307.584 
L 270.593058 41.472 
" clip-path="url(#p0377bc150e)" style="fill: none; stroke: #b0b0b0; stroke-width: 0.8; stroke-linecap: square"/>
     </g>
     <g id="line2d_8">
      <g>
       <use xlink:href="#m49ae2508cf" x="270.593058" y="307.584" style="stroke: #000000; stroke-width: 0.8"/>
      </g>
     </g>
     <g id="text_4">
      <!-- 600 -->
      <g transform="translate(261.049308 322.182437) scale(0.1 -0.1)">
       <defs>
        <path id="DejaVuSans-36" d="M 2113 2584 
Q 1688 2584 1439 2293 
Q 1191 2003 1191 1497 
Q 1191 994 1439 701 
Q 1688 409 2113 409 
Q 2538 409 2786 701 
Q 3034 994 3034 1497 
Q 3034 2003 2786 2293 
Q 2538 2584 2113 2584 
z
M 3366 4563 
L 3366 3988 
Q 3128 4100 2886 4159 
Q 2644 4219 2406 4219 
Q 1781 4219 1451 3797 
Q 1122 3375 1075 2522 
Q 1259 2794 1537 2939 
Q 1816 3084 2150 3084 
Q 2853 3084 3261 2657 
Q 3669 2231 3669 1497 
Q 3669 778 3244 343 
Q 2819 -91 2113 -91 
Q 1303 -91 875 529 
Q 447 1150 447 2328 
Q 447 3434 972 4092 
Q 1497 4750 2381 4750 
Q 2619 4750 2861 4703 
Q 3103 4656 3366 4563 
z
" transform="scale(0.015625)"/>
       </defs>
       <use xlink:href="#DejaVuSans-36"/>
       <use xlink:href="#DejaVuSans-30" transform="translate(63.623047 0)"/>
       <use xlink:href="#DejaVuSans-30" transform="translate(127.246094 0)"/>
      </g>
     </g>
    </g>
    <g id="xtick_5">
     <g id="line2d_9">
      <path d="M 336.179835 307.584 
L 336.179835 41.472 
" clip-path="url(#p0377bc150e)" style="fill: none; stroke: #b0b0b0; stroke-width: 0.8; stroke-linecap: square"/>
     </g>
     <g id="line2d_10">
      <g>
       <use xlink:href="#m49ae2508cf" x="336.179835" y="307.584" style="stroke: #000000; stroke-width: 0.8"/>
      </g>
     </g>
     <g id="text_5">
      <!-- 800 -->
      <g transform="translate(326.636085 322.182437) scale(0.1 -0.1)">
       <defs>
        <path id="DejaVuSans-38" d="M 2034 2216 
Q 1584 2216 1326 1975 
Q 1069 1734 1069 1313 
Q 1069 891 1326 650 
Q 1584 409 2034 409 
Q 2484 409 2743 651 
Q 3003 894 3003 1313 
Q 3003 1734 2745 1975 
Q 2488 2216 2034 2216 
z
M 1403 2484 
Q 997 2584 770 2862 
Q 544 3141 544 3541 
Q 544 4100 942 4425 
Q 1341 4750 2034 4750 
Q 2731 4750 3128 4425 
Q 3525 4100 3525 3541 
Q 3525 3141 3298 2862 
Q 3072 2584 2669 2484 
Q 3125 2378 3379 2068 
Q 3634 1759 3634 1313 
Q 3634 634 3220 271 
Q 2806 -91 2034 -91 
Q 1263 -91 848 271 
Q 434 634 434 1313 
Q 434 1759 690 2068 
Q 947 2378 1403 2484 
z
M 1172 3481 
Q 1172 3119 1398 2916 
Q 1625 2713 2034 2713 
Q 2441 2713 2670 2916 
Q 2900 3119 2900 3481 
Q 2900 3844 2670 4047 
Q 2441 4250 2034 4250 
Q 1625 4250 1398 4047 
Q 1172 3844 1172 3481 
z
" transform="scale(0.015625)"/>
       </defs>
       <use xlink:href="#DejaVuSans-38"/>
       <use xlink:href="#DejaVuSans-30" transform="translate(63.623047 0)"/>
       <use xlink:href="#DejaVuSans-30" transform="translate(127.246094 0)"/>
      </g>
     </g>
    </g>
    <g id="xtick_6">
     <g id="line2d_11">
      <path d="M 401.766612 307.584 
L 401.766612 41.472 
" clip-path="url(#p0377bc150e)" style="fill: none; stroke: #b0b0b0; stroke-width: 0.8; stroke-linecap: square"/>
     </g>
     <g id="line2d_12">
      <g>
       <use xlink:href="#m49ae2508cf" x="401.766612" y="307.584" style="stroke: #000000; stroke-width: 0.8"/>
      </g>
     </g>
     <g id="text_6">
      <!-- 1000 -->
      <g transform="translate(389.041612 322.182437) scale(0.1 -0.1)">
       <defs>
        <path id="DejaVuSans-31" d="M 794 531 
L 1825 531 
L 1825 4091 
L 703 3866 
L 703 4441 
L 1819 4666 
L 2450 4666 
L 2450 531 
L 3481 531 
L 3481 0 
L 794 0 
L 794 531 
z
" transform="scale(0.015625)"/>
       </defs>
       <use xlink:href="#DejaVuSans-31"/>
       <use xlink:href="#DejaVuSans-30" transform="translate(63.623047 0)"/>
       <use xlink:href="#DejaVuSans-30" transform="translate(127.246094 0)"/>
       <use xlink:href="#DejaVuSans-30" transform="translate(190.869141 0)"/>
      </g>
     </g>
    </g>
    <g id="text_7">
     <!-- Nombre d'utilisateurs ($n$) -->
     <g transform="translate(173.51 335.860562) scale(0.1 -0.1)">
      <defs>
       <path id="DejaVuSans-4e" d="M 628 4666 
L 1478 4666 
L 3547 763 
L 3547 4666 
L 4159 4666 
L 4159 0 
L 3309 0 
L 1241 3903 
L 1241 0 
L 628 0 
L 628 4666 
z
" transform="scale(0.015625)"/>
       <path id="DejaVuSans-6f" d="M 1959 3097 
Q 1497 3097 1228 2736 
Q 959 2375 959 1747 
Q 959 1119 1226 758 
Q 1494 397 1959 397 
Q 2419 397 2687 759 
Q 2956 1122 2956 1747 
Q 2956 2369 2687 2733 
Q 2419 3097 1959 3097 
z
M 1959 3584 
Q 2709 3584 3137 3096 
Q 3566 2609 3566 1747 
Q 3566 888 3137 398 
Q 2709 -91 1959 -91 
Q 1206 -91 779 398 
Q 353 888 353 1747 
Q 353 2609 779 3096 
Q 1206 3584 1959 3584 
z
" transform="scale(0.015625)"/>
       <path id="DejaVuSans-6d" d="M 3328 2828 
Q 3544 3216 3844 3400 
Q 4144 3584 4550 3584 
Q 5097 3584 5394 3201 
Q 5691 2819 5691 2113 
L 5691 0 
L 5113 0 
L 5113 2094 
Q 5113 2597 4934 2840 
Q 4756 3084 4391 3084 
Q 3944 3084 3684 2787 
Q 3425 2491 3425 1978 
L 3425 0 
L 2847 0 
L 2847 2094 
Q 2847 2600 2669 2842 
Q 2491 3084 2119 3084 
Q 1678 3084 1418 2786 
Q 1159 2488 1159 1978 
L 1159 0 
L 581 0 
L 581 3500 
L 1159 3500 
L 1159 2956 
Q 1356 3278 1631 3431 
Q 1906 3584 2284 3584 
Q 2666 3584 2933 3390 
Q 3200 3197 3328 2828 
z
" transform="scale(0.015625)"/>
       <path id="DejaVuSans-62" d="M 3116 1747 
Q 3116 2381 2855 2742 
Q 2594 3103 2138 3103 
Q 1681 3103 1420 2742 
Q 1159 2381 1159 1747 
Q 1159 1113 1420 752 
Q 1681 391 2138 391 
Q 2594 391 2855 752 
Q 3116 1113 3116 1747 
z
M 1159 2969 
Q 1341 3281 1617 3432 
Q 1894 3584 2278 3584 
Q 2916 3584 3314 3078 
Q 3713 2572 3713 1747 
Q 3713 922 3314 415 
Q 2916 -91 2278 -91 
Q 1894 -91 1617 61 
Q 1341 213 1159 525 
L 1159 0 
L 581 0 
L 581 4863 
L 1159 4863 
L 1159 2969 
z
" transform="scale(0.015625)"/>
       <path id="DejaVuSans-72" d="M 2631 2963 
Q 2534 3019 2420 3045 
Q 2306 3072 2169 3072 
Q 1681 3072 1420 2755 
Q 1159 2438 1159 1844 
L 1159 0 
L 581 0 
L 581 3500 
L 1159 3500 
L 1159 2956 
Q 1341 3275 1631 3429 
Q 1922 3584 2338 3584 
Q 2397 3584 2469 3576 
Q 2541 3569 2628 3553 
L 2631 2963 
z
" transform="scale(0.015625)"/>
       <path id="DejaVuSans-65" d="M 3597 1894 
L 3597 1613 
L 953 1613 
Q 991 1019 1311 708 
Q 1631 397 2203 397 
Q 2534 397 2845 478 
Q 3156 559 3463 722 
L 3463 178 
Q 3153 47 2828 -22 
Q 2503 -91 2169 -91 
Q 1331 -91 842 396 
Q 353 884 353 1716 
Q 353 2575 817 3079 
Q 1281 3584 2069 3584 
Q 2775 3584 3186 3129 
Q 3597 2675 3597 1894 
z
M 3022 2063 
Q 3016 2534 2758 2815 
Q 2500 3097 2075 3097 
Q 1594 3097 1305 2825 
Q 1016 2553 972 2059 
L 3022 2063 
z
" transform="scale(0.015625)"/>
       <path id="DejaVuSans-20" transform="scale(0.015625)"/>
       <path id="DejaVuSans-64" d="M 2906 2969 
L 2906 4863 
L 3481 4863 
L 3481 0 
L 2906 0 
L 2906 525 
Q 2725 213 2448 61 
Q 2172 -91 1784 -91 
Q 1150 -91 751 415 
Q 353 922 353 1747 
Q 353 2572 751 3078 
Q 1150 3584 1784 3584 
Q 2172 3584 2448 3432 
Q 2725 3281 2906 2969 
z
M 947 1747 
Q 947 1113 1208 752 
Q 1469 391 1925 391 
Q 2381 391 2643 752 
Q 2906 1113 2906 1747 
Q 2906 2381 2643 2742 
Q 2381 3103 1925 3103 
Q 1469 3103 1208 2742 
Q 947 2381 947 1747 
z
" transform="scale(0.015625)"/>
       <path id="DejaVuSans-27" d="M 1147 4666 
L 1147 2931 
L 616 2931 
L 616 4666 
L 1147 4666 
z
" transform="scale(0.015625)"/>
       <path id="DejaVuSans-75" d="M 544 1381 
L 544 3500 
L 1119 3500 
L 1119 1403 
Q 1119 906 1312 657 
Q 1506 409 1894 409 
Q 2359 409 2629 706 
Q 2900 1003 2900 1516 
L 2900 3500 
L 3475 3500 
L 3475 0 
L 2900 0 
L 2900 538 
Q 2691 219 2414 64 
Q 2138 -91 1772 -91 
Q 1169 -91 856 284 
Q 544 659 544 1381 
z
M 1991 3584 
L 1991 3584 
z
" transform="scale(0.015625)"/>
       <path id="DejaVuSans-74" d="M 1172 4494 
L 1172 3500 
L 2356 3500 
L 2356 3053 
L 1172 3053 
L 1172 1153 
Q 1172 725 1289 603 
Q 1406 481 1766 481 
L 2356 481 
L 2356 0 
L 1766 0 
Q 1100 0 847 248 
Q 594 497 594 1153 
L 594 3053 
L 172 3053 
L 172 3500 
L 594 3500 
L 594 4494 
L 1172 4494 
z
" transform="scale(0.015625)"/>
       <path id="DejaVuSans-69" d="M 603 3500 
L 1178 3500 
L 1178 0 
L 603 0 
L 603 3500 
z
M 603 4863 
L 1178 4863 
L 1178 4134 
L 603 4134 
L 603 4863 
z
" transform="scale(0.015625)"/>
       <path id="DejaVuSans-6c" d="M 603 4863 
L 1178 4863 
L 1178 0 
L 603 0 
L 603 4863 
z
" transform="scale(0.015625)"/>
       <path id="DejaVuSans-73" d="M 2834 3397 
L 2834 2853 
Q 2591 2978 2328 3040 
Q 2066 3103 1784 3103 
Q 1356 3103 1142 2972 
Q 928 2841 928 2578 
Q 928 2378 1081 2264 
Q 1234 2150 1697 2047 
L 1894 2003 
Q 2506 1872 2764 1633 
Q 3022 1394 3022 966 
Q 3022 478 2636 193 
Q 2250 -91 1575 -91 
Q 1294 -91 989 -36 
Q 684 19 347 128 
L 347 722 
Q 666 556 975 473 
Q 1284 391 1588 391 
Q 1994 391 2212 530 
Q 2431 669 2431 922 
Q 2431 1156 2273 1281 
Q 2116 1406 1581 1522 
L 1381 1569 
Q 847 1681 609 1914 
Q 372 2147 372 2553 
Q 372 3047 722 3315 
Q 1072 3584 1716 3584 
Q 2034 3584 2315 3537 
Q 2597 3491 2834 3397 
z
" transform="scale(0.015625)"/>
       <path id="DejaVuSans-61" d="M 2194 1759 
Q 1497 1759 1228 1600 
Q 959 1441 959 1056 
Q 959 750 1161 570 
Q 1363 391 1709 391 
Q 2188 391 2477 730 
Q 2766 1069 2766 1631 
L 2766 1759 
L 2194 1759 
z
M 3341 1997 
L 3341 0 
L 2766 0 
L 2766 531 
Q 2569 213 2275 61 
Q 1981 -91 1556 -91 
Q 1019 -91 701 211 
Q 384 513 384 1019 
Q 384 1609 779 1909 
Q 1175 2209 1959 2209 
L 2766 2209 
L 2766 2266 
Q 2766 2663 2505 2880 
Q 2244 3097 1772 3097 
Q 1472 3097 1187 3025 
Q 903 2953 641 2809 
L 641 3341 
Q 956 3463 1253 3523 
Q 1550 3584 1831 3584 
Q 2591 3584 2966 3190 
Q 3341 2797 3341 1997 
z
" transform="scale(0.015625)"/>
       <path id="DejaVuSans-28" d="M 1984 4856 
Q 1566 4138 1362 3434 
Q 1159 2731 1159 2009 
Q 1159 1288 1364 580 
Q 1569 -128 1984 -844 
L 1484 -844 
Q 1016 -109 783 600 
Q 550 1309 550 2009 
Q 550 2706 781 3412 
Q 1013 4119 1484 4856 
L 1984 4856 
z
" transform="scale(0.015625)"/>
       <path id="DejaVuSans-Oblique-6e" d="M 3566 2113 
L 3156 0 
L 2578 0 
L 2988 2091 
Q 3016 2238 3031 2350 
Q 3047 2463 3047 2528 
Q 3047 2791 2881 2937 
Q 2716 3084 2419 3084 
Q 1956 3084 1622 2776 
Q 1288 2469 1184 1941 
L 800 0 
L 225 0 
L 903 3500 
L 1478 3500 
L 1363 2950 
Q 1603 3253 1940 3418 
Q 2278 3584 2650 3584 
Q 3113 3584 3367 3334 
Q 3622 3084 3622 2631 
Q 3622 2519 3608 2391 
Q 3594 2263 3566 2113 
z
" transform="scale(0.015625)"/>
       <path id="DejaVuSans-29" d="M 513 4856 
L 1013 4856 
Q 1481 4119 1714 3412 
Q 1947 2706 1947 2009 
Q 1947 1309 1714 600 
Q 1481 -109 1013 -844 
L 513 -844 
Q 928 -128 1133 580 
Q 1338 1288 1338 2009 
Q 1338 2731 1133 3434 
Q 928 4138 513 4856 
z
" transform="scale(0.015625)"/>
      </defs>
      <use xlink:href="#DejaVuSans-4e" transform="translate(0 0.015625)"/>
      <use xlink:href="#DejaVuSans-6f" transform="translate(74.804688 0.015625)"/>
      <use xlink:href="#DejaVuSans-6d" transform="translate(135.986328 0.015625)"/>
      <use xlink:href="#DejaVuSans-62" transform="translate(233.398438 0.015625)"/>
      <use xlink:href="#DejaVuSans-72" transform="translate(296.875 0.015625)"/>
      <use xlink:href="#DejaVuSans-65" transform="translate(337.988281 0.015625)"/>
      <use xlink:href="#DejaVuSans-20" transform="translate(399.511719 0.015625)"/>
      <use xlink:href="#DejaVuSans-64" transform="translate(431.298828 0.015625)"/>
      <use xlink:href="#DejaVuSans-27" transform="translate(494.775391 0.015625)"/>
      <use xlink:href="#DejaVuSans-75" transform="translate(522.265625 0.015625)"/>
      <use xlink:href="#DejaVuSans-74" transform="translate(585.644531 0.015625)"/>
      <use xlink:href="#DejaVuSans-69" transform="translate(624.853516 0.015625)"/>
      <use xlink:href="#DejaVuSans-6c" transform="translate(652.636719 0.015625)"/>
      <use xlink:href="#DejaVuSans-69" transform="translate(680.419922 0.015625)"/>
      <use xlink:href="#DejaVuSans-73" transform="translate(708.203125 0.015625)"/>
      <use xlink:href="#DejaVuSans-61" transform="translate(760.302734 0.015625)"/>
      <use xlink:href="#DejaVuSans-74" transform="translate(821.582031 0.015625)"/>
      <use xlink:href="#DejaVuSans-65" transform="translate(860.791016 0.015625)"/>
      <use xlink:href="#DejaVuSans-75" transform="translate(922.314453 0.015625)"/>
      <use xlink:href="#DejaVuSans-72" transform="translate(985.693359 0.015625)"/>
      <use xlink:href="#DejaVuSans-73" transform="translate(1026.806641 0.015625)"/>
      <use xlink:href="#DejaVuSans-20" transform="translate(1078.90625 0.015625)"/>
      <use xlink:href="#DejaVuSans-28" transform="translate(1110.693359 0.015625)"/>
      <use xlink:href="#DejaVuSans-Oblique-6e" transform="translate(1149.707031 0.015625)"/>
      <use xlink:href="#DejaVuSans-29" transform="translate(1213.085938 0.015625)"/>
     </g>
    </g>
   </g>
   <g id="matplotlib.axis_2">
    <g id="ytick_1">
     <g id="line2d_13">
      <path d="M 57.6 295.488 
L 414.72 295.488 
" clip-path="url(#p0377bc150e)" style="fill: none; stroke: #b0b0b0; stroke-width: 0.8; stroke-linecap: square"/>
     </g>
     <g id="line2d_14">
      <defs>
       <path id="mb9d3cc02e8" d="M 0 0 
L -3.5 0 
" style="stroke: #000000; stroke-width: 0.8"/>
      </defs>
      <g>
       <use xlink:href="#mb9d3cc02e8" x="57.6" y="295.488" style="stroke: #000000; stroke-width: 0.8"/>
      </g>
     </g>
     <g id="text_8">
      <!-- 0 -->
      <g transform="translate(44.2375 299.287219) scale(0.1 -0.1)">
       <use xlink:href="#DejaVuSans-30"/>
      </g>
     </g>
    </g>
    <g id="ytick_2">
     <g id="line2d_15">
      <path d="M 57.6 260.903292 
L 414.72 260.903292 
" clip-path="url(#p0377bc150e)" style="fill: none; stroke: #b0b0b0; stroke-width: 0.8; stroke-linecap: square"/>
     </g>
     <g id="line2d_16">
      <g>
       <use xlink:href="#mb9d3cc02e8" x="57.6" y="260.903292" style="stroke: #000000; stroke-width: 0.8"/>
      </g>
     </g>
     <g id="text_9">
      <!-- 1 -->
      <g transform="translate(44.2375 264.70251) scale(0.1 -0.1)">
       <use xlink:href="#DejaVuSans-31"/>
      </g>
     </g>
    </g>
    <g id="ytick_3">
     <g id="line2d_17">
      <path d="M 57.6 226.318583 
L 414.72 226.318583 
" clip-path="url(#p0377bc150e)" style="fill: none; stroke: #b0b0b0; stroke-width: 0.8; stroke-linecap: square"/>
     </g>
     <g id="line2d_18">
      <g>
       <use xlink:href="#mb9d3cc02e8" x="57.6" y="226.318583" style="stroke: #000000; stroke-width: 0.8"/>
      </g>
     </g>
     <g id="text_10">
      <!-- 2 -->
      <g transform="translate(44.2375 230.117802) scale(0.1 -0.1)">
       <use xlink:href="#DejaVuSans-32"/>
      </g>
     </g>
    </g>
    <g id="ytick_4">
     <g id="line2d_19">
      <path d="M 57.6 191.733875 
L 414.72 191.733875 
" clip-path="url(#p0377bc150e)" style="fill: none; stroke: #b0b0b0; stroke-width: 0.8; stroke-linecap: square"/>
     </g>
     <g id="line2d_20">
      <g>
       <use xlink:href="#mb9d3cc02e8" x="57.6" y="191.733875" style="stroke: #000000; stroke-width: 0.8"/>
      </g>
     </g>
     <g id="text_11">
      <!-- 3 -->
      <g transform="translate(44.2375 195.533094) scale(0.1 -0.1)">
       <defs>
        <path id="DejaVuSans-33" d="M 2597 2516 
Q 3050 2419 3304 2112 
Q 3559 1806 3559 1356 
Q 3559 666 3084 287 
Q 2609 -91 1734 -91 
Q 1441 -91 1130 -33 
Q 819 25 488 141 
L 488 750 
Q 750 597 1062 519 
Q 1375 441 1716 441 
Q 2309 441 2620 675 
Q 2931 909 2931 1356 
Q 2931 1769 2642 2001 
Q 2353 2234 1838 2234 
L 1294 2234 
L 1294 2753 
L 1863 2753 
Q 2328 2753 2575 2939 
Q 2822 3125 2822 3475 
Q 2822 3834 2567 4026 
Q 2313 4219 1838 4219 
Q 1578 4219 1281 4162 
Q 984 4106 628 3988 
L 628 4550 
Q 988 4650 1302 4700 
Q 1616 4750 1894 4750 
Q 2613 4750 3031 4423 
Q 3450 4097 3450 3541 
Q 3450 3153 3228 2886 
Q 3006 2619 2597 2516 
z
" transform="scale(0.015625)"/>
       </defs>
       <use xlink:href="#DejaVuSans-33"/>
      </g>
     </g>
    </g>
    <g id="ytick_5">
     <g id="line2d_21">
      <path d="M 57.6 157.149167 
L 414.72 157.149167 
" clip-path="url(#p0377bc150e)" style="fill: none; stroke: #b0b0b0; stroke-width: 0.8; stroke-linecap: square"/>
     </g>
     <g id="line2d_22">
      <g>
       <use xlink:href="#mb9d3cc02e8" x="57.6" y="157.149167" style="stroke: #000000; stroke-width: 0.8"/>
      </g>
     </g>
     <g id="text_12">
      <!-- 4 -->
      <g transform="translate(44.2375 160.948386) scale(0.1 -0.1)">
       <use xlink:href="#DejaVuSans-34"/>
      </g>
     </g>
    </g>
    <g id="ytick_6">
     <g id="line2d_23">
      <path d="M 57.6 122.564458 
L 414.72 122.564458 
" clip-path="url(#p0377bc150e)" style="fill: none; stroke: #b0b0b0; stroke-width: 0.8; stroke-linecap: square"/>
     </g>
     <g id="line2d_24">
      <g>
       <use xlink:href="#mb9d3cc02e8" x="57.6" y="122.564458" style="stroke: #000000; stroke-width: 0.8"/>
      </g>
     </g>
     <g id="text_13">
      <!-- 5 -->
      <g transform="translate(44.2375 126.363677) scale(0.1 -0.1)">
       <defs>
        <path id="DejaVuSans-35" d="M 691 4666 
L 3169 4666 
L 3169 4134 
L 1269 4134 
L 1269 2991 
Q 1406 3038 1543 3061 
Q 1681 3084 1819 3084 
Q 2600 3084 3056 2656 
Q 3513 2228 3513 1497 
Q 3513 744 3044 326 
Q 2575 -91 1722 -91 
Q 1428 -91 1123 -41 
Q 819 9 494 109 
L 494 744 
Q 775 591 1075 516 
Q 1375 441 1709 441 
Q 2250 441 2565 725 
Q 2881 1009 2881 1497 
Q 2881 1984 2565 2268 
Q 2250 2553 1709 2553 
Q 1456 2553 1204 2497 
Q 953 2441 691 2322 
L 691 4666 
z
" transform="scale(0.015625)"/>
       </defs>
       <use xlink:href="#DejaVuSans-35"/>
      </g>
     </g>
    </g>
    <g id="ytick_7">
     <g id="line2d_25">
      <path d="M 57.6 87.97975 
L 414.72 87.97975 
" clip-path="url(#p0377bc150e)" style="fill: none; stroke: #b0b0b0; stroke-width: 0.8; stroke-linecap: square"/>
     </g>
     <g id="line2d_26">
      <g>
       <use xlink:href="#mb9d3cc02e8" x="57.6" y="87.97975" style="stroke: #000000; stroke-width: 0.8"/>
      </g>
     </g>
     <g id="text_14">
      <!-- 6 -->
      <g transform="translate(44.2375 91.778969) scale(0.1 -0.1)">
       <use xlink:href="#DejaVuSans-36"/>
      </g>
     </g>
    </g>
    <g id="ytick_8">
     <g id="line2d_27">
      <path d="M 57.6 53.395042 
L 414.72 53.395042 
" clip-path="url(#p0377bc150e)" style="fill: none; stroke: #b0b0b0; stroke-width: 0.8; stroke-linecap: square"/>
     </g>
     <g id="line2d_28">
      <g>
       <use xlink:href="#mb9d3cc02e8" x="57.6" y="53.395042" style="stroke: #000000; stroke-width: 0.8"/>
      </g>
     </g>
     <g id="text_15">
      <!-- 7 -->
      <g transform="translate(44.2375 57.194261) scale(0.1 -0.1)">
       <defs>
        <path id="DejaVuSans-37" d="M 525 4666 
L 3525 4666 
L 3525 4397 
L 1831 0 
L 1172 0 
L 2766 4134 
L 525 4134 
L 525 4666 
z
" transform="scale(0.015625)"/>
       </defs>
       <use xlink:href="#DejaVuSans-37"/>
      </g>
     </g>
    </g>
    <g id="text_16">
     <!-- Nombre de chiffrements totaux -->
     <g transform="translate(38.157812 253.10925) rotate(-90) scale(0.1 -0.1)">
      <defs>
       <path id="DejaVuSans-63" d="M 3122 3366 
L 3122 2828 
Q 2878 2963 2633 3030 
Q 2388 3097 2138 3097 
Q 1578 3097 1268 2742 
Q 959 2388 959 1747 
Q 959 1106 1268 751 
Q 1578 397 2138 397 
Q 2388 397 2633 464 
Q 2878 531 3122 666 
L 3122 134 
Q 2881 22 2623 -34 
Q 2366 -91 2075 -91 
Q 1284 -91 818 406 
Q 353 903 353 1747 
Q 353 2603 823 3093 
Q 1294 3584 2113 3584 
Q 2378 3584 2631 3529 
Q 2884 3475 3122 3366 
z
" transform="scale(0.015625)"/>
       <path id="DejaVuSans-68" d="M 3513 2113 
L 3513 0 
L 2938 0 
L 2938 2094 
Q 2938 2591 2744 2837 
Q 2550 3084 2163 3084 
Q 1697 3084 1428 2787 
Q 1159 2491 1159 1978 
L 1159 0 
L 581 0 
L 581 4863 
L 1159 4863 
L 1159 2956 
Q 1366 3272 1645 3428 
Q 1925 3584 2291 3584 
Q 2894 3584 3203 3211 
Q 3513 2838 3513 2113 
z
" transform="scale(0.015625)"/>
       <path id="DejaVuSans-66" d="M 2375 4863 
L 2375 4384 
L 1825 4384 
Q 1516 4384 1395 4259 
Q 1275 4134 1275 3809 
L 1275 3500 
L 2222 3500 
L 2222 3053 
L 1275 3053 
L 1275 0 
L 697 0 
L 697 3053 
L 147 3053 
L 147 3500 
L 697 3500 
L 697 3744 
Q 697 4328 969 4595 
Q 1241 4863 1831 4863 
L 2375 4863 
z
" transform="scale(0.015625)"/>
       <path id="DejaVuSans-6e" d="M 3513 2113 
L 3513 0 
L 2938 0 
L 2938 2094 
Q 2938 2591 2744 2837 
Q 2550 3084 2163 3084 
Q 1697 3084 1428 2787 
Q 1159 2491 1159 1978 
L 1159 0 
L 581 0 
L 581 3500 
L 1159 3500 
L 1159 2956 
Q 1366 3272 1645 3428 
Q 1925 3584 2291 3584 
Q 2894 3584 3203 3211 
Q 3513 2838 3513 2113 
z
" transform="scale(0.015625)"/>
       <path id="DejaVuSans-78" d="M 3513 3500 
L 2247 1797 
L 3578 0 
L 2900 0 
L 1881 1375 
L 863 0 
L 184 0 
L 1544 1831 
L 300 3500 
L 978 3500 
L 1906 2253 
L 2834 3500 
L 3513 3500 
z
" transform="scale(0.015625)"/>
      </defs>
      <use xlink:href="#DejaVuSans-4e"/>
      <use xlink:href="#DejaVuSans-6f" transform="translate(74.804688 0)"/>
      <use xlink:href="#DejaVuSans-6d" transform="translate(135.986328 0)"/>
      <use xlink:href="#DejaVuSans-62" transform="translate(233.398438 0)"/>
      <use xlink:href="#DejaVuSans-72" transform="translate(296.875 0)"/>
      <use xlink:href="#DejaVuSans-65" transform="translate(335.738281 0)"/>
      <use xlink:href="#DejaVuSans-20" transform="translate(397.261719 0)"/>
      <use xlink:href="#DejaVuSans-64" transform="translate(429.048828 0)"/>
      <use xlink:href="#DejaVuSans-65" transform="translate(492.525391 0)"/>
      <use xlink:href="#DejaVuSans-20" transform="translate(554.048828 0)"/>
      <use xlink:href="#DejaVuSans-63" transform="translate(585.835938 0)"/>
      <use xlink:href="#DejaVuSans-68" transform="translate(640.816406 0)"/>
      <use xlink:href="#DejaVuSans-69" transform="translate(704.195312 0)"/>
      <use xlink:href="#DejaVuSans-66" transform="translate(731.978516 0)"/>
      <use xlink:href="#DejaVuSans-66" transform="translate(767.183594 0)"/>
      <use xlink:href="#DejaVuSans-72" transform="translate(802.388672 0)"/>
      <use xlink:href="#DejaVuSans-65" transform="translate(841.251953 0)"/>
      <use xlink:href="#DejaVuSans-6d" transform="translate(902.775391 0)"/>
      <use xlink:href="#DejaVuSans-65" transform="translate(1000.1875 0)"/>
      <use xlink:href="#DejaVuSans-6e" transform="translate(1061.710938 0)"/>
      <use xlink:href="#DejaVuSans-74" transform="translate(1125.089844 0)"/>
      <use xlink:href="#DejaVuSans-73" transform="translate(1164.298828 0)"/>
      <use xlink:href="#DejaVuSans-20" transform="translate(1216.398438 0)"/>
      <use xlink:href="#DejaVuSans-74" transform="translate(1248.185547 0)"/>
      <use xlink:href="#DejaVuSans-6f" transform="translate(1287.394531 0)"/>
      <use xlink:href="#DejaVuSans-74" transform="translate(1348.576172 0)"/>
      <use xlink:href="#DejaVuSans-61" transform="translate(1387.785156 0)"/>
      <use xlink:href="#DejaVuSans-75" transform="translate(1449.064453 0)"/>
      <use xlink:href="#DejaVuSans-78" transform="translate(1512.443359 0)"/>
     </g>
    </g>
    <g id="text_17">
     <!-- 1e6 -->
     <g transform="translate(57.6 38.472) scale(0.1 -0.1)">
      <use xlink:href="#DejaVuSans-31"/>
      <use xlink:href="#DejaVuSans-65" transform="translate(63.623047 0)"/>
      <use xlink:href="#DejaVuSans-36" transform="translate(125.146484 0)"/>
     </g>
    </g>
   </g>
   <g id="line2d_29">
    <path d="M 73.832727 295.488 
L 77.112066 295.461128 
L 80.391405 295.388327 
L 83.670744 295.255141 
L 86.950083 295.091383 
L 90.229421 294.900233 
L 93.50876 294.592118 
L 96.788099 294.266226 
L 100.067438 293.939228 
L 103.346777 293.479631 
L 106.626116 293.039403 
L 109.905455 292.483108 
L 113.184793 291.884135 
L 116.464132 291.165015 
L 119.743471 290.59039 
L 123.02281 289.947841 
L 126.302149 289.075303 
L 129.581488 287.987026 
L 132.860826 287.334102 
L 136.140165 286.709398 
L 139.419504 285.160107 
L 142.698843 284.354041 
L 145.978182 283.276139 
L 149.257521 281.907104 
L 152.53686 281.26158 
L 155.816198 279.420602 
L 159.095537 278.917705 
L 162.374876 277.525152 
L 165.654215 276.049941 
L 168.933554 274.375938 
L 172.212893 273.013196 
L 175.492231 271.439558 
L 178.77157 269.946363 
L 182.050909 268.483672 
L 185.330248 266.580994 
L 188.609587 264.55893 
L 191.888926 263.165892 
L 195.168264 261.333145 
L 198.447603 257.942979 
L 201.726942 257.313779 
L 205.006281 257.018945 
L 208.28562 253.399551 
L 211.564959 251.523296 
L 214.844298 249.431025 
L 218.123636 246.706546 
L 221.402975 245.002038 
L 224.682314 242.037472 
L 227.961653 239.850162 
L 231.240992 238.357175 
L 234.520331 235.111158 
L 237.799669 233.574663 
L 241.079008 230.827288 
L 244.358347 226.363613 
L 247.637686 224.616704 
L 250.917025 222.867099 
L 254.196364 221.140941 
L 257.475702 217.135859 
L 260.755041 212.574032 
L 264.03438 212.313298 
L 267.313719 207.324904 
L 270.593058 207.385877 
L 273.872397 203.958428 
L 277.151736 198.245276 
L 280.431074 195.827978 
L 283.710413 192.619589 
L 286.989752 189.211301 
L 290.269091 184.695403 
L 293.54843 185.747366 
L 296.827769 179.810036 
L 300.107107 175.381845 
L 303.386446 175.088255 
L 306.665785 167.392915 
L 309.945124 161.655278 
L 313.224463 160.75611 
L 316.503802 158.12328 
L 319.78314 154.042457 
L 323.062479 149.582724 
L 326.341818 148.095132 
L 329.621157 142.361091 
L 332.900496 134.474982 
L 336.179835 136.399033 
L 339.459174 131.527328 
L 342.738512 126.35847 
L 346.017851 122.459494 
L 349.29719 117.697352 
L 352.576529 110.81918 
L 355.855868 109.530934 
L 359.135207 106.17231 
L 362.414545 106.376325 
L 365.693884 95.603085 
L 368.973223 90.232736 
L 372.252562 89.370436 
L 375.531901 83.098949 
L 378.81124 79.194923 
L 382.090579 76.08178 
L 385.369917 72.522772 
L 388.649256 66.14504 
L 391.928595 57.95424 
L 395.207934 54.340726 
L 398.487273 53.568 
" clip-path="url(#p0377bc150e)" style="fill: none; stroke: #ff0000; stroke-width: 1.5; stroke-linecap: square"/>
   </g>
   <g id="line2d_30">
    <path d="M 73.832727 295.488 
L 77.112066 295.44802 
L 80.391405 295.383105 
L 83.670744 295.301969 
L 86.950083 295.216441 
L 90.229421 295.130394 
L 93.50876 295.029718 
L 96.788099 294.931325 
L 100.067438 294.837635 
L 103.346777 294.718283 
L 106.626116 294.617503 
L 109.905455 294.50078 
L 113.184793 294.38793 
L 116.464132 294.263079 
L 119.743471 294.159394 
L 123.02281 294.049345 
L 126.302149 293.923077 
L 129.581488 293.795563 
L 132.860826 293.676903 
L 136.140165 293.575915 
L 139.419504 293.417414 
L 142.698843 293.306846 
L 145.978182 293.185039 
L 149.257521 293.037846 
L 152.53686 292.939418 
L 155.816198 292.783925 
L 159.095537 292.67782 
L 162.374876 292.545983 
L 165.654215 292.415564 
L 168.933554 292.2618 
L 172.212893 292.139889 
L 175.492231 292.008536 
L 178.77157 291.884619 
L 182.050909 291.743306 
L 185.330248 291.597981 
L 188.609587 291.468738 
L 191.888926 291.328705 
L 195.168264 291.191991 
L 198.447603 291.02429 
L 201.726942 290.893698 
L 205.006281 290.805542 
L 208.28562 290.640158 
L 211.564959 290.497496 
L 214.844298 290.358223 
L 218.123636 290.210028 
L 221.402975 290.066155 
L 224.682314 289.915193 
L 227.961653 289.771459 
L 231.240992 289.65477 
L 234.520331 289.47448 
L 237.799669 289.353883 
L 241.079008 289.199151 
L 244.358347 289.033421 
L 247.637686 288.895532 
L 250.917025 288.779258 
L 254.196364 288.625944 
L 257.475702 288.485565 
L 260.755041 288.298081 
L 264.03438 288.183813 
L 267.313719 288.013933 
L 270.593058 287.913396 
L 273.872397 287.756623 
L 277.151736 287.583146 
L 280.431074 287.445153 
L 283.710413 287.288588 
L 286.989752 287.148762 
L 290.269091 286.956713 
L 293.54843 286.896052 
L 296.827769 286.689201 
L 300.107107 286.533431 
L 303.386446 286.43445 
L 306.665785 286.205914 
L 309.945124 286.045856 
L 313.224463 285.91229 
L 316.503802 285.784395 
L 319.78314 285.627485 
L 323.062479 285.470539 
L 326.341818 285.355649 
L 329.621157 285.144855 
L 332.900496 284.936586 
L 336.179835 284.879798 
L 339.459174 284.7039 
L 342.738512 284.527345 
L 346.017851 284.371195 
L 349.29719 284.204774 
L 352.576529 284.025936 
L 355.855868 283.904059 
L 359.135207 283.756902 
L 362.414545 283.651902 
L 365.693884 283.417453 
L 368.973223 283.247884 
L 372.252562 283.130815 
L 375.531901 282.964808 
L 378.81124 282.789463 
L 382.090579 282.632587 
L 385.369917 282.491758 
L 388.649256 282.304378 
L 391.928595 282.118693 
L 395.207934 281.973714 
L 398.487273 281.852771 
" clip-path="url(#p0377bc150e)" style="fill: none; stroke: #0000ff; stroke-width: 1.5; stroke-linecap: square"/>
   </g>
   <g id="line2d_31">
    <path d="M 73.832727 295.488 
L 77.112066 295.460298 
L 80.391405 295.399532 
L 83.670744 295.325832 
L 86.950083 295.225917 
L 90.229421 295.122128 
L 93.50876 295.037327 
L 96.788099 294.927728 
L 100.067438 294.840955 
L 103.346777 294.725303 
L 106.626116 294.603254 
L 109.905455 294.495419 
L 113.184793 294.375064 
L 116.464132 294.253706 
L 119.743471 294.141202 
L 123.02281 294.032503 
L 126.302149 293.886797 
L 129.581488 293.775261 
L 132.860826 293.661789 
L 136.140165 293.542748 
L 139.419504 293.42018 
L 142.698843 293.24155 
L 145.978182 293.135271 
L 149.257521 292.986626 
L 152.53686 292.875298 
L 155.816198 292.733293 
L 159.095537 292.607474 
L 162.374876 292.478197 
L 165.654215 292.343627 
L 168.933554 292.204562 
L 172.212893 292.08694 
L 175.492231 291.946215 
L 178.77157 291.822125 
L 182.050909 291.669675 
L 185.330248 291.510378 
L 188.609587 291.408077 
L 191.888926 291.27375 
L 195.168264 291.130015 
L 198.447603 290.990708 
L 201.726942 290.866342 
L 205.006281 290.679826 
L 208.28562 290.575415 
L 211.564959 290.446345 
L 214.844298 290.229118 
L 218.123636 290.072104 
L 221.402975 289.965687 
L 224.682314 289.83219 
L 227.961653 289.643599 
L 231.240992 289.514737 
L 234.520331 289.372386 
L 237.799669 289.253553 
L 241.079008 289.029928 
L 244.358347 288.901723 
L 247.637686 288.761343 
L 250.917025 288.577249 
L 254.196364 288.427463 
L 257.475702 288.290715 
L 260.755041 288.120039 
L 264.03438 288.0167 
L 267.313719 287.874038 
L 270.593058 287.716159 
L 273.872397 287.575468 
L 277.151736 287.411191 
L 280.431074 287.274858 
L 283.710413 287.139321 
L 286.989752 286.997696 
L 290.269091 286.878863 
L 293.54843 286.707081 
L 296.827769 286.540694 
L 300.107107 286.417538 
L 303.386446 286.258206 
L 306.665785 286.07795 
L 309.945124 285.938297 
L 313.224463 285.737672 
L 316.503802 285.646402 
L 319.78314 285.470401 
L 323.062479 285.33725 
L 326.341818 285.163462 
L 329.621157 284.988394 
L 332.900496 284.906601 
L 336.179835 284.667897 
L 339.459174 284.473428 
L 342.738512 284.370503 
L 346.017851 284.221616 
L 349.29719 284.062354 
L 352.576529 283.896624 
L 355.855868 283.699975 
L 359.135207 283.533069 
L 362.414545 283.37225 
L 365.693884 283.24069 
L 368.973223 283.073992 
L 372.252562 282.854275 
L 375.531901 282.685433 
L 378.81124 282.498156 
L 382.090579 282.329625 
L 385.369917 282.187966 
L 388.649256 281.973749 
L 391.928595 281.835617 
L 395.207934 281.576682 
L 398.487273 281.497794 
" clip-path="url(#p0377bc150e)" style="fill: none; stroke: #1f77b4; stroke-width: 1.5; stroke-linecap: square"/>
   </g>
   <g id="line2d_32">
    <path d="M 73.832727 295.488 
L 77.112066 295.462234 
L 80.391405 295.389019 
L 83.670744 295.292769 
L 86.950083 295.191678 
L 90.229421 295.086195 
L 93.50876 294.96252 
L 96.788099 294.849566 
L 100.067438 294.723609 
L 103.346777 294.615774 
L 106.626116 294.484594 
L 109.905455 294.353898 
L 113.184793 294.234201 
L 116.464132 294.075664 
L 119.743471 293.984326 
L 123.02281 293.831289 
L 126.302149 293.700731 
L 129.581488 293.551395 
L 132.860826 293.402369 
L 136.140165 293.254485 
L 139.419504 293.139387 
L 142.698843 292.982787 
L 145.978182 292.831687 
L 149.257521 292.719805 
L 152.53686 292.537821 
L 155.816198 292.380806 
L 159.095537 292.22597 
L 162.374876 292.098733 
L 165.654215 291.939851 
L 168.933554 291.790514 
L 172.212893 291.679947 
L 175.492231 291.510966 
L 178.77157 291.331333 
L 182.050909 291.173004 
L 185.330248 291.043761 
L 188.609587 290.860393 
L 191.888926 290.788491 
L 195.168264 290.577352 
L 198.447603 290.409236 
L 201.726942 290.278194 
L 205.006281 290.111081 
L 208.28562 289.967589 
L 211.564959 289.781039 
L 214.844298 289.641905 
L 218.123636 289.481535 
L 221.402975 289.286408 
L 224.682314 289.127077 
L 227.961653 288.953496 
L 231.240992 288.800597 
L 234.520331 288.648217 
L 237.799669 288.480965 
L 241.079008 288.24451 
L 244.358347 288.164446 
L 247.637686 287.978449 
L 250.917025 287.811924 
L 254.196364 287.66027 
L 257.475702 287.448127 
L 260.755041 287.292877 
L 264.03438 287.152705 
L 267.313719 287.015957 
L 270.593058 286.846976 
L 273.872397 286.680416 
L 277.151736 286.524612 
L 280.431074 286.353141 
L 283.710413 286.204703 
L 286.989752 286.003801 
L 290.269091 285.849173 
L 293.54843 285.704332 
L 296.827769 285.543824 
L 300.107107 285.373183 
L 303.386446 285.205102 
L 306.665785 285.008245 
L 309.945124 284.879971 
L 313.224463 284.673465 
L 316.503802 284.511125 
L 319.78314 284.342628 
L 323.062479 284.187689 
L 326.341818 284.016114 
L 329.621157 283.790518 
L 332.900496 283.636616 
L 336.179835 283.427448 
L 339.459174 283.273373 
L 342.738512 283.073093 
L 346.017851 282.86759 
L 349.29719 282.720121 
L 352.576529 282.528384 
L 355.855868 282.412144 
L 359.135207 282.26592 
L 362.414545 282.044025 
L 365.693884 281.85993 
L 368.973223 281.662867 
L 372.252562 281.502394 
L 375.531901 281.28285 
L 378.81124 281.14541 
L 382.090579 280.944508 
L 385.369917 280.752182 
L 388.649256 280.519634 
L 391.928595 280.323712 
L 395.207934 280.21688 
L 398.487273 279.926783 
" clip-path="url(#p0377bc150e)" style="fill: none; stroke: #ff7f0e; stroke-width: 1.5; stroke-linecap: square"/>
   </g>
   <g id="line2d_33">
    <path d="M 73.832727 295.488 
L 77.112066 295.462234 
L 80.391405 295.389019 
L 83.670744 295.257977 
L 86.950083 295.093388 
L 90.229421 294.872634 
L 93.50876 294.603185 
L 96.788099 294.287046 
L 100.067438 293.91156 
L 103.346777 293.524868 
L 106.626116 293.058009 
L 109.905455 292.708531 
L 113.184793 292.53827 
L 116.464132 292.493552 
L 119.743471 292.247655 
L 123.02281 292.043986 
L 126.302149 291.855464 
L 129.581488 291.471539 
L 132.860826 291.12092 
L 136.140165 291.127387 
L 139.419504 290.780295 
L 142.698843 290.468929 
L 145.978182 290.262596 
L 149.257521 290.168595 
L 152.53686 289.820431 
L 155.816198 289.556342 
L 159.095537 289.208904 
L 162.374876 289.146064 
L 165.654215 288.790844 
L 168.933554 288.653854 
L 172.212893 288.325991 
L 175.492231 288.000653 
L 178.77157 287.701772 
L 182.050909 287.509584 
L 185.330248 287.182067 
L 188.609587 286.864822 
L 191.888926 286.661775 
L 195.168264 286.425112 
L 198.447603 286.091854 
L 201.726942 285.898871 
L 205.006281 285.55254 
L 208.28562 285.334172 
L 211.564959 285.055972 
L 214.844298 284.786004 
L 218.123636 284.49615 
L 221.402975 284.208094 
L 224.682314 283.931139 
L 227.961653 283.79619 
L 231.240992 283.437754 
L 234.520331 283.097544 
L 237.799669 282.980855 
L 241.079008 282.67236 
L 244.358347 282.288296 
L 247.637686 282.076431 
L 250.917025 281.768385 
L 254.196364 281.566687 
L 257.475702 281.221082 
L 260.755041 280.700132 
L 264.03438 280.757958 
L 267.313719 280.260837 
L 270.593058 279.965864 
L 273.872397 279.860381 
L 277.151736 279.457434 
L 280.431074 279.248923 
L 283.710413 278.938456 
L 286.989752 278.71618 
L 290.269091 278.442823 
L 293.54843 278.020855 
L 296.827769 277.837867 
L 300.107107 277.570043 
L 303.386446 277.365613 
L 306.665785 276.904945 
L 309.945124 276.721403 
L 313.224463 276.47516 
L 316.503802 276.094936 
L 319.78314 275.833268 
L 323.062479 275.638383 
L 326.341818 275.28683 
L 329.621157 275.02862 
L 332.900496 274.509608 
L 336.179835 274.422765 
L 339.459174 274.272149 
L 342.738512 273.783052 
L 346.017851 273.591591 
L 349.29719 273.278772 
L 352.576529 273.098621 
L 355.855868 272.678209 
L 359.135207 272.529253 
L 362.414545 271.996095 
L 365.693884 271.870449 
L 368.973223 271.491538 
L 372.252562 271.358353 
L 375.531901 270.971661 
L 378.81124 270.730606 
L 382.090579 270.223905 
L 385.369917 269.913646 
L 388.649256 269.673213 
L 391.928595 269.489776 
L 395.207934 269.223957 
L 398.487273 268.948214 
" clip-path="url(#p0377bc150e)" style="fill: none; stroke: #2ca02c; stroke-width: 1.5; stroke-linecap: square"/>
   </g>
   <g id="line2d_34">
    <path d="M 73.832727 295.488 
L 77.112066 295.462234 
L 80.391405 295.389019 
L 83.670744 295.257977 
L 86.950083 295.093388 
L 90.229421 294.872634 
L 93.50876 294.603185 
L 96.788099 294.287046 
L 100.067438 293.91156 
L 103.346777 293.524868 
L 106.626116 293.058009 
L 109.905455 292.545153 
L 113.184793 291.968383 
L 116.464132 291.126488 
L 119.743471 290.456132 
L 123.02281 289.712319 
L 126.302149 288.902242 
L 129.581488 288.111739 
L 132.860826 287.244181 
L 136.140165 286.278403 
L 139.419504 285.259019 
L 142.698843 285.255768 
L 145.978182 284.156839 
L 149.257521 283.676457 
L 152.53686 283.853324 
L 155.816198 283.149802 
L 159.095537 283.982394 
L 162.374876 283.15243 
L 165.654215 282.78853 
L 168.933554 282.302338 
L 172.212893 282.023343 
L 175.492231 281.899876 
L 178.77157 281.65339 
L 182.050909 281.122377 
L 185.330248 280.553908 
L 188.609587 280.183506 
L 191.888926 279.712981 
L 195.168264 279.042867 
L 198.447603 279.363087 
L 201.726942 278.675716 
L 205.006281 278.278545 
L 208.28562 278.135434 
L 211.564959 277.441803 
L 214.844298 277.222813 
L 218.123636 276.388111 
L 221.402975 276.121359 
L 224.682314 275.592247 
L 227.961653 275.364715 
L 231.240992 274.991926 
L 234.520331 274.45531 
L 237.799669 273.865502 
L 241.079008 273.293125 
L 244.358347 273.354029 
L 247.637686 272.965539 
L 250.917025 271.943906 
L 254.196364 271.69628 
L 257.475702 271.442186 
L 260.755041 271.446613 
L 264.03438 270.425257 
L 267.313719 270.318252 
L 270.593058 269.566173 
L 273.872397 268.996494 
L 277.151736 269.002373 
L 280.431074 268.582861 
L 283.710413 267.978285 
L 286.989752 267.437208 
L 290.269091 267.347184 
L 293.54843 266.598217 
L 296.827769 266.54174 
L 300.107107 265.76272 
L 303.386446 265.62241 
L 306.665785 265.059129 
L 309.945124 264.341876 
L 313.224463 263.906939 
L 316.503802 263.773719 
L 319.78314 263.104401 
L 323.062479 262.573007 
L 326.341818 262.406689 
L 329.621157 261.922572 
L 332.900496 261.726166 
L 336.179835 261.110039 
L 339.459174 260.404926 
L 342.738512 260.216405 
L 346.017851 259.625352 
L 349.29719 258.993835 
L 352.576529 258.918994 
L 355.855868 258.624229 
L 359.135207 257.673772 
L 362.414545 257.414559 
L 365.693884 257.092852 
L 368.973223 256.098369 
L 372.252562 256.519369 
L 375.531901 255.452638 
L 378.81124 255.005492 
L 382.090579 254.765889 
L 385.369917 254.316219 
L 388.649256 253.837843 
L 391.928595 253.138056 
L 395.207934 252.754131 
L 398.487273 252.464 
" clip-path="url(#p0377bc150e)" style="fill: none; stroke: #d62728; stroke-width: 1.5; stroke-linecap: square"/>
   </g>
   <g id="patch_3">
    <path d="M 57.6 307.584 
L 57.6 41.472 
" style="fill: none; stroke: #000000; stroke-width: 0.8; stroke-linejoin: miter; stroke-linecap: square"/>
   </g>
   <g id="patch_4">
    <path d="M 414.72 307.584 
L 414.72 41.472 
" style="fill: none; stroke: #000000; stroke-width: 0.8; stroke-linejoin: miter; stroke-linecap: square"/>
   </g>
   <g id="patch_5">
    <path d="M 57.6 307.584 
L 414.72 307.584 
" style="fill: none; stroke: #000000; stroke-width: 0.8; stroke-linejoin: miter; stroke-linecap: square"/>
   </g>
   <g id="patch_6">
    <path d="M 57.6 41.472 
L 414.72 41.472 
" style="fill: none; stroke: #000000; stroke-width: 0.8; stroke-linejoin: miter; stroke-linecap: square"/>
   </g>
   <g id="legend_1">
    <g id="patch_7">
     <path d="M 64.6 138.65325 
L 230.007812 138.65325 
Q 232.007812 138.65325 232.007812 136.65325 
L 232.007812 48.472 
Q 232.007812 46.472 230.007812 46.472 
L 64.6 46.472 
Q 62.6 46.472 62.6 48.472 
L 62.6 136.65325 
Q 62.6 138.65325 64.6 138.65325 
z
" style="fill: #ffffff; opacity: 0.8; stroke: #cccccc; stroke-linejoin: miter"/>
    </g>
    <g id="line2d_35">
     <path d="M 66.6 54.570437 
L 76.6 54.570437 
L 86.6 54.570437 
" style="fill: none; stroke: #ff0000; stroke-width: 1.5; stroke-linecap: square"/>
    </g>
    <g id="text_18">
     <!-- Unicast uniquement -->
     <g transform="translate(94.6 58.070437) scale(0.1 -0.1)">
      <defs>
       <path id="DejaVuSans-55" d="M 556 4666 
L 1191 4666 
L 1191 1831 
Q 1191 1081 1462 751 
Q 1734 422 2344 422 
Q 2950 422 3222 751 
Q 3494 1081 3494 1831 
L 3494 4666 
L 4128 4666 
L 4128 1753 
Q 4128 841 3676 375 
Q 3225 -91 2344 -91 
Q 1459 -91 1007 375 
Q 556 841 556 1753 
L 556 4666 
z
" transform="scale(0.015625)"/>
       <path id="DejaVuSans-71" d="M 947 1747 
Q 947 1113 1208 752 
Q 1469 391 1925 391 
Q 2381 391 2643 752 
Q 2906 1113 2906 1747 
Q 2906 2381 2643 2742 
Q 2381 3103 1925 3103 
Q 1469 3103 1208 2742 
Q 947 2381 947 1747 
z
M 2906 525 
Q 2725 213 2448 61 
Q 2172 -91 1784 -91 
Q 1150 -91 751 415 
Q 353 922 353 1747 
Q 353 2572 751 3078 
Q 1150 3584 1784 3584 
Q 2172 3584 2448 3432 
Q 2725 3281 2906 2969 
L 2906 3500 
L 3481 3500 
L 3481 -1331 
L 2906 -1331 
L 2906 525 
z
" transform="scale(0.015625)"/>
      </defs>
      <use xlink:href="#DejaVuSans-55"/>
      <use xlink:href="#DejaVuSans-6e" transform="translate(73.193359 0)"/>
      <use xlink:href="#DejaVuSans-69" transform="translate(136.572266 0)"/>
      <use xlink:href="#DejaVuSans-63" transform="translate(164.355469 0)"/>
      <use xlink:href="#DejaVuSans-61" transform="translate(219.335938 0)"/>
      <use xlink:href="#DejaVuSans-73" transform="translate(280.615234 0)"/>
      <use xlink:href="#DejaVuSans-74" transform="translate(332.714844 0)"/>
      <use xlink:href="#DejaVuSans-20" transform="translate(371.923828 0)"/>
      <use xlink:href="#DejaVuSans-75" transform="translate(403.710938 0)"/>
      <use xlink:href="#DejaVuSans-6e" transform="translate(467.089844 0)"/>
      <use xlink:href="#DejaVuSans-69" transform="translate(530.46875 0)"/>
      <use xlink:href="#DejaVuSans-71" transform="translate(558.251953 0)"/>
      <use xlink:href="#DejaVuSans-75" transform="translate(621.728516 0)"/>
      <use xlink:href="#DejaVuSans-65" transform="translate(685.107422 0)"/>
      <use xlink:href="#DejaVuSans-6d" transform="translate(746.630859 0)"/>
      <use xlink:href="#DejaVuSans-65" transform="translate(844.042969 0)"/>
      <use xlink:href="#DejaVuSans-6e" transform="translate(905.566406 0)"/>
      <use xlink:href="#DejaVuSans-74" transform="translate(968.945312 0)"/>
     </g>
    </g>
    <g id="line2d_36">
     <path d="M 66.6 69.248562 
L 76.6 69.248562 
L 86.6 69.248562 
" style="fill: none; stroke: #0000ff; stroke-width: 1.5; stroke-linecap: square"/>
    </g>
    <g id="text_19">
     <!-- LKH -->
     <g transform="translate(94.6 72.748562) scale(0.1 -0.1)">
      <defs>
       <path id="DejaVuSans-4c" d="M 628 4666 
L 1259 4666 
L 1259 531 
L 3531 531 
L 3531 0 
L 628 0 
L 628 4666 
z
" transform="scale(0.015625)"/>
       <path id="DejaVuSans-4b" d="M 628 4666 
L 1259 4666 
L 1259 2694 
L 3353 4666 
L 4166 4666 
L 1850 2491 
L 4331 0 
L 3500 0 
L 1259 2247 
L 1259 0 
L 628 0 
L 628 4666 
z
" transform="scale(0.015625)"/>
       <path id="DejaVuSans-48" d="M 628 4666 
L 1259 4666 
L 1259 2753 
L 3553 2753 
L 3553 4666 
L 4184 4666 
L 4184 0 
L 3553 0 
L 3553 2222 
L 1259 2222 
L 1259 0 
L 628 0 
L 628 4666 
z
" transform="scale(0.015625)"/>
      </defs>
      <use xlink:href="#DejaVuSans-4c"/>
      <use xlink:href="#DejaVuSans-4b" transform="translate(55.712891 0)"/>
      <use xlink:href="#DejaVuSans-48" transform="translate(121.289062 0)"/>
     </g>
    </g>
    <g id="line2d_37">
     <path d="M 66.6 83.926687 
L 76.6 83.926687 
L 86.6 83.926687 
" style="fill: none; stroke: #1f77b4; stroke-width: 1.5; stroke-linecap: square"/>
    </g>
    <g id="text_20">
     <!-- LKHPlus (max_user = 8) -->
     <g transform="translate(94.6 87.426687) scale(0.1 -0.1)">
      <defs>
       <path id="DejaVuSans-50" d="M 1259 4147 
L 1259 2394 
L 2053 2394 
Q 2494 2394 2734 2622 
Q 2975 2850 2975 3272 
Q 2975 3691 2734 3919 
Q 2494 4147 2053 4147 
L 1259 4147 
z
M 628 4666 
L 2053 4666 
Q 2838 4666 3239 4311 
Q 3641 3956 3641 3272 
Q 3641 2581 3239 2228 
Q 2838 1875 2053 1875 
L 1259 1875 
L 1259 0 
L 628 0 
L 628 4666 
z
" transform="scale(0.015625)"/>
       <path id="DejaVuSans-5f" d="M 3263 -1063 
L 3263 -1509 
L -63 -1509 
L -63 -1063 
L 3263 -1063 
z
" transform="scale(0.015625)"/>
       <path id="DejaVuSans-3d" d="M 678 2906 
L 4684 2906 
L 4684 2381 
L 678 2381 
L 678 2906 
z
M 678 1631 
L 4684 1631 
L 4684 1100 
L 678 1100 
L 678 1631 
z
" transform="scale(0.015625)"/>
      </defs>
      <use xlink:href="#DejaVuSans-4c"/>
      <use xlink:href="#DejaVuSans-4b" transform="translate(55.712891 0)"/>
      <use xlink:href="#DejaVuSans-48" transform="translate(121.289062 0)"/>
      <use xlink:href="#DejaVuSans-50" transform="translate(196.484375 0)"/>
      <use xlink:href="#DejaVuSans-6c" transform="translate(256.787109 0)"/>
      <use xlink:href="#DejaVuSans-75" transform="translate(284.570312 0)"/>
      <use xlink:href="#DejaVuSans-73" transform="translate(347.949219 0)"/>
      <use xlink:href="#DejaVuSans-20" transform="translate(400.048828 0)"/>
      <use xlink:href="#DejaVuSans-28" transform="translate(431.835938 0)"/>
      <use xlink:href="#DejaVuSans-6d" transform="translate(470.849609 0)"/>
      <use xlink:href="#DejaVuSans-61" transform="translate(568.261719 0)"/>
      <use xlink:href="#DejaVuSans-78" transform="translate(629.541016 0)"/>
      <use xlink:href="#DejaVuSans-5f" transform="translate(688.720703 0)"/>
      <use xlink:href="#DejaVuSans-75" transform="translate(738.720703 0)"/>
      <use xlink:href="#DejaVuSans-73" transform="translate(802.099609 0)"/>
      <use xlink:href="#DejaVuSans-65" transform="translate(854.199219 0)"/>
      <use xlink:href="#DejaVuSans-72" transform="translate(915.722656 0)"/>
      <use xlink:href="#DejaVuSans-20" transform="translate(956.835938 0)"/>
      <use xlink:href="#DejaVuSans-3d" transform="translate(988.623047 0)"/>
      <use xlink:href="#DejaVuSans-20" transform="translate(1072.412109 0)"/>
      <use xlink:href="#DejaVuSans-38" transform="translate(1104.199219 0)"/>
      <use xlink:href="#DejaVuSans-29" transform="translate(1167.822266 0)"/>
     </g>
    </g>
    <g id="line2d_38">
     <path d="M 66.6 98.882937 
L 76.6 98.882937 
L 86.6 98.882937 
" style="fill: none; stroke: #ff7f0e; stroke-width: 1.5; stroke-linecap: square"/>
    </g>
    <g id="text_21">
     <!-- LKHPlus (max_user = 16) -->
     <g transform="translate(94.6 102.382937) scale(0.1 -0.1)">
      <use xlink:href="#DejaVuSans-4c"/>
      <use xlink:href="#DejaVuSans-4b" transform="translate(55.712891 0)"/>
      <use xlink:href="#DejaVuSans-48" transform="translate(121.289062 0)"/>
      <use xlink:href="#DejaVuSans-50" transform="translate(196.484375 0)"/>
      <use xlink:href="#DejaVuSans-6c" transform="translate(256.787109 0)"/>
      <use xlink:href="#DejaVuSans-75" transform="translate(284.570312 0)"/>
      <use xlink:href="#DejaVuSans-73" transform="translate(347.949219 0)"/>
      <use xlink:href="#DejaVuSans-20" transform="translate(400.048828 0)"/>
      <use xlink:href="#DejaVuSans-28" transform="translate(431.835938 0)"/>
      <use xlink:href="#DejaVuSans-6d" transform="translate(470.849609 0)"/>
      <use xlink:href="#DejaVuSans-61" transform="translate(568.261719 0)"/>
      <use xlink:href="#DejaVuSans-78" transform="translate(629.541016 0)"/>
      <use xlink:href="#DejaVuSans-5f" transform="translate(688.720703 0)"/>
      <use xlink:href="#DejaVuSans-75" transform="translate(738.720703 0)"/>
      <use xlink:href="#DejaVuSans-73" transform="translate(802.099609 0)"/>
      <use xlink:href="#DejaVuSans-65" transform="translate(854.199219 0)"/>
      <use xlink:href="#DejaVuSans-72" transform="translate(915.722656 0)"/>
      <use xlink:href="#DejaVuSans-20" transform="translate(956.835938 0)"/>
      <use xlink:href="#DejaVuSans-3d" transform="translate(988.623047 0)"/>
      <use xlink:href="#DejaVuSans-20" transform="translate(1072.412109 0)"/>
      <use xlink:href="#DejaVuSans-31" transform="translate(1104.199219 0)"/>
      <use xlink:href="#DejaVuSans-36" transform="translate(1167.822266 0)"/>
      <use xlink:href="#DejaVuSans-29" transform="translate(1231.445312 0)"/>
     </g>
    </g>
    <g id="line2d_39">
     <path d="M 66.6 113.839187 
L 76.6 113.839187 
L 86.6 113.839187 
" style="fill: none; stroke: #2ca02c; stroke-width: 1.5; stroke-linecap: square"/>
    </g>
    <g id="text_22">
     <!-- LKHPlus (max_user = 64) -->
     <g transform="translate(94.6 117.339187) scale(0.1 -0.1)">
      <use xlink:href="#DejaVuSans-4c"/>
      <use xlink:href="#DejaVuSans-4b" transform="translate(55.712891 0)"/>
      <use xlink:href="#DejaVuSans-48" transform="translate(121.289062 0)"/>
      <use xlink:href="#DejaVuSans-50" transform="translate(196.484375 0)"/>
      <use xlink:href="#DejaVuSans-6c" transform="translate(256.787109 0)"/>
      <use xlink:href="#DejaVuSans-75" transform="translate(284.570312 0)"/>
      <use xlink:href="#DejaVuSans-73" transform="translate(347.949219 0)"/>
      <use xlink:href="#DejaVuSans-20" transform="translate(400.048828 0)"/>
      <use xlink:href="#DejaVuSans-28" transform="translate(431.835938 0)"/>
      <use xlink:href="#DejaVuSans-6d" transform="translate(470.849609 0)"/>
      <use xlink:href="#DejaVuSans-61" transform="translate(568.261719 0)"/>
      <use xlink:href="#DejaVuSans-78" transform="translate(629.541016 0)"/>
      <use xlink:href="#DejaVuSans-5f" transform="translate(688.720703 0)"/>
      <use xlink:href="#DejaVuSans-75" transform="translate(738.720703 0)"/>
      <use xlink:href="#DejaVuSans-73" transform="translate(802.099609 0)"/>
      <use xlink:href="#DejaVuSans-65" transform="translate(854.199219 0)"/>
      <use xlink:href="#DejaVuSans-72" transform="translate(915.722656 0)"/>
      <use xlink:href="#DejaVuSans-20" transform="translate(956.835938 0)"/>
      <use xlink:href="#DejaVuSans-3d" transform="translate(988.623047 0)"/>
      <use xlink:href="#DejaVuSans-20" transform="translate(1072.412109 0)"/>
      <use xlink:href="#DejaVuSans-36" transform="translate(1104.199219 0)"/>
      <use xlink:href="#DejaVuSans-34" transform="translate(1167.822266 0)"/>
      <use xlink:href="#DejaVuSans-29" transform="translate(1231.445312 0)"/>
     </g>
    </g>
    <g id="line2d_40">
     <path d="M 66.6 128.795437 
L 76.6 128.795437 
L 86.6 128.795437 
" style="fill: none; stroke: #d62728; stroke-width: 1.5; stroke-linecap: square"/>
    </g>
    <g id="text_23">
     <!-- LKHPlus (max_user = 128) -->
     <g transform="translate(94.6 132.295437) scale(0.1 -0.1)">
      <use xlink:href="#DejaVuSans-4c"/>
      <use xlink:href="#DejaVuSans-4b" transform="translate(55.712891 0)"/>
      <use xlink:href="#DejaVuSans-48" transform="translate(121.289062 0)"/>
      <use xlink:href="#DejaVuSans-50" transform="translate(196.484375 0)"/>
      <use xlink:href="#DejaVuSans-6c" transform="translate(256.787109 0)"/>
      <use xlink:href="#DejaVuSans-75" transform="translate(284.570312 0)"/>
      <use xlink:href="#DejaVuSans-73" transform="translate(347.949219 0)"/>
      <use xlink:href="#DejaVuSans-20" transform="translate(400.048828 0)"/>
      <use xlink:href="#DejaVuSans-28" transform="translate(431.835938 0)"/>
      <use xlink:href="#DejaVuSans-6d" transform="translate(470.849609 0)"/>
      <use xlink:href="#DejaVuSans-61" transform="translate(568.261719 0)"/>
      <use xlink:href="#DejaVuSans-78" transform="translate(629.541016 0)"/>
      <use xlink:href="#DejaVuSans-5f" transform="translate(688.720703 0)"/>
      <use xlink:href="#DejaVuSans-75" transform="translate(738.720703 0)"/>
      <use xlink:href="#DejaVuSans-73" transform="translate(802.099609 0)"/>
      <use xlink:href="#DejaVuSans-65" transform="translate(854.199219 0)"/>
      <use xlink:href="#DejaVuSans-72" transform="translate(915.722656 0)"/>
      <use xlink:href="#DejaVuSans-20" transform="translate(956.835938 0)"/>
      <use xlink:href="#DejaVuSans-3d" transform="translate(988.623047 0)"/>
      <use xlink:href="#DejaVuSans-20" transform="translate(1072.412109 0)"/>
      <use xlink:href="#DejaVuSans-31" transform="translate(1104.199219 0)"/>
      <use xlink:href="#DejaVuSans-32" transform="translate(1167.822266 0)"/>
      <use xlink:href="#DejaVuSans-38" transform="translate(1231.445312 0)"/>
      <use xlink:href="#DejaVuSans-29" transform="translate(1295.068359 0)"/>
     </g>
    </g>
   </g>
  </g>
  <g id="text_24">
   <!-- Nombre de chiffrement pour $15n$ actions aléatoires -->
   <g transform="translate(76.14 16.512) scale(0.12 -0.12)">
    <defs>
     <path id="DejaVuSans-70" d="M 1159 525 
L 1159 -1331 
L 581 -1331 
L 581 3500 
L 1159 3500 
L 1159 2969 
Q 1341 3281 1617 3432 
Q 1894 3584 2278 3584 
Q 2916 3584 3314 3078 
Q 3713 2572 3713 1747 
Q 3713 922 3314 415 
Q 2916 -91 2278 -91 
Q 1894 -91 1617 61 
Q 1341 213 1159 525 
z
M 3116 1747 
Q 3116 2381 2855 2742 
Q 2594 3103 2138 3103 
Q 1681 3103 1420 2742 
Q 1159 2381 1159 1747 
Q 1159 1113 1420 752 
Q 1681 391 2138 391 
Q 2594 391 2855 752 
Q 3116 1113 3116 1747 
z
" transform="scale(0.015625)"/>
     <path id="DejaVuSans-e9" d="M 3597 1894 
L 3597 1613 
L 953 1613 
Q 991 1019 1311 708 
Q 1631 397 2203 397 
Q 2534 397 2845 478 
Q 3156 559 3463 722 
L 3463 178 
Q 3153 47 2828 -22 
Q 2503 -91 2169 -91 
Q 1331 -91 842 396 
Q 353 884 353 1716 
Q 353 2575 817 3079 
Q 1281 3584 2069 3584 
Q 2775 3584 3186 3129 
Q 3597 2675 3597 1894 
z
M 3022 2063 
Q 3016 2534 2758 2815 
Q 2500 3097 2075 3097 
Q 1594 3097 1305 2825 
Q 1016 2553 972 2059 
L 3022 2063 
z
M 2466 5119 
L 3088 5119 
L 2070 3944 
L 1591 3944 
L 2466 5119 
z
" transform="scale(0.015625)"/>
    </defs>
    <use xlink:href="#DejaVuSans-4e" transform="translate(0 0.015625)"/>
    <use xlink:href="#DejaVuSans-6f" transform="translate(74.804688 0.015625)"/>
    <use xlink:href="#DejaVuSans-6d" transform="translate(135.986328 0.015625)"/>
    <use xlink:href="#DejaVuSans-62" transform="translate(233.398438 0.015625)"/>
    <use xlink:href="#DejaVuSans-72" transform="translate(296.875 0.015625)"/>
    <use xlink:href="#DejaVuSans-65" transform="translate(337.988281 0.015625)"/>
    <use xlink:href="#DejaVuSans-20" transform="translate(399.511719 0.015625)"/>
    <use xlink:href="#DejaVuSans-64" transform="translate(431.298828 0.015625)"/>
    <use xlink:href="#DejaVuSans-65" transform="translate(494.775391 0.015625)"/>
    <use xlink:href="#DejaVuSans-20" transform="translate(556.298828 0.015625)"/>
    <use xlink:href="#DejaVuSans-63" transform="translate(588.085938 0.015625)"/>
    <use xlink:href="#DejaVuSans-68" transform="translate(643.066406 0.015625)"/>
    <use xlink:href="#DejaVuSans-69" transform="translate(706.445312 0.015625)"/>
    <use xlink:href="#DejaVuSans-66" transform="translate(734.228516 0.015625)"/>
    <use xlink:href="#DejaVuSans-66" transform="translate(769.433594 0.015625)"/>
    <use xlink:href="#DejaVuSans-72" transform="translate(804.638672 0.015625)"/>
    <use xlink:href="#DejaVuSans-65" transform="translate(845.751953 0.015625)"/>
    <use xlink:href="#DejaVuSans-6d" transform="translate(907.275391 0.015625)"/>
    <use xlink:href="#DejaVuSans-65" transform="translate(1004.6875 0.015625)"/>
    <use xlink:href="#DejaVuSans-6e" transform="translate(1066.210938 0.015625)"/>
    <use xlink:href="#DejaVuSans-74" transform="translate(1129.589844 0.015625)"/>
    <use xlink:href="#DejaVuSans-20" transform="translate(1168.798828 0.015625)"/>
    <use xlink:href="#DejaVuSans-70" transform="translate(1200.585938 0.015625)"/>
    <use xlink:href="#DejaVuSans-6f" transform="translate(1264.0625 0.015625)"/>
    <use xlink:href="#DejaVuSans-75" transform="translate(1325.244141 0.015625)"/>
    <use xlink:href="#DejaVuSans-72" transform="translate(1388.623047 0.015625)"/>
    <use xlink:href="#DejaVuSans-20" transform="translate(1429.736328 0.015625)"/>
    <use xlink:href="#DejaVuSans-31" transform="translate(1461.523438 0.015625)"/>
    <use xlink:href="#DejaVuSans-35" transform="translate(1525.146484 0.015625)"/>
    <use xlink:href="#DejaVuSans-Oblique-6e" transform="translate(1588.769531 0.015625)"/>
    <use xlink:href="#DejaVuSans-20" transform="translate(1652.148438 0.015625)"/>
    <use xlink:href="#DejaVuSans-61" transform="translate(1683.935547 0.015625)"/>
    <use xlink:href="#DejaVuSans-63" transform="translate(1745.214844 0.015625)"/>
    <use xlink:href="#DejaVuSans-74" transform="translate(1800.195312 0.015625)"/>
    <use xlink:href="#DejaVuSans-69" transform="translate(1839.404297 0.015625)"/>
    <use xlink:href="#DejaVuSans-6f" transform="translate(1867.1875 0.015625)"/>
    <use xlink:href="#DejaVuSans-6e" transform="translate(1928.369141 0.015625)"/>
    <use xlink:href="#DejaVuSans-73" transform="translate(1991.748047 0.015625)"/>
    <use xlink:href="#DejaVuSans-20" transform="translate(2043.847656 0.015625)"/>
    <use xlink:href="#DejaVuSans-61" transform="translate(2075.634766 0.015625)"/>
    <use xlink:href="#DejaVuSans-6c" transform="translate(2136.914062 0.015625)"/>
    <use xlink:href="#DejaVuSans-e9" transform="translate(2164.697266 0.015625)"/>
    <use xlink:href="#DejaVuSans-61" transform="translate(2226.220703 0.015625)"/>
    <use xlink:href="#DejaVuSans-74" transform="translate(2287.5 0.015625)"/>
    <use xlink:href="#DejaVuSans-6f" transform="translate(2326.708984 0.015625)"/>
    <use xlink:href="#DejaVuSans-69" transform="translate(2387.890625 0.015625)"/>
    <use xlink:href="#DejaVuSans-72" transform="translate(2415.673828 0.015625)"/>
    <use xlink:href="#DejaVuSans-65" transform="translate(2456.787109 0.015625)"/>
    <use xlink:href="#DejaVuSans-73" transform="translate(2518.310547 0.015625)"/>
   </g>
  </g>
 </g>
 <defs>
  <clipPath id="p0377bc150e">
   <rect x="57.6" y="41.472" width="357.12" height="266.112"/>
  </clipPath>
 </defs>
</svg>
