<?xml version="1.0" encoding="utf-8" standalone="no"?>
<!DOCTYPE svg PUBLIC "-//W3C//DTD SVG 1.1//EN"
  "http://www.w3.org/Graphics/SVG/1.1/DTD/svg11.dtd">
<svg xmlns:xlink="http://www.w3.org/1999/xlink" width="460.8pt" height="345.6pt" viewBox="0 0 460.8 345.6" xmlns="http://www.w3.org/2000/svg" version="1.1">
 <metadata>
  <rdf:RDF xmlns:dc="http://purl.org/dc/elements/1.1/" xmlns:cc="http://creativecommons.org/ns#" xmlns:rdf="http://www.w3.org/1999/02/22-rdf-syntax-ns#">
   <cc:Work>
    <dc:type rdf:resource="http://purl.org/dc/dcmitype/StillImage"/>
    <dc:date>2026-07-14T17:10:06.490456</dc:date>
    <dc:format>image/svg+xml</dc:format>
    <dc:creator>
     <cc:Agent>
      <dc:title>Matplotlib v3.10.8, https://matplotlib.org/</dc:title>
     </cc:Agent>
    </dc:creator>
   </cc:Work>
  </rdf:RDF>
 </metadata>
 <defs>
  <style type="text/css">*{stroke-linejoin: round; stroke-linecap: butt}</style>
 </defs>
 <g id="figure_1">
  <g id="patch_1">
   <path d="M 0 345.6 
L 460.8 345.6 
L 460.8 0 
L 0 0 
z
" style="fill: #ffffff"/>
  </g>
  <g id="axes_1">
   <g id="patch_2">
    <path d="M 57.6 307.584 
L 414.72 307.584 
L 414.72 41.472 
L 57.6 41.472 
z
" style="fill: #ffffff"/>
   </g>
   <g id="matplotlib.axis_1">
    <g id="xtick_1">
     <g id="line2d_1">
      <path d="M 70.536742 307.584 
L 70.536742 41.472 
" clip-path="url(#p44777b5a7b)" style="fill: none; stroke: #b0b0b0; stroke-width: 0.8; stroke-linecap: square"/>
     </g>
     <g id="line2d_2">
      <defs>
       <path id="mb5a54426c1" d="M 0 0 
L 0 3.5 
" style="stroke: #000000; stroke-width: 0.8"/>
      </defs>
      <g>
       <use xlink:href="#mb5a54426c1" x="70.536742" y="307.584" style="stroke: #000000; stroke-width: 0.8"/>
      </g>
     </g>
     <g id="text_1">
      <!-- 0 -->
      <g transform="translate(67.355492 322.182437) scale(0.1 -0.1)">
       <defs>
        <path id="DejaVuSans-30" d="M 2034 4250 
Q 1547 4250 1301 3770 
Q 1056 3291 1056 2328 
Q 1056 1369 1301 889 
Q 1547 409 2034 409 
Q 2525 409 2770 889 
Q 3016 1369 3016 2328 
Q 3016 3291 2770 3770 
Q 2525 4250 2034 4250 
z
M 2034 4750 
Q 2819 4750 3233 4129 
Q 3647 3509 3647 2328 
Q 3647 1150 3233 529 
Q 2819 -91 2034 -91 
Q 1250 -91 836 529 
Q 422 1150 422 2328 
Q 422 3509 836 4129 
Q 1250 4750 2034 4750 
z
" transform="scale(0.015625)"/>
       </defs>
       <use xlink:href="#DejaVuSans-30"/>
      </g>
     </g>
    </g>
    <g id="xtick_2">
     <g id="line2d_3">
      <path d="M 111.736557 307.584 
L 111.736557 41.472 
" clip-path="url(#p44777b5a7b)" style="fill: none; stroke: #b0b0b0; stroke-width: 0.8; stroke-linecap: square"/>
     </g>
     <g id="line2d_4">
      <g>
       <use xlink:href="#mb5a54426c1" x="111.736557" y="307.584" style="stroke: #000000; stroke-width: 0.8"/>
      </g>
     </g>
     <g id="text_2">
      <!-- 25 -->
      <g transform="translate(105.374057 322.182437) scale(0.1 -0.1)">
       <defs>
        <path id="DejaVuSans-32" d="M 1228 531 
L 3431 531 
L 3431 0 
L 469 0 
L 469 531 
Q 828 903 1448 1529 
Q 2069 2156 2228 2338 
Q 2531 2678 2651 2914 
Q 2772 3150 2772 3378 
Q 2772 3750 2511 3984 
Q 2250 4219 1831 4219 
Q 1534 4219 1204 4116 
Q 875 4013 500 3803 
L 500 4441 
Q 881 4594 1212 4672 
Q 1544 4750 1819 4750 
Q 2544 4750 2975 4387 
Q 3406 4025 3406 3419 
Q 3406 3131 3298 2873 
Q 3191 2616 2906 2266 
Q 2828 2175 2409 1742 
Q 1991 1309 1228 531 
z
" transform="scale(0.015625)"/>
        <path id="DejaVuSans-35" d="M 691 4666 
L 3169 4666 
L 3169 4134 
L 1269 4134 
L 1269 2991 
Q 1406 3038 1543 3061 
Q 1681 3084 1819 3084 
Q 2600 3084 3056 2656 
Q 3513 2228 3513 1497 
Q 3513 744 3044 326 
Q 2575 -91 1722 -91 
Q 1428 -91 1123 -41 
Q 819 9 494 109 
L 494 744 
Q 775 591 1075 516 
Q 1375 441 1709 441 
Q 2250 441 2565 725 
Q 2881 1009 2881 1497 
Q 2881 1984 2565 2268 
Q 2250 2553 1709 2553 
Q 1456 2553 1204 2497 
Q 953 2441 691 2322 
L 691 4666 
z
" transform="scale(0.015625)"/>
       </defs>
       <use xlink:href="#DejaVuSans-32"/>
       <use xlink:href="#DejaVuSans-35" transform="translate(63.623047 0)"/>
      </g>
     </g>
    </g>
    <g id="xtick_3">
     <g id="line2d_5">
      <path d="M 152.936373 307.584 
L 152.936373 41.472 
" clip-path="url(#p44777b5a7b)" style="fill: none; stroke: #b0b0b0; stroke-width: 0.8; stroke-linecap: square"/>
     </g>
     <g id="line2d_6">
      <g>
       <use xlink:href="#mb5a54426c1" x="152.936373" y="307.584" style="stroke: #000000; stroke-width: 0.8"/>
      </g>
     </g>
     <g id="text_3">
      <!-- 50 -->
      <g transform="translate(146.573873 322.182437) scale(0.1 -0.1)">
       <use xlink:href="#DejaVuSans-35"/>
       <use xlink:href="#DejaVuSans-30" transform="translate(63.623047 0)"/>
      </g>
     </g>
    </g>
    <g id="xtick_4">
     <g id="line2d_7">
      <path d="M 194.136188 307.584 
L 194.136188 41.472 
" clip-path="url(#p44777b5a7b)" style="fill: none; stroke: #b0b0b0; stroke-width: 0.8; stroke-linecap: square"/>
     </g>
     <g id="line2d_8">
      <g>
       <use xlink:href="#mb5a54426c1" x="194.136188" y="307.584" style="stroke: #000000; stroke-width: 0.8"/>
      </g>
     </g>
     <g id="text_4">
      <!-- 75 -->
      <g transform="translate(187.773688 322.182437) scale(0.1 -0.1)">
       <defs>
        <path id="DejaVuSans-37" d="M 525 4666 
L 3525 4666 
L 3525 4397 
L 1831 0 
L 1172 0 
L 2766 4134 
L 525 4134 
L 525 4666 
z
" transform="scale(0.015625)"/>
       </defs>
       <use xlink:href="#DejaVuSans-37"/>
       <use xlink:href="#DejaVuSans-35" transform="translate(63.623047 0)"/>
      </g>
     </g>
    </g>
    <g id="xtick_5">
     <g id="line2d_9">
      <path d="M 235.336004 307.584 
L 235.336004 41.472 
" clip-path="url(#p44777b5a7b)" style="fill: none; stroke: #b0b0b0; stroke-width: 0.8; stroke-linecap: square"/>
     </g>
     <g id="line2d_10">
      <g>
       <use xlink:href="#mb5a54426c1" x="235.336004" y="307.584" style="stroke: #000000; stroke-width: 0.8"/>
      </g>
     </g>
     <g id="text_5">
      <!-- 100 -->
      <g transform="translate(225.792254 322.182437) scale(0.1 -0.1)">
       <defs>
        <path id="DejaVuSans-31" d="M 794 531 
L 1825 531 
L 1825 4091 
L 703 3866 
L 703 4441 
L 1819 4666 
L 2450 4666 
L 2450 531 
L 3481 531 
L 3481 0 
L 794 0 
L 794 531 
z
" transform="scale(0.015625)"/>
       </defs>
       <use xlink:href="#DejaVuSans-31"/>
       <use xlink:href="#DejaVuSans-30" transform="translate(63.623047 0)"/>
       <use xlink:href="#DejaVuSans-30" transform="translate(127.246094 0)"/>
      </g>
     </g>
    </g>
    <g id="xtick_6">
     <g id="line2d_11">
      <path d="M 276.535819 307.584 
L 276.535819 41.472 
" clip-path="url(#p44777b5a7b)" style="fill: none; stroke: #b0b0b0; stroke-width: 0.8; stroke-linecap: square"/>
     </g>
     <g id="line2d_12">
      <g>
       <use xlink:href="#mb5a54426c1" x="276.535819" y="307.584" style="stroke: #000000; stroke-width: 0.8"/>
      </g>
     </g>
     <g id="text_6">
      <!-- 125 -->
      <g transform="translate(266.992069 322.182437) scale(0.1 -0.1)">
       <use xlink:href="#DejaVuSans-31"/>
       <use xlink:href="#DejaVuSans-32" transform="translate(63.623047 0)"/>
       <use xlink:href="#DejaVuSans-35" transform="translate(127.246094 0)"/>
      </g>
     </g>
    </g>
    <g id="xtick_7">
     <g id="line2d_13">
      <path d="M 317.735635 307.584 
L 317.735635 41.472 
" clip-path="url(#p44777b5a7b)" style="fill: none; stroke: #b0b0b0; stroke-width: 0.8; stroke-linecap: square"/>
     </g>
     <g id="line2d_14">
      <g>
       <use xlink:href="#mb5a54426c1" x="317.735635" y="307.584" style="stroke: #000000; stroke-width: 0.8"/>
      </g>
     </g>
     <g id="text_7">
      <!-- 150 -->
      <g transform="translate(308.191885 322.182437) scale(0.1 -0.1)">
       <use xlink:href="#DejaVuSans-31"/>
       <use xlink:href="#DejaVuSans-35" transform="translate(63.623047 0)"/>
       <use xlink:href="#DejaVuSans-30" transform="translate(127.246094 0)"/>
      </g>
     </g>
    </g>
    <g id="xtick_8">
     <g id="line2d_15">
      <path d="M 358.93545 307.584 
L 358.93545 41.472 
" clip-path="url(#p44777b5a7b)" style="fill: none; stroke: #b0b0b0; stroke-width: 0.8; stroke-linecap: square"/>
     </g>
     <g id="line2d_16">
      <g>
       <use xlink:href="#mb5a54426c1" x="358.93545" y="307.584" style="stroke: #000000; stroke-width: 0.8"/>
      </g>
     </g>
     <g id="text_8">
      <!-- 175 -->
      <g transform="translate(349.3917 322.182437) scale(0.1 -0.1)">
       <use xlink:href="#DejaVuSans-31"/>
       <use xlink:href="#DejaVuSans-37" transform="translate(63.623047 0)"/>
       <use xlink:href="#DejaVuSans-35" transform="translate(127.246094 0)"/>
      </g>
     </g>
    </g>
    <g id="xtick_9">
     <g id="line2d_17">
      <path d="M 400.135265 307.584 
L 400.135265 41.472 
" clip-path="url(#p44777b5a7b)" style="fill: none; stroke: #b0b0b0; stroke-width: 0.8; stroke-linecap: square"/>
     </g>
     <g id="line2d_18">
      <g>
       <use xlink:href="#mb5a54426c1" x="400.135265" y="307.584" style="stroke: #000000; stroke-width: 0.8"/>
      </g>
     </g>
     <g id="text_9">
      <!-- 200 -->
      <g transform="translate(390.591515 322.182437) scale(0.1 -0.1)">
       <use xlink:href="#DejaVuSans-32"/>
       <use xlink:href="#DejaVuSans-30" transform="translate(63.623047 0)"/>
       <use xlink:href="#DejaVuSans-30" transform="translate(127.246094 0)"/>
      </g>
     </g>
    </g>
    <g id="text_10">
     <!-- Nombre d'utilisateurs ($n$) -->
     <g transform="translate(173.51 335.860562) scale(0.1 -0.1)">
      <defs>
       <path id="DejaVuSans-4e" d="M 628 4666 
L 1478 4666 
L 3547 763 
L 3547 4666 
L 4159 4666 
L 4159 0 
L 3309 0 
L 1241 3903 
L 1241 0 
L 628 0 
L 628 4666 
z
" transform="scale(0.015625)"/>
       <path id="DejaVuSans-6f" d="M 1959 3097 
Q 1497 3097 1228 2736 
Q 959 2375 959 1747 
Q 959 1119 1226 758 
Q 1494 397 1959 397 
Q 2419 397 2687 759 
Q 2956 1122 2956 1747 
Q 2956 2369 2687 2733 
Q 2419 3097 1959 3097 
z
M 1959 3584 
Q 2709 3584 3137 3096 
Q 3566 2609 3566 1747 
Q 3566 888 3137 398 
Q 2709 -91 1959 -91 
Q 1206 -91 779 398 
Q 353 888 353 1747 
Q 353 2609 779 3096 
Q 1206 3584 1959 3584 
z
" transform="scale(0.015625)"/>
       <path id="DejaVuSans-6d" d="M 3328 2828 
Q 3544 3216 3844 3400 
Q 4144 3584 4550 3584 
Q 5097 3584 5394 3201 
Q 5691 2819 5691 2113 
L 5691 0 
L 5113 0 
L 5113 2094 
Q 5113 2597 4934 2840 
Q 4756 3084 4391 3084 
Q 3944 3084 3684 2787 
Q 3425 2491 3425 1978 
L 3425 0 
L 2847 0 
L 2847 2094 
Q 2847 2600 2669 2842 
Q 2491 3084 2119 3084 
Q 1678 3084 1418 2786 
Q 1159 2488 1159 1978 
L 1159 0 
L 581 0 
L 581 3500 
L 1159 3500 
L 1159 2956 
Q 1356 3278 1631 3431 
Q 1906 3584 2284 3584 
Q 2666 3584 2933 3390 
Q 3200 3197 3328 2828 
z
" transform="scale(0.015625)"/>
       <path id="DejaVuSans-62" d="M 3116 1747 
Q 3116 2381 2855 2742 
Q 2594 3103 2138 3103 
Q 1681 3103 1420 2742 
Q 1159 2381 1159 1747 
Q 1159 1113 1420 752 
Q 1681 391 2138 391 
Q 2594 391 2855 752 
Q 3116 1113 3116 1747 
z
M 1159 2969 
Q 1341 3281 1617 3432 
Q 1894 3584 2278 3584 
Q 2916 3584 3314 3078 
Q 3713 2572 3713 1747 
Q 3713 922 3314 415 
Q 2916 -91 2278 -91 
Q 1894 -91 1617 61 
Q 1341 213 1159 525 
L 1159 0 
L 581 0 
L 581 4863 
L 1159 4863 
L 1159 2969 
z
" transform="scale(0.015625)"/>
       <path id="DejaVuSans-72" d="M 2631 2963 
Q 2534 3019 2420 3045 
Q 2306 3072 2169 3072 
Q 1681 3072 1420 2755 
Q 1159 2438 1159 1844 
L 1159 0 
L 581 0 
L 581 3500 
L 1159 3500 
L 1159 2956 
Q 1341 3275 1631 3429 
Q 1922 3584 2338 3584 
Q 2397 3584 2469 3576 
Q 2541 3569 2628 3553 
L 2631 2963 
z
" transform="scale(0.015625)"/>
       <path id="DejaVuSans-65" d="M 3597 1894 
L 3597 1613 
L 953 1613 
Q 991 1019 1311 708 
Q 1631 397 2203 397 
Q 2534 397 2845 478 
Q 3156 559 3463 722 
L 3463 178 
Q 3153 47 2828 -22 
Q 2503 -91 2169 -91 
Q 1331 -91 842 396 
Q 353 884 353 1716 
Q 353 2575 817 3079 
Q 1281 3584 2069 3584 
Q 2775 3584 3186 3129 
Q 3597 2675 3597 1894 
z
M 3022 2063 
Q 3016 2534 2758 2815 
Q 2500 3097 2075 3097 
Q 1594 3097 1305 2825 
Q 1016 2553 972 2059 
L 3022 2063 
z
" transform="scale(0.015625)"/>
       <path id="DejaVuSans-20" transform="scale(0.015625)"/>
       <path id="DejaVuSans-64" d="M 2906 2969 
L 2906 4863 
L 3481 4863 
L 3481 0 
L 2906 0 
L 2906 525 
Q 2725 213 2448 61 
Q 2172 -91 1784 -91 
Q 1150 -91 751 415 
Q 353 922 353 1747 
Q 353 2572 751 3078 
Q 1150 3584 1784 3584 
Q 2172 3584 2448 3432 
Q 2725 3281 2906 2969 
z
M 947 1747 
Q 947 1113 1208 752 
Q 1469 391 1925 391 
Q 2381 391 2643 752 
Q 2906 1113 2906 1747 
Q 2906 2381 2643 2742 
Q 2381 3103 1925 3103 
Q 1469 3103 1208 2742 
Q 947 2381 947 1747 
z
" transform="scale(0.015625)"/>
       <path id="DejaVuSans-27" d="M 1147 4666 
L 1147 2931 
L 616 2931 
L 616 4666 
L 1147 4666 
z
" transform="scale(0.015625)"/>
       <path id="DejaVuSans-75" d="M 544 1381 
L 544 3500 
L 1119 3500 
L 1119 1403 
Q 1119 906 1312 657 
Q 1506 409 1894 409 
Q 2359 409 2629 706 
Q 2900 1003 2900 1516 
L 2900 3500 
L 3475 3500 
L 3475 0 
L 2900 0 
L 2900 538 
Q 2691 219 2414 64 
Q 2138 -91 1772 -91 
Q 1169 -91 856 284 
Q 544 659 544 1381 
z
M 1991 3584 
L 1991 3584 
z
" transform="scale(0.015625)"/>
       <path id="DejaVuSans-74" d="M 1172 4494 
L 1172 3500 
L 2356 3500 
L 2356 3053 
L 1172 3053 
L 1172 1153 
Q 1172 725 1289 603 
Q 1406 481 1766 481 
L 2356 481 
L 2356 0 
L 1766 0 
Q 1100 0 847 248 
Q 594 497 594 1153 
L 594 3053 
L 172 3053 
L 172 3500 
L 594 3500 
L 594 4494 
L 1172 4494 
z
" transform="scale(0.015625)"/>
       <path id="DejaVuSans-69" d="M 603 3500 
L 1178 3500 
L 1178 0 
L 603 0 
L 603 3500 
z
M 603 4863 
L 1178 4863 
L 1178 4134 
L 603 4134 
L 603 4863 
z
" transform="scale(0.015625)"/>
       <path id="DejaVuSans-6c" d="M 603 4863 
L 1178 4863 
L 1178 0 
L 603 0 
L 603 4863 
z
" transform="scale(0.015625)"/>
       <path id="DejaVuSans-73" d="M 2834 3397 
L 2834 2853 
Q 2591 2978 2328 3040 
Q 2066 3103 1784 3103 
Q 1356 3103 1142 2972 
Q 928 2841 928 2578 
Q 928 2378 1081 2264 
Q 1234 2150 1697 2047 
L 1894 2003 
Q 2506 1872 2764 1633 
Q 3022 1394 3022 966 
Q 3022 478 2636 193 
Q 2250 -91 1575 -91 
Q 1294 -91 989 -36 
Q 684 19 347 128 
L 347 722 
Q 666 556 975 473 
Q 1284 391 1588 391 
Q 1994 391 2212 530 
Q 2431 669 2431 922 
Q 2431 1156 2273 1281 
Q 2116 1406 1581 1522 
L 1381 1569 
Q 847 1681 609 1914 
Q 372 2147 372 2553 
Q 372 3047 722 3315 
Q 1072 3584 1716 3584 
Q 2034 3584 2315 3537 
Q 2597 3491 2834 3397 
z
" transform="scale(0.015625)"/>
       <path id="DejaVuSans-61" d="M 2194 1759 
Q 1497 1759 1228 1600 
Q 959 1441 959 1056 
Q 959 750 1161 570 
Q 1363 391 1709 391 
Q 2188 391 2477 730 
Q 2766 1069 2766 1631 
L 2766 1759 
L 2194 1759 
z
M 3341 1997 
L 3341 0 
L 2766 0 
L 2766 531 
Q 2569 213 2275 61 
Q 1981 -91 1556 -91 
Q 1019 -91 701 211 
Q 384 513 384 1019 
Q 384 1609 779 1909 
Q 1175 2209 1959 2209 
L 2766 2209 
L 2766 2266 
Q 2766 2663 2505 2880 
Q 2244 3097 1772 3097 
Q 1472 3097 1187 3025 
Q 903 2953 641 2809 
L 641 3341 
Q 956 3463 1253 3523 
Q 1550 3584 1831 3584 
Q 2591 3584 2966 3190 
Q 3341 2797 3341 1997 
z
" transform="scale(0.015625)"/>
       <path id="DejaVuSans-28" d="M 1984 4856 
Q 1566 4138 1362 3434 
Q 1159 2731 1159 2009 
Q 1159 1288 1364 580 
Q 1569 -128 1984 -844 
L 1484 -844 
Q 1016 -109 783 600 
Q 550 1309 550 2009 
Q 550 2706 781 3412 
Q 1013 4119 1484 4856 
L 1984 4856 
z
" transform="scale(0.015625)"/>
       <path id="DejaVuSans-Oblique-6e" d="M 3566 2113 
L 3156 0 
L 2578 0 
L 2988 2091 
Q 3016 2238 3031 2350 
Q 3047 2463 3047 2528 
Q 3047 2791 2881 2937 
Q 2716 3084 2419 3084 
Q 1956 3084 1622 2776 
Q 1288 2469 1184 1941 
L 800 0 
L 225 0 
L 903 3500 
L 1478 3500 
L 1363 2950 
Q 1603 3253 1940 3418 
Q 2278 3584 2650 3584 
Q 3113 3584 3367 3334 
Q 3622 3084 3622 2631 
Q 3622 2519 3608 2391 
Q 3594 2263 3566 2113 
z
" transform="scale(0.015625)"/>
       <path id="DejaVuSans-29" d="M 513 4856 
L 1013 4856 
Q 1481 4119 1714 3412 
Q 1947 2706 1947 2009 
Q 1947 1309 1714 600 
Q 1481 -109 1013 -844 
L 513 -844 
Q 928 -128 1133 580 
Q 1338 1288 1338 2009 
Q 1338 2731 1133 3434 
Q 928 4138 513 4856 
z
" transform="scale(0.015625)"/>
      </defs>
      <use xlink:href="#DejaVuSans-4e" transform="translate(0 0.015625)"/>
      <use xlink:href="#DejaVuSans-6f" transform="translate(74.804688 0.015625)"/>
      <use xlink:href="#DejaVuSans-6d" transform="translate(135.986328 0.015625)"/>
      <use xlink:href="#DejaVuSans-62" transform="translate(233.398438 0.015625)"/>
      <use xlink:href="#DejaVuSans-72" transform="translate(296.875 0.015625)"/>
      <use xlink:href="#DejaVuSans-65" transform="translate(337.988281 0.015625)"/>
      <use xlink:href="#DejaVuSans-20" transform="translate(399.511719 0.015625)"/>
      <use xlink:href="#DejaVuSans-64" transform="translate(431.298828 0.015625)"/>
      <use xlink:href="#DejaVuSans-27" transform="translate(494.775391 0.015625)"/>
      <use xlink:href="#DejaVuSans-75" transform="translate(522.265625 0.015625)"/>
      <use xlink:href="#DejaVuSans-74" transform="translate(585.644531 0.015625)"/>
      <use xlink:href="#DejaVuSans-69" transform="translate(624.853516 0.015625)"/>
      <use xlink:href="#DejaVuSans-6c" transform="translate(652.636719 0.015625)"/>
      <use xlink:href="#DejaVuSans-69" transform="translate(680.419922 0.015625)"/>
      <use xlink:href="#DejaVuSans-73" transform="translate(708.203125 0.015625)"/>
      <use xlink:href="#DejaVuSans-61" transform="translate(760.302734 0.015625)"/>
      <use xlink:href="#DejaVuSans-74" transform="translate(821.582031 0.015625)"/>
      <use xlink:href="#DejaVuSans-65" transform="translate(860.791016 0.015625)"/>
      <use xlink:href="#DejaVuSans-75" transform="translate(922.314453 0.015625)"/>
      <use xlink:href="#DejaVuSans-72" transform="translate(985.693359 0.015625)"/>
      <use xlink:href="#DejaVuSans-73" transform="translate(1026.806641 0.015625)"/>
      <use xlink:href="#DejaVuSans-20" transform="translate(1078.90625 0.015625)"/>
      <use xlink:href="#DejaVuSans-28" transform="translate(1110.693359 0.015625)"/>
      <use xlink:href="#DejaVuSans-Oblique-6e" transform="translate(1149.707031 0.015625)"/>
      <use xlink:href="#DejaVuSans-29" transform="translate(1213.085938 0.015625)"/>
     </g>
    </g>
   </g>
   <g id="matplotlib.axis_2">
    <g id="ytick_1">
     <g id="line2d_19">
      <path d="M 57.6 295.511912 
L 414.72 295.511912 
" clip-path="url(#p44777b5a7b)" style="fill: none; stroke: #b0b0b0; stroke-width: 0.8; stroke-linecap: square"/>
     </g>
     <g id="line2d_20">
      <defs>
       <path id="m9d85afbf6b" d="M 0 0 
L -3.5 0 
" style="stroke: #000000; stroke-width: 0.8"/>
      </defs>
      <g>
       <use xlink:href="#m9d85afbf6b" x="57.6" y="295.511912" style="stroke: #000000; stroke-width: 0.8"/>
      </g>
     </g>
     <g id="text_11">
      <!-- 0 -->
      <g transform="translate(44.2375 299.311131) scale(0.1 -0.1)">
       <use xlink:href="#DejaVuSans-30"/>
      </g>
     </g>
    </g>
    <g id="ytick_2">
     <g id="line2d_21">
      <path d="M 57.6 254.283513 
L 414.72 254.283513 
" clip-path="url(#p44777b5a7b)" style="fill: none; stroke: #b0b0b0; stroke-width: 0.8; stroke-linecap: square"/>
     </g>
     <g id="line2d_22">
      <g>
       <use xlink:href="#m9d85afbf6b" x="57.6" y="254.283513" style="stroke: #000000; stroke-width: 0.8"/>
      </g>
     </g>
     <g id="text_12">
      <!-- 50000 -->
      <g transform="translate(18.7875 258.082732) scale(0.1 -0.1)">
       <use xlink:href="#DejaVuSans-35"/>
       <use xlink:href="#DejaVuSans-30" transform="translate(63.623047 0)"/>
       <use xlink:href="#DejaVuSans-30" transform="translate(127.246094 0)"/>
       <use xlink:href="#DejaVuSans-30" transform="translate(190.869141 0)"/>
       <use xlink:href="#DejaVuSans-30" transform="translate(254.492188 0)"/>
      </g>
     </g>
    </g>
    <g id="ytick_3">
     <g id="line2d_23">
      <path d="M 57.6 213.055114 
L 414.72 213.055114 
" clip-path="url(#p44777b5a7b)" style="fill: none; stroke: #b0b0b0; stroke-width: 0.8; stroke-linecap: square"/>
     </g>
     <g id="line2d_24">
      <g>
       <use xlink:href="#m9d85afbf6b" x="57.6" y="213.055114" style="stroke: #000000; stroke-width: 0.8"/>
      </g>
     </g>
     <g id="text_13">
      <!-- 100000 -->
      <g transform="translate(12.425 216.854333) scale(0.1 -0.1)">
       <use xlink:href="#DejaVuSans-31"/>
       <use xlink:href="#DejaVuSans-30" transform="translate(63.623047 0)"/>
       <use xlink:href="#DejaVuSans-30" transform="translate(127.246094 0)"/>
       <use xlink:href="#DejaVuSans-30" transform="translate(190.869141 0)"/>
       <use xlink:href="#DejaVuSans-30" transform="translate(254.492188 0)"/>
       <use xlink:href="#DejaVuSans-30" transform="translate(318.115234 0)"/>
      </g>
     </g>
    </g>
    <g id="ytick_4">
     <g id="line2d_25">
      <path d="M 57.6 171.826715 
L 414.72 171.826715 
" clip-path="url(#p44777b5a7b)" style="fill: none; stroke: #b0b0b0; stroke-width: 0.8; stroke-linecap: square"/>
     </g>
     <g id="line2d_26">
      <g>
       <use xlink:href="#m9d85afbf6b" x="57.6" y="171.826715" style="stroke: #000000; stroke-width: 0.8"/>
      </g>
     </g>
     <g id="text_14">
      <!-- 150000 -->
      <g transform="translate(12.425 175.625934) scale(0.1 -0.1)">
       <use xlink:href="#DejaVuSans-31"/>
       <use xlink:href="#DejaVuSans-35" transform="translate(63.623047 0)"/>
       <use xlink:href="#DejaVuSans-30" transform="translate(127.246094 0)"/>
       <use xlink:href="#DejaVuSans-30" transform="translate(190.869141 0)"/>
       <use xlink:href="#DejaVuSans-30" transform="translate(254.492188 0)"/>
       <use xlink:href="#DejaVuSans-30" transform="translate(318.115234 0)"/>
      </g>
     </g>
    </g>
    <g id="ytick_5">
     <g id="line2d_27">
      <path d="M 57.6 130.598316 
L 414.72 130.598316 
" clip-path="url(#p44777b5a7b)" style="fill: none; stroke: #b0b0b0; stroke-width: 0.8; stroke-linecap: square"/>
     </g>
     <g id="line2d_28">
      <g>
       <use xlink:href="#m9d85afbf6b" x="57.6" y="130.598316" style="stroke: #000000; stroke-width: 0.8"/>
      </g>
     </g>
     <g id="text_15">
      <!-- 200000 -->
      <g transform="translate(12.425 134.397535) scale(0.1 -0.1)">
       <use xlink:href="#DejaVuSans-32"/>
       <use xlink:href="#DejaVuSans-30" transform="translate(63.623047 0)"/>
       <use xlink:href="#DejaVuSans-30" transform="translate(127.246094 0)"/>
       <use xlink:href="#DejaVuSans-30" transform="translate(190.869141 0)"/>
       <use xlink:href="#DejaVuSans-30" transform="translate(254.492188 0)"/>
       <use xlink:href="#DejaVuSans-30" transform="translate(318.115234 0)"/>
      </g>
     </g>
    </g>
    <g id="ytick_6">
     <g id="line2d_29">
      <path d="M 57.6 89.369917 
L 414.72 89.369917 
" clip-path="url(#p44777b5a7b)" style="fill: none; stroke: #b0b0b0; stroke-width: 0.8; stroke-linecap: square"/>
     </g>
     <g id="line2d_30">
      <g>
       <use xlink:href="#m9d85afbf6b" x="57.6" y="89.369917" style="stroke: #000000; stroke-width: 0.8"/>
      </g>
     </g>
     <g id="text_16">
      <!-- 250000 -->
      <g transform="translate(12.425 93.169136) scale(0.1 -0.1)">
       <use xlink:href="#DejaVuSans-32"/>
       <use xlink:href="#DejaVuSans-35" transform="translate(63.623047 0)"/>
       <use xlink:href="#DejaVuSans-30" transform="translate(127.246094 0)"/>
       <use xlink:href="#DejaVuSans-30" transform="translate(190.869141 0)"/>
       <use xlink:href="#DejaVuSans-30" transform="translate(254.492188 0)"/>
       <use xlink:href="#DejaVuSans-30" transform="translate(318.115234 0)"/>
      </g>
     </g>
    </g>
    <g id="ytick_7">
     <g id="line2d_31">
      <path d="M 57.6 48.141518 
L 414.72 48.141518 
" clip-path="url(#p44777b5a7b)" style="fill: none; stroke: #b0b0b0; stroke-width: 0.8; stroke-linecap: square"/>
     </g>
     <g id="line2d_32">
      <g>
       <use xlink:href="#m9d85afbf6b" x="57.6" y="48.141518" style="stroke: #000000; stroke-width: 0.8"/>
      </g>
     </g>
     <g id="text_17">
      <!-- 300000 -->
      <g transform="translate(12.425 51.940737) scale(0.1 -0.1)">
       <defs>
        <path id="DejaVuSans-33" d="M 2597 2516 
Q 3050 2419 3304 2112 
Q 3559 1806 3559 1356 
Q 3559 666 3084 287 
Q 2609 -91 1734 -91 
Q 1441 -91 1130 -33 
Q 819 25 488 141 
L 488 750 
Q 750 597 1062 519 
Q 1375 441 1716 441 
Q 2309 441 2620 675 
Q 2931 909 2931 1356 
Q 2931 1769 2642 2001 
Q 2353 2234 1838 2234 
L 1294 2234 
L 1294 2753 
L 1863 2753 
Q 2328 2753 2575 2939 
Q 2822 3125 2822 3475 
Q 2822 3834 2567 4026 
Q 2313 4219 1838 4219 
Q 1578 4219 1281 4162 
Q 984 4106 628 3988 
L 628 4550 
Q 988 4650 1302 4700 
Q 1616 4750 1894 4750 
Q 2613 4750 3031 4423 
Q 3450 4097 3450 3541 
Q 3450 3153 3228 2886 
Q 3006 2619 2597 2516 
z
" transform="scale(0.015625)"/>
       </defs>
       <use xlink:href="#DejaVuSans-33"/>
       <use xlink:href="#DejaVuSans-30" transform="translate(63.623047 0)"/>
       <use xlink:href="#DejaVuSans-30" transform="translate(127.246094 0)"/>
       <use xlink:href="#DejaVuSans-30" transform="translate(190.869141 0)"/>
       <use xlink:href="#DejaVuSans-30" transform="translate(254.492188 0)"/>
       <use xlink:href="#DejaVuSans-30" transform="translate(318.115234 0)"/>
      </g>
     </g>
    </g>
    <g id="text_18">
     <!-- Nombre de chiffrements totaux -->
     <g transform="translate(6.345312 253.10925) rotate(-90) scale(0.1 -0.1)">
      <defs>
       <path id="DejaVuSans-63" d="M 3122 3366 
L 3122 2828 
Q 2878 2963 2633 3030 
Q 2388 3097 2138 3097 
Q 1578 3097 1268 2742 
Q 959 2388 959 1747 
Q 959 1106 1268 751 
Q 1578 397 2138 397 
Q 2388 397 2633 464 
Q 2878 531 3122 666 
L 3122 134 
Q 2881 22 2623 -34 
Q 2366 -91 2075 -91 
Q 1284 -91 818 406 
Q 353 903 353 1747 
Q 353 2603 823 3093 
Q 1294 3584 2113 3584 
Q 2378 3584 2631 3529 
Q 2884 3475 3122 3366 
z
" transform="scale(0.015625)"/>
       <path id="DejaVuSans-68" d="M 3513 2113 
L 3513 0 
L 2938 0 
L 2938 2094 
Q 2938 2591 2744 2837 
Q 2550 3084 2163 3084 
Q 1697 3084 1428 2787 
Q 1159 2491 1159 1978 
L 1159 0 
L 581 0 
L 581 4863 
L 1159 4863 
L 1159 2956 
Q 1366 3272 1645 3428 
Q 1925 3584 2291 3584 
Q 2894 3584 3203 3211 
Q 3513 2838 3513 2113 
z
" transform="scale(0.015625)"/>
       <path id="DejaVuSans-66" d="M 2375 4863 
L 2375 4384 
L 1825 4384 
Q 1516 4384 1395 4259 
Q 1275 4134 1275 3809 
L 1275 3500 
L 2222 3500 
L 2222 3053 
L 1275 3053 
L 1275 0 
L 697 0 
L 697 3053 
L 147 3053 
L 147 3500 
L 697 3500 
L 697 3744 
Q 697 4328 969 4595 
Q 1241 4863 1831 4863 
L 2375 4863 
z
" transform="scale(0.015625)"/>
       <path id="DejaVuSans-6e" d="M 3513 2113 
L 3513 0 
L 2938 0 
L 2938 2094 
Q 2938 2591 2744 2837 
Q 2550 3084 2163 3084 
Q 1697 3084 1428 2787 
Q 1159 2491 1159 1978 
L 1159 0 
L 581 0 
L 581 3500 
L 1159 3500 
L 1159 2956 
Q 1366 3272 1645 3428 
Q 1925 3584 2291 3584 
Q 2894 3584 3203 3211 
Q 3513 2838 3513 2113 
z
" transform="scale(0.015625)"/>
       <path id="DejaVuSans-78" d="M 3513 3500 
L 2247 1797 
L 3578 0 
L 2900 0 
L 1881 1375 
L 863 0 
L 184 0 
L 1544 1831 
L 300 3500 
L 978 3500 
L 1906 2253 
L 2834 3500 
L 3513 3500 
z
" transform="scale(0.015625)"/>
      </defs>
      <use xlink:href="#DejaVuSans-4e"/>
      <use xlink:href="#DejaVuSans-6f" transform="translate(74.804688 0)"/>
      <use xlink:href="#DejaVuSans-6d" transform="translate(135.986328 0)"/>
      <use xlink:href="#DejaVuSans-62" transform="translate(233.398438 0)"/>
      <use xlink:href="#DejaVuSans-72" transform="translate(296.875 0)"/>
      <use xlink:href="#DejaVuSans-65" transform="translate(335.738281 0)"/>
      <use xlink:href="#DejaVuSans-20" transform="translate(397.261719 0)"/>
      <use xlink:href="#DejaVuSans-64" transform="translate(429.048828 0)"/>
      <use xlink:href="#DejaVuSans-65" transform="translate(492.525391 0)"/>
      <use xlink:href="#DejaVuSans-20" transform="translate(554.048828 0)"/>
      <use xlink:href="#DejaVuSans-63" transform="translate(585.835938 0)"/>
      <use xlink:href="#DejaVuSans-68" transform="translate(640.816406 0)"/>
      <use xlink:href="#DejaVuSans-69" transform="translate(704.195312 0)"/>
      <use xlink:href="#DejaVuSans-66" transform="translate(731.978516 0)"/>
      <use xlink:href="#DejaVuSans-66" transform="translate(767.183594 0)"/>
      <use xlink:href="#DejaVuSans-72" transform="translate(802.388672 0)"/>
      <use xlink:href="#DejaVuSans-65" transform="translate(841.251953 0)"/>
      <use xlink:href="#DejaVuSans-6d" transform="translate(902.775391 0)"/>
      <use xlink:href="#DejaVuSans-65" transform="translate(1000.1875 0)"/>
      <use xlink:href="#DejaVuSans-6e" transform="translate(1061.710938 0)"/>
      <use xlink:href="#DejaVuSans-74" transform="translate(1125.089844 0)"/>
      <use xlink:href="#DejaVuSans-73" transform="translate(1164.298828 0)"/>
      <use xlink:href="#DejaVuSans-20" transform="translate(1216.398438 0)"/>
      <use xlink:href="#DejaVuSans-74" transform="translate(1248.185547 0)"/>
      <use xlink:href="#DejaVuSans-6f" transform="translate(1287.394531 0)"/>
      <use xlink:href="#DejaVuSans-74" transform="translate(1348.576172 0)"/>
      <use xlink:href="#DejaVuSans-61" transform="translate(1387.785156 0)"/>
      <use xlink:href="#DejaVuSans-75" transform="translate(1449.064453 0)"/>
      <use xlink:href="#DejaVuSans-78" transform="translate(1512.443359 0)"/>
     </g>
    </g>
   </g>
   <g id="line2d_33">
    <path d="M 73.832727 295.486351 
L 80.424698 295.304946 
L 83.720683 295.109523 
L 88.664661 294.787942 
L 90.312653 294.585098 
L 91.960646 294.566133 
L 93.608639 294.302271 
L 95.256631 294.286604 
L 96.904624 293.859478 
L 98.552617 293.677249 
L 100.200609 293.634371 
L 101.848602 293.305369 
L 103.496594 293.135508 
L 105.144587 292.765277 
L 106.79258 292.613556 
L 108.440572 292.299396 
L 110.088565 292.258167 
L 111.736557 291.759304 
L 113.38455 291.572951 
L 116.680535 290.826717 
L 118.328528 290.647786 
L 119.976521 289.960096 
L 121.624513 289.893306 
L 123.272506 289.27488 
L 126.568491 288.660577 
L 129.864476 287.205215 
L 131.512469 287.441866 
L 133.160461 286.449086 
L 134.808454 286.339418 
L 136.456447 286.055767 
L 138.104439 284.921986 
L 139.752432 284.639984 
L 141.400425 284.540211 
L 143.048417 283.776661 
L 144.69641 283.594431 
L 146.344402 281.999717 
L 147.992395 282.44251 
L 149.640388 280.776883 
L 151.28838 280.226896 
L 152.936373 281.49838 
L 154.584365 280.107333 
L 156.232358 279.887998 
L 157.880351 278.899341 
L 159.528343 277.410172 
L 161.176336 277.678156 
L 166.120314 275.554894 
L 167.768306 274.231462 
L 169.416299 274.152303 
L 171.064292 273.536351 
L 172.712284 271.949882 
L 174.360277 273.176015 
L 176.008269 271.16242 
L 177.656262 271.455142 
L 179.304255 270.124289 
L 180.952247 267.610181 
L 182.60024 267.559058 
L 184.248233 266.847456 
L 185.896225 266.382399 
L 187.544218 265.446515 
L 189.19221 266.16224 
L 190.840203 263.329849 
L 192.488196 263.334796 
L 194.136188 260.810794 
L 195.784181 260.14949 
L 197.432174 259.802347 
L 199.080166 259.594556 
L 200.728159 256.501601 
L 202.376151 258.586109 
L 204.024144 255.963158 
L 205.672137 255.232591 
L 207.320129 254.036143 
L 208.968122 253.895966 
L 210.616114 252.214672 
L 212.264107 251.03554 
L 213.9121 248.923822 
L 215.560092 247.843637 
L 217.208085 247.239229 
L 218.856078 247.628425 
L 220.50407 247.812304 
L 222.152063 243.336549 
L 223.800055 247.138632 
L 225.448048 243.879939 
L 227.096041 239.467676 
L 228.744033 237.968611 
L 230.392026 238.678564 
L 232.040018 238.746179 
L 233.688011 238.542511 
L 235.336004 237.132499 
L 236.983996 234.902043 
L 238.631989 232.974203 
L 240.279982 229.043488 
L 241.927974 230.773431 
L 243.575967 233.864736 
L 245.223959 232.73178 
L 246.871952 229.351876 
L 248.519945 227.752214 
L 250.167937 223.033211 
L 251.81593 223.869323 
L 253.463922 221.440971 
L 255.111915 218.548386 
L 256.759908 218.847704 
L 258.4079 218.981284 
L 260.055893 214.394213 
L 261.703886 216.686512 
L 263.351878 213.631487 
L 264.999871 210.869185 
L 266.647863 211.564295 
L 271.591841 205.796442 
L 273.239834 203.872725 
L 274.887826 207.974126 
L 276.535819 205.319842 
L 278.183812 199.488497 
L 279.831804 199.050652 
L 281.479797 196.580246 
L 283.12779 194.936882 
L 284.775782 192.443389 
L 286.423775 191.189221 
L 288.071767 195.75238 
L 289.71976 194.328351 
L 291.367753 186.445481 
L 293.015745 187.224698 
L 294.663738 183.406948 
L 296.311731 182.462818 
L 297.959723 181.079193 
L 299.607716 171.272606 
L 301.255708 178.743192 
L 302.903701 173.113866 
L 304.551694 174.085207 
L 306.199686 174.109119 
L 307.847679 175.529026 
L 309.495671 174.962547 
L 311.143664 168.73541 
L 312.791657 167.743455 
L 314.439649 165.06196 
L 316.087642 164.09804 
L 317.735635 163.423543 
L 319.383627 154.075416 
L 321.03162 157.894815 
L 322.679612 154.023468 
L 324.327605 155.822675 
L 325.975598 151.285078 
L 327.62359 152.99853 
L 329.271583 147.388994 
L 330.919575 147.454959 
L 332.567568 143.357681 
L 334.215561 142.620517 
L 335.863553 141.053014 
L 337.511546 141.084347 
L 339.159539 135.47646 
L 340.807531 127.814575 
L 342.455524 131.586973 
L 344.103516 135.897815 
L 345.751509 131.376708 
L 347.399502 126.223159 
L 349.047494 120.435516 
L 350.695487 116.673837 
L 352.343479 116.308553 
L 353.991472 122.792956 
L 355.639465 123.410557 
L 357.287457 112.814859 
L 360.583443 106.075664 
L 362.231435 103.263063 
L 363.879428 106.605862 
L 365.52742 101.00787 
L 367.175413 101.106818 
L 368.823406 97.499333 
L 370.471398 97.703826 
L 372.119391 93.225597 
L 373.767383 95.884004 
L 375.415376 93.188491 
L 377.063369 89.331162 
L 378.711361 87.851063 
L 380.359354 87.456919 
L 382.007347 84.911478 
L 383.655339 86.212646 
L 385.303332 75.271454 
L 386.951324 79.776893 
L 388.599317 66.579683 
L 390.24731 72.714469 
L 391.895302 75.675492 
L 393.543295 68.439084 
L 395.191287 70.00164 
L 396.83928 60.060648 
L 398.487273 62.87325 
L 398.487273 62.87325 
" clip-path="url(#p44777b5a7b)" style="fill: none; stroke: #ff0000; stroke-width: 1.5; stroke-linecap: square"/>
   </g>
   <g id="line2d_34">
    <path d="M 73.832727 295.463263 
L 85.368676 294.70466 
L 95.256631 293.908128 
L 96.904624 293.556037 
L 103.496594 293.010998 
L 108.440572 292.470906 
L 110.088565 292.353817 
L 113.38455 291.893708 
L 118.328528 291.393195 
L 119.976521 291.076561 
L 123.272506 290.665926 
L 129.864476 289.777042 
L 131.512469 289.776218 
L 133.160461 289.403513 
L 134.808454 289.281477 
L 139.752432 288.590489 
L 141.400425 288.432172 
L 143.048417 288.046274 
L 144.69641 287.884659 
L 146.344402 287.589463 
L 147.992395 287.516901 
L 149.640388 287.127705 
L 151.28838 286.912493 
L 152.936373 286.98588 
L 154.584365 286.571122 
L 156.232358 286.496911 
L 159.528343 285.894152 
L 161.176336 285.805098 
L 164.472321 285.34334 
L 166.120314 285.1339 
L 167.768306 284.723265 
L 171.064292 284.456105 
L 172.712284 283.966312 
L 174.360277 284.130401 
L 176.008269 283.628239 
L 177.656262 283.513624 
L 179.304255 283.255534 
L 180.952247 282.751723 
L 185.896225 282.239666 
L 187.544218 281.920558 
L 189.19221 281.892523 
L 190.840203 281.363975 
L 192.488196 281.222149 
L 194.136188 280.773584 
L 195.784181 280.478389 
L 199.080166 280.172474 
L 200.728159 279.86491 
L 202.376151 280.005912 
L 204.024144 279.413872 
L 205.672137 279.240712 
L 207.320129 278.896043 
L 208.968122 278.815235 
L 217.208085 277.130643 
L 220.50407 277.112503 
L 222.152063 276.475936 
L 223.800055 276.764535 
L 227.096041 275.755264 
L 230.392026 275.302576 
L 233.688011 275.119522 
L 240.279982 273.747441 
L 241.927974 273.655914 
L 243.575967 273.755686 
L 245.223959 273.432456 
L 246.871952 272.992961 
L 248.519945 272.743941 
L 250.167937 272.083462 
L 253.463922 271.83939 
L 255.111915 271.388352 
L 256.759908 271.094805 
L 258.4079 271.236631 
L 260.055893 270.529152 
L 261.703886 270.547292 
L 263.351878 270.233956 
L 264.999871 269.77797 
L 266.647863 269.766426 
L 268.295856 269.284054 
L 269.943849 269.070491 
L 273.239834 268.406714 
L 274.887826 268.6244 
L 276.535819 268.251695 
L 278.183812 267.566479 
L 279.831804 267.494742 
L 284.775782 266.307364 
L 288.071767 266.262837 
L 289.71976 265.957747 
L 291.367753 265.428374 
L 293.015745 265.257689 
L 294.663738 264.841282 
L 296.311731 264.662351 
L 297.959723 264.371278 
L 299.607716 263.58464 
L 301.255708 263.835309 
L 302.903701 263.314182 
L 304.551694 263.273778 
L 306.199686 263.009916 
L 307.847679 262.976109 
L 309.495671 262.82109 
L 311.143664 262.188647 
L 314.439649 261.620519 
L 317.735635 261.211534 
L 319.383627 260.37872 
L 321.03162 260.601353 
L 322.679612 259.984576 
L 324.327605 260.0357 
L 325.975598 259.601152 
L 327.62359 259.477467 
L 329.271583 258.76669 
L 330.919575 258.808742 
L 332.567568 258.432739 
L 337.511546 257.807717 
L 340.807531 256.702796 
L 342.455524 256.587356 
L 344.103516 256.862762 
L 345.751509 256.537882 
L 347.399502 255.859263 
L 349.047494 255.363697 
L 350.695487 255.160854 
L 352.343479 254.818658 
L 353.991472 254.972028 
L 355.639465 254.826079 
L 357.287457 254.193636 
L 358.93545 253.422664 
L 360.583443 253.382261 
L 365.52742 252.636851 
L 368.823406 252.072022 
L 370.471398 251.898863 
L 372.119391 251.441228 
L 375.415376 251.1114 
L 377.063369 250.600993 
L 380.359354 250.479781 
L 382.007347 250.026269 
L 383.655339 249.924022 
L 385.303332 249.211596 
L 386.951324 249.1077 
L 388.599317 248.451344 
L 391.895302 248.208097 
L 393.543295 247.816427 
L 395.191287 247.786742 
L 396.83928 247.018245 
L 398.487273 246.812928 
L 398.487273 246.812928 
" clip-path="url(#p44777b5a7b)" style="fill: none; stroke: #0000ff; stroke-width: 1.5; stroke-linecap: square"/>
   </g>
   <g id="line2d_35">
    <path d="M 73.832727 295.488 
L 80.424698 295.285156 
L 85.368676 295.023768 
L 91.960646 294.336079 
L 95.256631 294.156323 
L 96.904624 293.907303 
L 100.200609 293.593143 
L 101.848602 293.310316 
L 103.496594 293.43565 
L 106.79258 292.959875 
L 108.440572 292.791663 
L 110.088565 292.422256 
L 111.736557 292.397519 
L 115.032543 292.035534 
L 116.680535 291.570478 
L 119.976521 291.67932 
L 121.624513 291.366809 
L 123.272506 290.890209 
L 124.920498 290.588417 
L 126.568491 290.481223 
L 128.216484 290.234677 
L 129.864476 290.116764 
L 131.512469 289.75313 
L 133.160461 289.51318 
L 136.456447 289.34167 
L 143.048417 288.324153 
L 144.69641 288.2351 
L 146.344402 287.835185 
L 149.640388 287.690061 
L 151.28838 287.189548 
L 152.936373 286.853124 
L 154.584365 287.07081 
L 156.232358 286.47877 
L 157.880351 286.623894 
L 161.176336 286.384769 
L 162.824329 285.711922 
L 164.472321 285.284796 
L 166.120314 285.293866 
L 167.768306 284.832933 
L 169.416299 284.716668 
L 171.064292 284.433842 
L 174.360277 284.196366 
L 177.656262 283.59773 
L 179.304255 283.28192 
L 180.952247 283.300885 
L 184.248233 282.537335 
L 185.896225 282.162981 
L 187.544218 282.287491 
L 189.19221 282.071454 
L 192.488196 281.079499 
L 194.136188 281.255957 
L 195.784181 280.83955 
L 197.432174 280.280493 
L 199.080166 280.365423 
L 200.728159 280.076 
L 202.376151 280.190615 
L 204.024144 279.726383 
L 205.672137 279.403977 
L 207.320129 279.19701 
L 208.968122 278.774832 
L 210.616114 278.604146 
L 212.264107 278.569514 
L 215.560092 277.787824 
L 217.208085 277.713613 
L 218.856078 277.340908 
L 220.50407 277.293907 
L 222.152063 276.833799 
L 223.800055 276.584779 
L 227.096041 275.712386 
L 228.744033 275.735474 
L 232.040018 275.168996 
L 235.336004 274.510991 
L 236.983996 274.94059 
L 238.631989 274.040987 
L 240.279982 273.804336 
L 241.927974 273.389578 
L 243.575967 273.363192 
L 245.223959 272.921223 
L 246.871952 272.749713 
L 248.519945 271.932566 
L 250.167937 271.804758 
L 251.81593 272.120568 
L 255.111915 271.112121 
L 258.4079 271.214368 
L 260.055893 270.37908 
L 261.703886 270.126763 
L 264.999871 269.769725 
L 266.647863 269.077088 
L 268.295856 269.197474 
L 269.943849 268.588119 
L 271.591841 269.006999 
L 273.239834 267.92764 
L 274.887826 267.559882 
L 276.535819 267.863323 
L 278.183812 267.345495 
L 283.12779 266.989281 
L 284.775782 266.082257 
L 286.423775 266.51433 
L 288.071767 265.580095 
L 289.71976 265.425901 
L 291.367753 265.544638 
L 293.015745 264.786036 
L 294.663738 264.466103 
L 296.311731 264.330874 
L 297.959723 264.353962 
L 299.607716 263.674518 
L 301.255708 263.29934 
L 306.199686 262.656177 
L 307.847679 262.166383 
L 309.495671 262.323876 
L 311.143664 261.558677 
L 316.087642 260.523844 
L 319.383627 260.921286 
L 321.03162 260.230298 
L 322.679612 259.846049 
L 324.327605 259.865839 
L 325.975598 258.90027 
L 327.62359 259.211956 
L 329.271583 259.263079 
L 330.919575 258.800497 
L 332.567568 257.679909 
L 334.215561 257.574364 
L 335.863553 257.300608 
L 337.511546 257.288239 
L 340.807531 256.646725 
L 342.455524 255.942544 
L 347.399502 255.456049 
L 349.047494 255.164152 
L 350.695487 254.736201 
L 352.343479 253.953686 
L 353.991472 254.062529 
L 357.287457 253.858036 
L 358.93545 253.658491 
L 360.583443 253.245382 
L 362.231435 252.350726 
L 365.52742 252.079443 
L 367.175413 251.916179 
L 368.823406 251.489877 
L 373.767383 250.743643 
L 377.063369 250.42536 
L 378.711361 249.629652 
L 380.359354 249.392176 
L 382.007347 248.908979 
L 383.655339 248.875997 
L 385.303332 248.072043 
L 388.599317 248.128938 
L 390.24731 247.644092 
L 391.895302 246.7214 
L 393.543295 247.214492 
L 395.191287 246.562259 
L 396.83928 246.832717 
L 398.487273 246.37838 
L 398.487273 246.37838 
" clip-path="url(#p44777b5a7b)" style="fill: none; stroke: #1f77b4; stroke-width: 1.5; stroke-linecap: square"/>
   </g>
   <g id="line2d_36">
    <path d="M 73.832727 295.488 
L 80.424698 295.285156 
L 85.368676 295.023768 
L 93.608639 294.3435 
L 105.144587 292.94091 
L 106.79258 292.598714 
L 108.440572 292.51131 
L 111.736557 291.873094 
L 119.976521 290.858051 
L 121.624513 290.447416 
L 123.272506 290.37238 
L 124.920498 290.162115 
L 126.568491 290.07636 
L 128.216484 289.684691 
L 129.864476 289.452162 
L 131.512469 288.841982 
L 138.104439 288.2821 
L 143.048417 287.5202 
L 144.69641 286.777264 
L 146.344402 286.912493 
L 147.992395 286.581017 
L 149.640388 286.450735 
L 151.28838 285.92631 
L 152.936373 285.930433 
L 154.584365 285.556903 
L 156.232358 285.617921 
L 157.880351 284.970635 
L 162.824329 284.402508 
L 166.120314 283.877258 
L 169.416299 283.05269 
L 171.064292 283.047743 
L 172.712284 282.35593 
L 174.360277 282.537335 
L 177.656262 281.769662 
L 180.952247 281.096815 
L 182.60024 280.974779 
L 185.896225 280.279668 
L 187.544218 280.274721 
L 192.488196 279.258853 
L 195.784181 278.647024 
L 197.432174 278.65362 
L 199.080166 278.09044 
L 200.728159 277.69877 
L 202.376151 277.441505 
L 205.672137 277.167749 
L 207.320129 276.282987 
L 208.968122 276.383584 
L 210.616114 276.20053 
L 213.9121 275.374313 
L 215.560092 275.29433 
L 217.208085 274.985942 
L 218.856078 274.863906 
L 220.50407 274.374937 
L 222.152063 274.074794 
L 223.800055 273.998934 
L 227.096041 273.011926 
L 228.744033 273.180138 
L 230.392026 272.703538 
L 233.688011 272.274762 
L 236.983996 271.100577 
L 241.927974 270.510187 
L 243.575967 269.639443 
L 245.223959 270.243027 
L 246.871952 269.307967 
L 248.519945 269.105123 
L 250.167937 269.264264 
L 251.81593 268.436398 
L 253.463922 268.483399 
L 255.111915 267.785814 
L 256.759908 267.596988 
L 258.4079 267.561532 
L 261.703886 266.337048 
L 263.351878 266.020414 
L 264.999871 266.554734 
L 266.647863 266.092976 
L 268.295856 265.386321 
L 269.943849 265.162863 
L 271.591841 264.800878 
L 273.239834 264.867668 
L 276.535819 264.588964 
L 278.183812 263.866642 
L 279.831804 263.699255 
L 281.479797 262.995899 
L 283.12779 262.976934 
L 284.775782 261.932206 
L 286.423775 261.69638 
L 288.071767 261.665046 
L 289.71976 261.411079 
L 291.367753 260.678038 
L 293.015745 260.943549 
L 294.663738 260.631862 
L 296.311731 259.939225 
L 297.959723 259.99612 
L 299.607716 259.530239 
L 301.255708 259.746276 
L 302.903701 259.349659 
L 304.551694 258.59353 
L 307.847679 258.483863 
L 311.143664 257.085395 
L 312.791657 257.300608 
L 314.439649 256.675585 
L 316.087642 255.787525 
L 317.735635 255.823806 
L 319.383627 256.192388 
L 321.03162 254.694973 
L 322.679612 255.17817 
L 324.327605 254.455024 
L 325.975598 254.266197 
L 327.62359 253.687351 
L 329.271583 253.922353 
L 330.919575 253.353401 
L 334.215561 252.860309 
L 337.511546 251.859284 
L 340.807531 251.832897 
L 342.455524 251.261472 
L 344.103516 251.125418 
L 347.399502 250.420412 
L 349.047494 250.586975 
L 350.695487 249.421036 
L 353.991472 248.55524 
L 357.287457 248.443923 
L 358.93545 247.26644 
L 360.583443 247.873322 
L 362.231435 247.358792 
L 363.879428 247.09493 
L 365.52742 246.484749 
L 367.175413 245.742638 
L 368.823406 245.82427 
L 370.471398 246.116168 
L 372.119391 245.139055 
L 373.767383 244.947755 
L 375.415376 245.361688 
L 377.063369 244.185029 
L 378.711361 243.830465 
L 380.359354 243.014143 
L 382.007347 243.35304 
L 383.655339 242.383348 
L 385.303332 242.9053 
L 386.951324 242.210189 
L 388.599317 241.803677 
L 390.24731 241.983433 
L 391.895302 241.585167 
L 393.543295 241.046724 
L 395.191287 240.120734 
L 396.83928 240.829862 
L 398.487273 239.929434 
L 398.487273 239.929434 
" clip-path="url(#p44777b5a7b)" style="fill: none; stroke: #ff7f0e; stroke-width: 1.5; stroke-linecap: square"/>
   </g>
   <g id="line2d_37">
    <path d="M 73.832727 295.488 
L 80.424698 295.285156 
L 85.368676 295.023768 
L 93.608639 294.3435 
L 106.79258 292.659732 
L 111.736557 291.788163 
L 115.032543 291.102947 
L 118.328528 290.374854 
L 121.624513 289.716024 
L 123.272506 289.570076 
L 139.752432 285.203988 
L 141.400425 284.757072 
L 151.28838 281.301308 
L 154.584365 280.27637 
L 157.880351 278.964482 
L 162.824329 276.838746 
L 164.472321 276.37369 
L 167.768306 275.012328 
L 171.064292 273.728476 
L 172.712284 273.091084 
L 174.360277 272.142831 
L 176.008269 271.733021 
L 179.304255 270.16057 
L 184.248233 267.776744 
L 192.488196 263.163286 
L 199.080166 259.584661 
L 200.728159 258.863989 
L 202.376151 257.926455 
L 204.024144 257.167852 
L 212.264107 252.687974 
L 213.9121 251.459368 
L 215.560092 250.566361 
L 217.208085 249.840741 
L 218.856078 248.70696 
L 220.50407 247.821374 
L 225.448048 244.384575 
L 227.096041 243.376953 
L 228.744033 242.201943 
L 230.392026 241.186076 
L 233.688011 238.688459 
L 235.336004 237.576117 
L 240.279982 234.788253 
L 241.927974 233.42854 
L 243.575967 231.880001 
L 245.223959 231.044714 
L 246.871952 229.708914 
L 248.519945 231.184891 
L 250.167937 231.009258 
L 251.81593 229.323841 
L 253.463922 236.058912 
L 255.111915 233.129222 
L 256.759908 230.490604 
L 258.4079 226.888891 
L 260.055893 225.496196 
L 261.703886 228.374763 
L 263.351878 227.543598 
L 264.999871 229.969477 
L 266.647863 228.542975 
L 268.295856 225.201825 
L 271.591841 227.922075 
L 273.239834 225.883743 
L 274.887826 227.046384 
L 276.535819 225.183685 
L 278.183812 224.593294 
L 279.831804 224.159571 
L 281.479797 223.19895 
L 283.12779 222.929316 
L 284.775782 224.172764 
L 286.423775 223.707708 
L 288.071767 223.810779 
L 289.71976 221.773272 
L 291.367753 220.503437 
L 293.015745 219.715975 
L 294.663738 220.608982 
L 296.311731 218.569 
L 299.607716 217.226604 
L 301.255708 218.348016 
L 302.903701 214.74218 
L 304.551694 214.805672 
L 306.199686 212.300635 
L 307.847679 215.368852 
L 309.495671 215.464502 
L 311.143664 215.321852 
L 312.791657 213.758471 
L 314.439649 214.526144 
L 316.087642 212.153037 
L 317.735635 213.365152 
L 319.383627 212.008738 
L 321.03162 210.504726 
L 322.679612 210.340637 
L 324.327605 208.29241 
L 325.975598 211.058835 
L 327.62359 211.426593 
L 329.271583 208.942994 
L 330.919575 208.493604 
L 332.567568 207.294682 
L 334.215561 208.881976 
L 335.863553 207.126471 
L 337.511546 203.693794 
L 339.159539 201.263792 
L 340.807531 204.311395 
L 344.103516 203.09021 
L 345.751509 201.667831 
L 347.399502 201.101352 
L 349.047494 201.702462 
L 350.695487 199.87522 
L 352.343479 197.072513 
L 353.991472 198.801632 
L 355.639465 199.161144 
L 357.287457 198.61528 
L 358.93545 196.670124 
L 360.583443 198.240926 
L 362.231435 197.624974 
L 363.879428 195.273306 
L 365.52742 195.490992 
L 367.175413 191.506679 
L 368.823406 195.505009 
L 370.471398 193.875663 
L 372.119391 196.229805 
L 373.767383 191.185922 
L 375.415376 193.324027 
L 377.063369 194.499037 
L 378.711361 190.144493 
L 380.359354 191.268379 
L 382.007347 189.211907 
L 383.655339 191.480293 
L 385.303332 187.072153 
L 386.951324 187.766439 
L 388.599317 188.271075 
L 390.24731 186.208005 
L 391.895302 188.885378 
L 393.543295 188.489585 
L 395.191287 185.818809 
L 396.83928 187.189241 
L 398.487273 182.801715 
L 398.487273 182.801715 
" clip-path="url(#p44777b5a7b)" style="fill: none; stroke: #2ca02c; stroke-width: 1.5; stroke-linecap: square"/>
   </g>
   <g id="line2d_38">
    <path d="M 73.832727 295.488 
L 80.424698 295.285156 
L 85.368676 295.023768 
L 93.608639 294.3435 
L 106.79258 292.659732 
L 111.736557 291.788163 
L 115.032543 291.102947 
L 118.328528 290.374854 
L 121.624513 289.716024 
L 123.272506 289.570076 
L 139.752432 285.203988 
L 141.400425 284.757072 
L 151.28838 281.301308 
L 154.584365 280.27637 
L 157.880351 278.964482 
L 162.824329 276.838746 
L 164.472321 276.37369 
L 167.768306 275.012328 
L 171.064292 273.728476 
L 172.712284 273.091084 
L 174.360277 272.142831 
L 176.008269 271.733021 
L 179.304255 270.16057 
L 184.248233 267.776744 
L 192.488196 263.163286 
L 199.080166 259.584661 
L 200.728159 258.863989 
L 202.376151 257.926455 
L 204.024144 257.167852 
L 212.264107 252.687974 
L 213.9121 251.459368 
L 215.560092 250.566361 
L 217.208085 249.840741 
L 218.856078 248.70696 
L 220.50407 247.821374 
L 225.448048 244.384575 
L 227.096041 243.376953 
L 228.744033 242.201943 
L 230.392026 241.186076 
L 233.688011 238.688459 
L 235.336004 237.576117 
L 240.279982 234.788253 
L 241.927974 233.42854 
L 243.575967 231.880001 
L 245.223959 231.044714 
L 246.871952 229.708914 
L 248.519945 228.039164 
L 251.81593 225.348598 
L 255.111915 222.70256 
L 256.759908 221.581147 
L 263.351878 215.667346 
L 266.647863 213.26373 
L 268.295856 211.597278 
L 269.943849 210.155933 
L 273.239834 206.954136 
L 274.887826 205.540002 
L 276.535819 204.298202 
L 278.183812 202.869226 
L 279.831804 200.979316 
L 281.479797 195.148796 
L 286.423775 189.808069 
L 289.71976 187.137294 
L 294.663738 182.687925 
L 297.959723 179.049106 
L 302.903701 173.820521 
L 311.143664 165.326646 
L 312.791657 163.304805 
L 314.439649 162.123199 
L 319.383627 155.905132 
L 332.567568 140.099813 
L 334.215561 138.494379 
L 340.807531 131.205198 
L 342.455524 129.724274 
L 344.103516 128.02484 
L 345.751509 125.737488 
L 347.399502 123.962193 
L 352.343479 117.73588 
L 353.991472 115.695075 
L 355.639465 113.846393 
L 357.287457 111.350426 
L 360.583443 107.075041 
L 363.879428 103.700084 
L 365.52742 101.204941 
L 368.823406 96.670642 
L 370.471398 93.942147 
L 380.359354 80.665778 
L 382.007347 77.979335 
L 383.655339 75.93688 
L 385.303332 73.560475 
L 386.951324 70.516995 
L 391.895302 63.405096 
L 393.543295 60.813479 
L 395.191287 57.939035 
L 396.83928 55.480998 
L 398.487273 53.568 
L 398.487273 53.568 
" clip-path="url(#p44777b5a7b)" style="fill: none; stroke: #d62728; stroke-width: 1.5; stroke-linecap: square"/>
   </g>
   <g id="patch_3">
    <path d="M 57.6 307.584 
L 57.6 41.472 
" style="fill: none; stroke: #000000; stroke-width: 0.8; stroke-linejoin: miter; stroke-linecap: square"/>
   </g>
   <g id="patch_4">
    <path d="M 414.72 307.584 
L 414.72 41.472 
" style="fill: none; stroke: #000000; stroke-width: 0.8; stroke-linejoin: miter; stroke-linecap: square"/>
   </g>
   <g id="patch_5">
    <path d="M 57.6 307.584 
L 414.72 307.584 
" style="fill: none; stroke: #000000; stroke-width: 0.8; stroke-linejoin: miter; stroke-linecap: square"/>
   </g>
   <g id="patch_6">
    <path d="M 57.6 41.472 
L 414.72 41.472 
" style="fill: none; stroke: #000000; stroke-width: 0.8; stroke-linejoin: miter; stroke-linecap: square"/>
   </g>
   <g id="legend_1">
    <g id="patch_7">
     <path d="M 64.6 138.65325 
L 230.007812 138.65325 
Q 232.007812 138.65325 232.007812 136.65325 
L 232.007812 48.472 
Q 232.007812 46.472 230.007812 46.472 
L 64.6 46.472 
Q 62.6 46.472 62.6 48.472 
L 62.6 136.65325 
Q 62.6 138.65325 64.6 138.65325 
z
" style="fill: #ffffff; opacity: 0.8; stroke: #cccccc; stroke-linejoin: miter"/>
    </g>
    <g id="line2d_39">
     <path d="M 66.6 54.570437 
L 76.6 54.570437 
L 86.6 54.570437 
" style="fill: none; stroke: #ff0000; stroke-width: 1.5; stroke-linecap: square"/>
    </g>
    <g id="text_19">
     <!-- Unicast uniquement -->
     <g transform="translate(94.6 58.070437) scale(0.1 -0.1)">
      <defs>
       <path id="DejaVuSans-55" d="M 556 4666 
L 1191 4666 
L 1191 1831 
Q 1191 1081 1462 751 
Q 1734 422 2344 422 
Q 2950 422 3222 751 
Q 3494 1081 3494 1831 
L 3494 4666 
L 4128 4666 
L 4128 1753 
Q 4128 841 3676 375 
Q 3225 -91 2344 -91 
Q 1459 -91 1007 375 
Q 556 841 556 1753 
L 556 4666 
z
" transform="scale(0.015625)"/>
       <path id="DejaVuSans-71" d="M 947 1747 
Q 947 1113 1208 752 
Q 1469 391 1925 391 
Q 2381 391 2643 752 
Q 2906 1113 2906 1747 
Q 2906 2381 2643 2742 
Q 2381 3103 1925 3103 
Q 1469 3103 1208 2742 
Q 947 2381 947 1747 
z
M 2906 525 
Q 2725 213 2448 61 
Q 2172 -91 1784 -91 
Q 1150 -91 751 415 
Q 353 922 353 1747 
Q 353 2572 751 3078 
Q 1150 3584 1784 3584 
Q 2172 3584 2448 3432 
Q 2725 3281 2906 2969 
L 2906 3500 
L 3481 3500 
L 3481 -1331 
L 2906 -1331 
L 2906 525 
z
" transform="scale(0.015625)"/>
      </defs>
      <use xlink:href="#DejaVuSans-55"/>
      <use xlink:href="#DejaVuSans-6e" transform="translate(73.193359 0)"/>
      <use xlink:href="#DejaVuSans-69" transform="translate(136.572266 0)"/>
      <use xlink:href="#DejaVuSans-63" transform="translate(164.355469 0)"/>
      <use xlink:href="#DejaVuSans-61" transform="translate(219.335938 0)"/>
      <use xlink:href="#DejaVuSans-73" transform="translate(280.615234 0)"/>
      <use xlink:href="#DejaVuSans-74" transform="translate(332.714844 0)"/>
      <use xlink:href="#DejaVuSans-20" transform="translate(371.923828 0)"/>
      <use xlink:href="#DejaVuSans-75" transform="translate(403.710938 0)"/>
      <use xlink:href="#DejaVuSans-6e" transform="translate(467.089844 0)"/>
      <use xlink:href="#DejaVuSans-69" transform="translate(530.46875 0)"/>
      <use xlink:href="#DejaVuSans-71" transform="translate(558.251953 0)"/>
      <use xlink:href="#DejaVuSans-75" transform="translate(621.728516 0)"/>
      <use xlink:href="#DejaVuSans-65" transform="translate(685.107422 0)"/>
      <use xlink:href="#DejaVuSans-6d" transform="translate(746.630859 0)"/>
      <use xlink:href="#DejaVuSans-65" transform="translate(844.042969 0)"/>
      <use xlink:href="#DejaVuSans-6e" transform="translate(905.566406 0)"/>
      <use xlink:href="#DejaVuSans-74" transform="translate(968.945312 0)"/>
     </g>
    </g>
    <g id="line2d_40">
     <path d="M 66.6 69.248562 
L 76.6 69.248562 
L 86.6 69.248562 
" style="fill: none; stroke: #0000ff; stroke-width: 1.5; stroke-linecap: square"/>
    </g>
    <g id="text_20">
     <!-- LKH -->
     <g transform="translate(94.6 72.748562) scale(0.1 -0.1)">
      <defs>
       <path id="DejaVuSans-4c" d="M 628 4666 
L 1259 4666 
L 1259 531 
L 3531 531 
L 3531 0 
L 628 0 
L 628 4666 
z
" transform="scale(0.015625)"/>
       <path id="DejaVuSans-4b" d="M 628 4666 
L 1259 4666 
L 1259 2694 
L 3353 4666 
L 4166 4666 
L 1850 2491 
L 4331 0 
L 3500 0 
L 1259 2247 
L 1259 0 
L 628 0 
L 628 4666 
z
" transform="scale(0.015625)"/>
       <path id="DejaVuSans-48" d="M 628 4666 
L 1259 4666 
L 1259 2753 
L 3553 2753 
L 3553 4666 
L 4184 4666 
L 4184 0 
L 3553 0 
L 3553 2222 
L 1259 2222 
L 1259 0 
L 628 0 
L 628 4666 
z
" transform="scale(0.015625)"/>
      </defs>
      <use xlink:href="#DejaVuSans-4c"/>
      <use xlink:href="#DejaVuSans-4b" transform="translate(55.712891 0)"/>
      <use xlink:href="#DejaVuSans-48" transform="translate(121.289062 0)"/>
     </g>
    </g>
    <g id="line2d_41">
     <path d="M 66.6 83.926687 
L 76.6 83.926687 
L 86.6 83.926687 
" style="fill: none; stroke: #1f77b4; stroke-width: 1.5; stroke-linecap: square"/>
    </g>
    <g id="text_21">
     <!-- LKHPlus (max_user = 8) -->
     <g transform="translate(94.6 87.426687) scale(0.1 -0.1)">
      <defs>
       <path id="DejaVuSans-50" d="M 1259 4147 
L 1259 2394 
L 2053 2394 
Q 2494 2394 2734 2622 
Q 2975 2850 2975 3272 
Q 2975 3691 2734 3919 
Q 2494 4147 2053 4147 
L 1259 4147 
z
M 628 4666 
L 2053 4666 
Q 2838 4666 3239 4311 
Q 3641 3956 3641 3272 
Q 3641 2581 3239 2228 
Q 2838 1875 2053 1875 
L 1259 1875 
L 1259 0 
L 628 0 
L 628 4666 
z
" transform="scale(0.015625)"/>
       <path id="DejaVuSans-5f" d="M 3263 -1063 
L 3263 -1509 
L -63 -1509 
L -63 -1063 
L 3263 -1063 
z
" transform="scale(0.015625)"/>
       <path id="DejaVuSans-3d" d="M 678 2906 
L 4684 2906 
L 4684 2381 
L 678 2381 
L 678 2906 
z
M 678 1631 
L 4684 1631 
L 4684 1100 
L 678 1100 
L 678 1631 
z
" transform="scale(0.015625)"/>
       <path id="DejaVuSans-38" d="M 2034 2216 
Q 1584 2216 1326 1975 
Q 1069 1734 1069 1313 
Q 1069 891 1326 650 
Q 1584 409 2034 409 
Q 2484 409 2743 651 
Q 3003 894 3003 1313 
Q 3003 1734 2745 1975 
Q 2488 2216 2034 2216 
z
M 1403 2484 
Q 997 2584 770 2862 
Q 544 3141 544 3541 
Q 544 4100 942 4425 
Q 1341 4750 2034 4750 
Q 2731 4750 3128 4425 
Q 3525 4100 3525 3541 
Q 3525 3141 3298 2862 
Q 3072 2584 2669 2484 
Q 3125 2378 3379 2068 
Q 3634 1759 3634 1313 
Q 3634 634 3220 271 
Q 2806 -91 2034 -91 
Q 1263 -91 848 271 
Q 434 634 434 1313 
Q 434 1759 690 2068 
Q 947 2378 1403 2484 
z
M 1172 3481 
Q 1172 3119 1398 2916 
Q 1625 2713 2034 2713 
Q 2441 2713 2670 2916 
Q 2900 3119 2900 3481 
Q 2900 3844 2670 4047 
Q 2441 4250 2034 4250 
Q 1625 4250 1398 4047 
Q 1172 3844 1172 3481 
z
" transform="scale(0.015625)"/>
      </defs>
      <use xlink:href="#DejaVuSans-4c"/>
      <use xlink:href="#DejaVuSans-4b" transform="translate(55.712891 0)"/>
      <use xlink:href="#DejaVuSans-48" transform="translate(121.289062 0)"/>
      <use xlink:href="#DejaVuSans-50" transform="translate(196.484375 0)"/>
      <use xlink:href="#DejaVuSans-6c" transform="translate(256.787109 0)"/>
      <use xlink:href="#DejaVuSans-75" transform="translate(284.570312 0)"/>
      <use xlink:href="#DejaVuSans-73" transform="translate(347.949219 0)"/>
      <use xlink:href="#DejaVuSans-20" transform="translate(400.048828 0)"/>
      <use xlink:href="#DejaVuSans-28" transform="translate(431.835938 0)"/>
      <use xlink:href="#DejaVuSans-6d" transform="translate(470.849609 0)"/>
      <use xlink:href="#DejaVuSans-61" transform="translate(568.261719 0)"/>
      <use xlink:href="#DejaVuSans-78" transform="translate(629.541016 0)"/>
      <use xlink:href="#DejaVuSans-5f" transform="translate(688.720703 0)"/>
      <use xlink:href="#DejaVuSans-75" transform="translate(738.720703 0)"/>
      <use xlink:href="#DejaVuSans-73" transform="translate(802.099609 0)"/>
      <use xlink:href="#DejaVuSans-65" transform="translate(854.199219 0)"/>
      <use xlink:href="#DejaVuSans-72" transform="translate(915.722656 0)"/>
      <use xlink:href="#DejaVuSans-20" transform="translate(956.835938 0)"/>
      <use xlink:href="#DejaVuSans-3d" transform="translate(988.623047 0)"/>
      <use xlink:href="#DejaVuSans-20" transform="translate(1072.412109 0)"/>
      <use xlink:href="#DejaVuSans-38" transform="translate(1104.199219 0)"/>
      <use xlink:href="#DejaVuSans-29" transform="translate(1167.822266 0)"/>
     </g>
    </g>
    <g id="line2d_42">
     <path d="M 66.6 98.882937 
L 76.6 98.882937 
L 86.6 98.882937 
" style="fill: none; stroke: #ff7f0e; stroke-width: 1.5; stroke-linecap: square"/>
    </g>
    <g id="text_22">
     <!-- LKHPlus (max_user = 16) -->
     <g transform="translate(94.6 102.382937) scale(0.1 -0.1)">
      <defs>
       <path id="DejaVuSans-36" d="M 2113 2584 
Q 1688 2584 1439 2293 
Q 1191 2003 1191 1497 
Q 1191 994 1439 701 
Q 1688 409 2113 409 
Q 2538 409 2786 701 
Q 3034 994 3034 1497 
Q 3034 2003 2786 2293 
Q 2538 2584 2113 2584 
z
M 3366 4563 
L 3366 3988 
Q 3128 4100 2886 4159 
Q 2644 4219 2406 4219 
Q 1781 4219 1451 3797 
Q 1122 3375 1075 2522 
Q 1259 2794 1537 2939 
Q 1816 3084 2150 3084 
Q 2853 3084 3261 2657 
Q 3669 2231 3669 1497 
Q 3669 778 3244 343 
Q 2819 -91 2113 -91 
Q 1303 -91 875 529 
Q 447 1150 447 2328 
Q 447 3434 972 4092 
Q 1497 4750 2381 4750 
Q 2619 4750 2861 4703 
Q 3103 4656 3366 4563 
z
" transform="scale(0.015625)"/>
      </defs>
      <use xlink:href="#DejaVuSans-4c"/>
      <use xlink:href="#DejaVuSans-4b" transform="translate(55.712891 0)"/>
      <use xlink:href="#DejaVuSans-48" transform="translate(121.289062 0)"/>
      <use xlink:href="#DejaVuSans-50" transform="translate(196.484375 0)"/>
      <use xlink:href="#DejaVuSans-6c" transform="translate(256.787109 0)"/>
      <use xlink:href="#DejaVuSans-75" transform="translate(284.570312 0)"/>
      <use xlink:href="#DejaVuSans-73" transform="translate(347.949219 0)"/>
      <use xlink:href="#DejaVuSans-20" transform="translate(400.048828 0)"/>
      <use xlink:href="#DejaVuSans-28" transform="translate(431.835938 0)"/>
      <use xlink:href="#DejaVuSans-6d" transform="translate(470.849609 0)"/>
      <use xlink:href="#DejaVuSans-61" transform="translate(568.261719 0)"/>
      <use xlink:href="#DejaVuSans-78" transform="translate(629.541016 0)"/>
      <use xlink:href="#DejaVuSans-5f" transform="translate(688.720703 0)"/>
      <use xlink:href="#DejaVuSans-75" transform="translate(738.720703 0)"/>
      <use xlink:href="#DejaVuSans-73" transform="translate(802.099609 0)"/>
      <use xlink:href="#DejaVuSans-65" transform="translate(854.199219 0)"/>
      <use xlink:href="#DejaVuSans-72" transform="translate(915.722656 0)"/>
      <use xlink:href="#DejaVuSans-20" transform="translate(956.835938 0)"/>
      <use xlink:href="#DejaVuSans-3d" transform="translate(988.623047 0)"/>
      <use xlink:href="#DejaVuSans-20" transform="translate(1072.412109 0)"/>
      <use xlink:href="#DejaVuSans-31" transform="translate(1104.199219 0)"/>
      <use xlink:href="#DejaVuSans-36" transform="translate(1167.822266 0)"/>
      <use xlink:href="#DejaVuSans-29" transform="translate(1231.445312 0)"/>
     </g>
    </g>
    <g id="line2d_43">
     <path d="M 66.6 113.839187 
L 76.6 113.839187 
L 86.6 113.839187 
" style="fill: none; stroke: #2ca02c; stroke-width: 1.5; stroke-linecap: square"/>
    </g>
    <g id="text_23">
     <!-- LKHPlus (max_user = 64) -->
     <g transform="translate(94.6 117.339187) scale(0.1 -0.1)">
      <defs>
       <path id="DejaVuSans-34" d="M 2419 4116 
L 825 1625 
L 2419 1625 
L 2419 4116 
z
M 2253 4666 
L 3047 4666 
L 3047 1625 
L 3713 1625 
L 3713 1100 
L 3047 1100 
L 3047 0 
L 2419 0 
L 2419 1100 
L 313 1100 
L 313 1709 
L 2253 4666 
z
" transform="scale(0.015625)"/>
      </defs>
      <use xlink:href="#DejaVuSans-4c"/>
      <use xlink:href="#DejaVuSans-4b" transform="translate(55.712891 0)"/>
      <use xlink:href="#DejaVuSans-48" transform="translate(121.289062 0)"/>
      <use xlink:href="#DejaVuSans-50" transform="translate(196.484375 0)"/>
      <use xlink:href="#DejaVuSans-6c" transform="translate(256.787109 0)"/>
      <use xlink:href="#DejaVuSans-75" transform="translate(284.570312 0)"/>
      <use xlink:href="#DejaVuSans-73" transform="translate(347.949219 0)"/>
      <use xlink:href="#DejaVuSans-20" transform="translate(400.048828 0)"/>
      <use xlink:href="#DejaVuSans-28" transform="translate(431.835938 0)"/>
      <use xlink:href="#DejaVuSans-6d" transform="translate(470.849609 0)"/>
      <use xlink:href="#DejaVuSans-61" transform="translate(568.261719 0)"/>
      <use xlink:href="#DejaVuSans-78" transform="translate(629.541016 0)"/>
      <use xlink:href="#DejaVuSans-5f" transform="translate(688.720703 0)"/>
      <use xlink:href="#DejaVuSans-75" transform="translate(738.720703 0)"/>
      <use xlink:href="#DejaVuSans-73" transform="translate(802.099609 0)"/>
      <use xlink:href="#DejaVuSans-65" transform="translate(854.199219 0)"/>
      <use xlink:href="#DejaVuSans-72" transform="translate(915.722656 0)"/>
      <use xlink:href="#DejaVuSans-20" transform="translate(956.835938 0)"/>
      <use xlink:href="#DejaVuSans-3d" transform="translate(988.623047 0)"/>
      <use xlink:href="#DejaVuSans-20" transform="translate(1072.412109 0)"/>
      <use xlink:href="#DejaVuSans-36" transform="translate(1104.199219 0)"/>
      <use xlink:href="#DejaVuSans-34" transform="translate(1167.822266 0)"/>
      <use xlink:href="#DejaVuSans-29" transform="translate(1231.445312 0)"/>
     </g>
    </g>
    <g id="line2d_44">
     <path d="M 66.6 128.795437 
L 76.6 128.795437 
L 86.6 128.795437 
" style="fill: none; stroke: #d62728; stroke-width: 1.5; stroke-linecap: square"/>
    </g>
    <g id="text_24">
     <!-- LKHPlus (max_user = 128) -->
     <g transform="translate(94.6 132.295437) scale(0.1 -0.1)">
      <use xlink:href="#DejaVuSans-4c"/>
      <use xlink:href="#DejaVuSans-4b" transform="translate(55.712891 0)"/>
      <use xlink:href="#DejaVuSans-48" transform="translate(121.289062 0)"/>
      <use xlink:href="#DejaVuSans-50" transform="translate(196.484375 0)"/>
      <use xlink:href="#DejaVuSans-6c" transform="translate(256.787109 0)"/>
      <use xlink:href="#DejaVuSans-75" transform="translate(284.570312 0)"/>
      <use xlink:href="#DejaVuSans-73" transform="translate(347.949219 0)"/>
      <use xlink:href="#DejaVuSans-20" transform="translate(400.048828 0)"/>
      <use xlink:href="#DejaVuSans-28" transform="translate(431.835938 0)"/>
      <use xlink:href="#DejaVuSans-6d" transform="translate(470.849609 0)"/>
      <use xlink:href="#DejaVuSans-61" transform="translate(568.261719 0)"/>
      <use xlink:href="#DejaVuSans-78" transform="translate(629.541016 0)"/>
      <use xlink:href="#DejaVuSans-5f" transform="translate(688.720703 0)"/>
      <use xlink:href="#DejaVuSans-75" transform="translate(738.720703 0)"/>
      <use xlink:href="#DejaVuSans-73" transform="translate(802.099609 0)"/>
      <use xlink:href="#DejaVuSans-65" transform="translate(854.199219 0)"/>
      <use xlink:href="#DejaVuSans-72" transform="translate(915.722656 0)"/>
      <use xlink:href="#DejaVuSans-20" transform="translate(956.835938 0)"/>
      <use xlink:href="#DejaVuSans-3d" transform="translate(988.623047 0)"/>
      <use xlink:href="#DejaVuSans-20" transform="translate(1072.412109 0)"/>
      <use xlink:href="#DejaVuSans-31" transform="translate(1104.199219 0)"/>
      <use xlink:href="#DejaVuSans-32" transform="translate(1167.822266 0)"/>
      <use xlink:href="#DejaVuSans-38" transform="translate(1231.445312 0)"/>
      <use xlink:href="#DejaVuSans-29" transform="translate(1295.068359 0)"/>
     </g>
    </g>
   </g>
  </g>
  <g id="text_25">
   <!-- Nombre de chiffrement pour $15n$ actions aléatoires -->
   <g transform="translate(76.14 16.512) scale(0.12 -0.12)">
    <defs>
     <path id="DejaVuSans-70" d="M 1159 525 
L 1159 -1331 
L 581 -1331 
L 581 3500 
L 1159 3500 
L 1159 2969 
Q 1341 3281 1617 3432 
Q 1894 3584 2278 3584 
Q 2916 3584 3314 3078 
Q 3713 2572 3713 1747 
Q 3713 922 3314 415 
Q 2916 -91 2278 -91 
Q 1894 -91 1617 61 
Q 1341 213 1159 525 
z
M 3116 1747 
Q 3116 2381 2855 2742 
Q 2594 3103 2138 3103 
Q 1681 3103 1420 2742 
Q 1159 2381 1159 1747 
Q 1159 1113 1420 752 
Q 1681 391 2138 391 
Q 2594 391 2855 752 
Q 3116 1113 3116 1747 
z
" transform="scale(0.015625)"/>
     <path id="DejaVuSans-e9" d="M 3597 1894 
L 3597 1613 
L 953 1613 
Q 991 1019 1311 708 
Q 1631 397 2203 397 
Q 2534 397 2845 478 
Q 3156 559 3463 722 
L 3463 178 
Q 3153 47 2828 -22 
Q 2503 -91 2169 -91 
Q 1331 -91 842 396 
Q 353 884 353 1716 
Q 353 2575 817 3079 
Q 1281 3584 2069 3584 
Q 2775 3584 3186 3129 
Q 3597 2675 3597 1894 
z
M 3022 2063 
Q 3016 2534 2758 2815 
Q 2500 3097 2075 3097 
Q 1594 3097 1305 2825 
Q 1016 2553 972 2059 
L 3022 2063 
z
M 2466 5119 
L 3088 5119 
L 2070 3944 
L 1591 3944 
L 2466 5119 
z
" transform="scale(0.015625)"/>
    </defs>
    <use xlink:href="#DejaVuSans-4e" transform="translate(0 0.015625)"/>
    <use xlink:href="#DejaVuSans-6f" transform="translate(74.804688 0.015625)"/>
    <use xlink:href="#DejaVuSans-6d" transform="translate(135.986328 0.015625)"/>
    <use xlink:href="#DejaVuSans-62" transform="translate(233.398438 0.015625)"/>
    <use xlink:href="#DejaVuSans-72" transform="translate(296.875 0.015625)"/>
    <use xlink:href="#DejaVuSans-65" transform="translate(337.988281 0.015625)"/>
    <use xlink:href="#DejaVuSans-20" transform="translate(399.511719 0.015625)"/>
    <use xlink:href="#DejaVuSans-64" transform="translate(431.298828 0.015625)"/>
    <use xlink:href="#DejaVuSans-65" transform="translate(494.775391 0.015625)"/>
    <use xlink:href="#DejaVuSans-20" transform="translate(556.298828 0.015625)"/>
    <use xlink:href="#DejaVuSans-63" transform="translate(588.085938 0.015625)"/>
    <use xlink:href="#DejaVuSans-68" transform="translate(643.066406 0.015625)"/>
    <use xlink:href="#DejaVuSans-69" transform="translate(706.445312 0.015625)"/>
    <use xlink:href="#DejaVuSans-66" transform="translate(734.228516 0.015625)"/>
    <use xlink:href="#DejaVuSans-66" transform="translate(769.433594 0.015625)"/>
    <use xlink:href="#DejaVuSans-72" transform="translate(804.638672 0.015625)"/>
    <use xlink:href="#DejaVuSans-65" transform="translate(845.751953 0.015625)"/>
    <use xlink:href="#DejaVuSans-6d" transform="translate(907.275391 0.015625)"/>
    <use xlink:href="#DejaVuSans-65" transform="translate(1004.6875 0.015625)"/>
    <use xlink:href="#DejaVuSans-6e" transform="translate(1066.210938 0.015625)"/>
    <use xlink:href="#DejaVuSans-74" transform="translate(1129.589844 0.015625)"/>
    <use xlink:href="#DejaVuSans-20" transform="translate(1168.798828 0.015625)"/>
    <use xlink:href="#DejaVuSans-70" transform="translate(1200.585938 0.015625)"/>
    <use xlink:href="#DejaVuSans-6f" transform="translate(1264.0625 0.015625)"/>
    <use xlink:href="#DejaVuSans-75" transform="translate(1325.244141 0.015625)"/>
    <use xlink:href="#DejaVuSans-72" transform="translate(1388.623047 0.015625)"/>
    <use xlink:href="#DejaVuSans-20" transform="translate(1429.736328 0.015625)"/>
    <use xlink:href="#DejaVuSans-31" transform="translate(1461.523438 0.015625)"/>
    <use xlink:href="#DejaVuSans-35" transform="translate(1525.146484 0.015625)"/>
    <use xlink:href="#DejaVuSans-Oblique-6e" transform="translate(1588.769531 0.015625)"/>
    <use xlink:href="#DejaVuSans-20" transform="translate(1652.148438 0.015625)"/>
    <use xlink:href="#DejaVuSans-61" transform="translate(1683.935547 0.015625)"/>
    <use xlink:href="#DejaVuSans-63" transform="translate(1745.214844 0.015625)"/>
    <use xlink:href="#DejaVuSans-74" transform="translate(1800.195312 0.015625)"/>
    <use xlink:href="#DejaVuSans-69" transform="translate(1839.404297 0.015625)"/>
    <use xlink:href="#DejaVuSans-6f" transform="translate(1867.1875 0.015625)"/>
    <use xlink:href="#DejaVuSans-6e" transform="translate(1928.369141 0.015625)"/>
    <use xlink:href="#DejaVuSans-73" transform="translate(1991.748047 0.015625)"/>
    <use xlink:href="#DejaVuSans-20" transform="translate(2043.847656 0.015625)"/>
    <use xlink:href="#DejaVuSans-61" transform="translate(2075.634766 0.015625)"/>
    <use xlink:href="#DejaVuSans-6c" transform="translate(2136.914062 0.015625)"/>
    <use xlink:href="#DejaVuSans-e9" transform="translate(2164.697266 0.015625)"/>
    <use xlink:href="#DejaVuSans-61" transform="translate(2226.220703 0.015625)"/>
    <use xlink:href="#DejaVuSans-74" transform="translate(2287.5 0.015625)"/>
    <use xlink:href="#DejaVuSans-6f" transform="translate(2326.708984 0.015625)"/>
    <use xlink:href="#DejaVuSans-69" transform="translate(2387.890625 0.015625)"/>
    <use xlink:href="#DejaVuSans-72" transform="translate(2415.673828 0.015625)"/>
    <use xlink:href="#DejaVuSans-65" transform="translate(2456.787109 0.015625)"/>
    <use xlink:href="#DejaVuSans-73" transform="translate(2518.310547 0.015625)"/>
   </g>
  </g>
 </g>
 <defs>
  <clipPath id="p44777b5a7b">
   <rect x="57.6" y="41.472" width="357.12" height="266.112"/>
  </clipPath>
 </defs>
</svg>
