<?xml version="1.0" encoding="utf-8" standalone="no"?>
<!DOCTYPE svg PUBLIC "-//W3C//DTD SVG 1.1//EN"
  "http://www.w3.org/Graphics/SVG/1.1/DTD/svg11.dtd">
<svg xmlns:xlink="http://www.w3.org/1999/xlink" width="460.8pt" height="345.6pt" viewBox="0 0 460.8 345.6" xmlns="http://www.w3.org/2000/svg" version="1.1">
 <metadata>
  <rdf:RDF xmlns:dc="http://purl.org/dc/elements/1.1/" xmlns:cc="http://creativecommons.org/ns#" xmlns:rdf="http://www.w3.org/1999/02/22-rdf-syntax-ns#">
   <cc:Work>
    <dc:type rdf:resource="http://purl.org/dc/dcmitype/StillImage"/>
    <dc:date>2026-07-15T13:43:45.874525</dc:date>
    <dc:format>image/svg+xml</dc:format>
    <dc:creator>
     <cc:Agent>
      <dc:title>Matplotlib v3.10.8, https://matplotlib.org/</dc:title>
     </cc:Agent>
    </dc:creator>
   </cc:Work>
  </rdf:RDF>
 </metadata>
 <defs>
  <style type="text/css">*{stroke-linejoin: round; stroke-linecap: butt}</style>
 </defs>
 <g id="figure_1">
  <g id="patch_1">
   <path d="M 0 345.6 
L 460.8 345.6 
L 460.8 0 
L 0 0 
z
" style="fill: #ffffff"/>
  </g>
  <g id="axes_1">
   <g id="patch_2">
    <path d="M 57.6 307.584 
L 414.72 307.584 
L 414.72 41.472 
L 57.6 41.472 
z
" style="fill: #ffffff"/>
   </g>
   <g id="FillBetweenPolyCollection_1">
    <defs>
     <path id="mf08ff19e30" d="M 73.832727 -50.112 
L 73.832727 -50.112 
L 90.919809 -50.752301 
L 108.00689 -52.735794 
L 125.093971 -55.952013 
L 142.181053 -60.518419 
L 159.268134 -66.464735 
L 176.355215 -73.695809 
L 193.442297 -82.432563 
L 210.529378 -91.943695 
L 227.616459 -103.520913 
L 244.703541 -116.350374 
L 261.790622 -129.480976 
L 278.877703 -144.852089 
L 295.964785 -161.961064 
L 313.051866 -178.904404 
L 330.138947 -200.089325 
L 347.226029 -217.827176 
L 364.31311 -243.214438 
L 381.400191 -264.193928 
L 398.487273 -288.089714 
L 398.487273 -292.032 
L 398.487273 -292.032 
L 381.400191 -267.987143 
L 364.31311 -246.054629 
L 347.226029 -221.662425 
L 330.138947 -202.050579 
L 313.051866 -181.686889 
L 295.964785 -163.538735 
L 278.877703 -146.826052 
L 261.790622 -131.873042 
L 244.703541 -117.66016 
L 227.616459 -104.858058 
L 210.529378 -93.459722 
L 193.442297 -83.225007 
L 176.355215 -74.465743 
L 159.268134 -67.064365 
L 142.181053 -61.173856 
L 125.093971 -56.169659 
L 108.00689 -52.851155 
L 90.919809 -50.792641 
L 73.832727 -50.112 
z
" style="stroke: #f0627a; stroke-opacity: 0.1"/>
    </defs>
    <g clip-path="url(#pcf87870cd0)">
     <use xlink:href="#mf08ff19e30" x="0" y="345.6" style="fill: #f0627a; fill-opacity: 0.1; stroke: #f0627a; stroke-opacity: 0.1"/>
    </g>
   </g>
   <g id="FillBetweenPolyCollection_2">
    <defs>
     <path id="mabad783f92" d="M 73.832727 -50.112 
L 73.832727 -50.112 
L 90.919809 -50.494647 
L 108.00689 -51.039957 
L 125.093971 -51.639844 
L 142.181053 -52.284493 
L 159.268134 -52.963776 
L 176.355215 -53.659489 
L 193.442297 -54.377442 
L 210.529378 -55.105228 
L 227.616459 -55.866386 
L 244.703541 -56.643587 
L 261.790622 -57.405553 
L 278.877703 -58.183006 
L 295.964785 -58.970987 
L 313.051866 -59.766576 
L 330.138947 -60.596309 
L 347.226029 -61.39593 
L 364.31311 -62.263496 
L 381.400191 -63.097486 
L 398.487273 -63.940033 
L 398.487273 -63.987006 
L 398.487273 -63.987006 
L 381.400191 -63.136983 
L 364.31311 -62.314241 
L 347.226029 -61.441751 
L 330.138947 -60.633744 
L 313.051866 -59.814683 
L 295.964785 -59.006316 
L 278.877703 -58.218483 
L 261.790622 -57.442269 
L 244.703541 -56.673699 
L 227.616459 -55.896518 
L 210.529378 -55.137397 
L 193.442297 -54.398827 
L 176.355215 -53.68705 
L 159.268134 -52.985082 
L 142.181053 -52.315693 
L 125.093971 -51.652747 
L 108.00689 -51.049221 
L 90.919809 -50.501739 
L 73.832727 -50.112 
z
" style="stroke: #6281f0; stroke-opacity: 0.1"/>
    </defs>
    <g clip-path="url(#pcf87870cd0)">
     <use xlink:href="#mabad783f92" x="0" y="345.6" style="fill: #6281f0; fill-opacity: 0.1; stroke: #6281f0; stroke-opacity: 0.1"/>
    </g>
   </g>
   <g id="FillBetweenPolyCollection_3">
    <defs>
     <path id="m9bf7e8ff61" d="M 73.832727 -50.112 
L 73.832727 -50.112 
L 90.919809 -50.47218 
L 108.00689 -50.99545 
L 125.093971 -51.583975 
L 142.181053 -52.203911 
L 159.268134 -52.871354 
L 176.355215 -53.55092 
L 193.442297 -54.243658 
L 210.529378 -54.943859 
L 227.616459 -55.694871 
L 244.703541 -56.478051 
L 261.790622 -57.226222 
L 278.877703 -57.970537 
L 295.964785 -58.732737 
L 313.051866 -59.492154 
L 330.138947 -60.269946 
L 347.226029 -61.063451 
L 364.31311 -61.893173 
L 381.400191 -62.771618 
L 398.487273 -63.602763 
L 398.487273 -63.649664 
L 398.487273 -63.649664 
L 381.400191 -62.803093 
L 364.31311 -61.956462 
L 347.226029 -61.126023 
L 330.138947 -60.30416 
L 313.051866 -59.547407 
L 295.964785 -58.768983 
L 278.877703 -58.005334 
L 261.790622 -57.257217 
L 244.703541 -56.509132 
L 227.616459 -55.729277 
L 210.529378 -54.982032 
L 193.442297 -54.26287 
L 176.355215 -53.573296 
L 159.268134 -52.896259 
L 142.181053 -52.223793 
L 125.093971 -51.605544 
L 108.00689 -51.011978 
L 90.919809 -50.482305 
L 73.832727 -50.112 
z
" style="stroke: #1f77b4; stroke-opacity: 0.1"/>
    </defs>
    <g clip-path="url(#pcf87870cd0)">
     <use xlink:href="#m9bf7e8ff61" x="0" y="345.6" style="fill: #1f77b4; fill-opacity: 0.1; stroke: #1f77b4; stroke-opacity: 0.1"/>
    </g>
   </g>
   <g id="FillBetweenPolyCollection_4">
    <defs>
     <path id="m5d9d68493c" d="M 73.832727 -50.112 
L 73.832727 -50.112 
L 90.919809 -50.477743 
L 108.00689 -51.033502 
L 125.093971 -51.654034 
L 142.181053 -52.313032 
L 159.268134 -53.022994 
L 176.355215 -53.729581 
L 193.442297 -54.439857 
L 210.529378 -55.20497 
L 227.616459 -55.959117 
L 244.703541 -56.780862 
L 261.790622 -57.60225 
L 278.877703 -58.366148 
L 295.964785 -59.14126 
L 313.051866 -59.902115 
L 330.138947 -60.741651 
L 347.226029 -61.580829 
L 364.31311 -62.454661 
L 381.400191 -63.3435 
L 398.487273 -64.262637 
L 398.487273 -64.321813 
L 398.487273 -64.321813 
L 381.400191 -63.419909 
L 364.31311 -62.51649 
L 347.226029 -61.62979 
L 330.138947 -60.799721 
L 313.051866 -59.955545 
L 295.964785 -59.173761 
L 278.877703 -58.390032 
L 261.790622 -57.622711 
L 244.703541 -56.840297 
L 227.616459 -56.011888 
L 210.529378 -55.242974 
L 193.442297 -54.46976 
L 176.355215 -53.753389 
L 159.268134 -53.049088 
L 142.181053 -52.333205 
L 125.093971 -51.670842 
L 108.00689 -51.04751 
L 90.919809 -50.496865 
L 73.832727 -50.112 
z
" style="stroke: #ff7f0e; stroke-opacity: 0.1"/>
    </defs>
    <g clip-path="url(#pcf87870cd0)">
     <use xlink:href="#m5d9d68493c" x="0" y="345.6" style="fill: #ff7f0e; fill-opacity: 0.1; stroke: #ff7f0e; stroke-opacity: 0.1"/>
    </g>
   </g>
   <g id="FillBetweenPolyCollection_5">
    <defs>
     <path id="m0c0954d94b" d="M 73.832727 -50.112 
L 73.832727 -50.112 
L 90.919809 -50.765917 
L 108.00689 -52.618818 
L 125.093971 -53.760263 
L 142.181053 -55.008197 
L 159.268134 -56.413449 
L 176.355215 -57.726948 
L 193.442297 -59.155217 
L 210.529378 -60.535371 
L 227.616459 -61.996603 
L 244.703541 -63.472124 
L 261.790622 -64.900937 
L 278.877703 -66.443679 
L 295.964785 -67.919295 
L 313.051866 -69.382759 
L 330.138947 -70.913818 
L 347.226029 -72.456255 
L 364.31311 -73.94955 
L 381.400191 -75.558439 
L 398.487273 -77.10554 
L 398.487273 -77.31076 
L 398.487273 -77.31076 
L 381.400191 -75.738143 
L 364.31311 -74.132865 
L 347.226029 -72.597417 
L 330.138947 -71.099517 
L 313.051866 -69.564971 
L 295.964785 -68.039255 
L 278.877703 -66.578487 
L 261.790622 -65.03902 
L 244.703541 -63.605415 
L 227.616459 -62.142169 
L 210.529378 -60.687097 
L 193.442297 -59.258506 
L 176.355215 -57.845509 
L 159.268134 -56.470736 
L 142.181053 -55.128009 
L 125.093971 -53.896903 
L 108.00689 -52.814498 
L 90.919809 -50.788501 
L 73.832727 -50.112 
z
" style="stroke: #2ca02c; stroke-opacity: 0.1"/>
    </defs>
    <g clip-path="url(#pcf87870cd0)">
     <use xlink:href="#m0c0954d94b" x="0" y="345.6" style="fill: #2ca02c; fill-opacity: 0.1; stroke: #2ca02c; stroke-opacity: 0.1"/>
    </g>
   </g>
   <g id="FillBetweenPolyCollection_6">
    <defs>
     <path id="mc9ba49bfa6" d="M 73.832727 -50.112 
L 73.832727 -50.112 
L 90.919809 -50.765917 
L 108.00689 -52.714146 
L 125.093971 -56.062099 
L 142.181053 -60.621381 
L 159.268134 -62.038079 
L 176.355215 -64.116333 
L 193.442297 -66.055447 
L 210.529378 -68.351527 
L 227.616459 -70.494418 
L 244.703541 -72.792275 
L 261.790622 -74.818085 
L 278.877703 -77.212694 
L 295.964785 -79.560103 
L 313.051866 -81.906524 
L 330.138947 -84.276199 
L 347.226029 -86.612428 
L 364.31311 -88.854016 
L 381.400191 -91.356314 
L 398.487273 -93.853666 
L 398.487273 -94.263606 
L 398.487273 -94.263606 
L 381.400191 -91.882974 
L 364.31311 -89.303771 
L 347.226029 -86.990326 
L 330.138947 -84.599724 
L 313.051866 -82.293769 
L 295.964785 -80.020463 
L 278.877703 -77.700857 
L 261.790622 -75.352124 
L 244.703541 -73.12239 
L 227.616459 -70.887463 
L 210.529378 -68.540348 
L 193.442297 -66.602905 
L 176.355215 -64.671501 
L 159.268134 -62.789769 
L 142.181053 -60.967447 
L 125.093971 -56.253091 
L 108.00689 -52.800272 
L 90.919809 -50.788501 
L 73.832727 -50.112 
z
" style="stroke: #d62728; stroke-opacity: 0.1"/>
    </defs>
    <g clip-path="url(#pcf87870cd0)">
     <use xlink:href="#mc9ba49bfa6" x="0" y="345.6" style="fill: #d62728; fill-opacity: 0.1; stroke: #d62728; stroke-opacity: 0.1"/>
    </g>
   </g>
   <g id="matplotlib.axis_1">
    <g id="xtick_1">
     <g id="line2d_1">
      <path d="M 73.832727 307.584 
L 73.832727 41.472 
" clip-path="url(#pcf87870cd0)" style="fill: none; stroke: #b0b0b0; stroke-width: 0.5; stroke-linecap: square"/>
     </g>
     <g id="line2d_2">
      <defs>
       <path id="m3cf1c044e1" d="M 0 0 
L 0 -3 
" style="stroke: #000000; stroke-width: 0.5"/>
      </defs>
      <g>
       <use xlink:href="#m3cf1c044e1" x="73.832727" y="307.584" style="stroke: #000000; stroke-width: 0.5"/>
      </g>
     </g>
     <g id="text_1">
      <!-- $\mathdefault{0}$ -->
      <g transform="translate(71.332727 318.023062)">
       <text>
        <tspan x="0" y="-0.34375" style="font-size: 10px; font-family: 'cmr10'">0</tspan>
       </text>
      </g>
     </g>
    </g>
    <g id="xtick_2">
     <g id="line2d_3">
      <path d="M 125.093971 307.584 
L 125.093971 41.472 
" clip-path="url(#pcf87870cd0)" style="fill: none; stroke: #b0b0b0; stroke-width: 0.5; stroke-linecap: square"/>
     </g>
     <g id="line2d_4">
      <g>
       <use xlink:href="#m3cf1c044e1" x="125.093971" y="307.584" style="stroke: #000000; stroke-width: 0.5"/>
      </g>
     </g>
     <g id="text_2">
      <!-- $\mathdefault{150}$ -->
      <g transform="translate(117.593971 318.023062)">
       <text>
        <tspan x="0" y="-0.34375" style="font-size: 10px; font-family: 'cmr10'">1</tspan>
        <tspan x="5" y="-0.34375" style="font-size: 10px; font-family: 'cmr10'">5</tspan>
        <tspan x="10" y="-0.34375" style="font-size: 10px; font-family: 'cmr10'">0</tspan>
       </text>
      </g>
     </g>
    </g>
    <g id="xtick_3">
     <g id="line2d_5">
      <path d="M 176.355215 307.584 
L 176.355215 41.472 
" clip-path="url(#pcf87870cd0)" style="fill: none; stroke: #b0b0b0; stroke-width: 0.5; stroke-linecap: square"/>
     </g>
     <g id="line2d_6">
      <g>
       <use xlink:href="#m3cf1c044e1" x="176.355215" y="307.584" style="stroke: #000000; stroke-width: 0.5"/>
      </g>
     </g>
     <g id="text_3">
      <!-- $\mathdefault{300}$ -->
      <g transform="translate(168.855215 318.023062)">
       <text>
        <tspan x="0" y="-0.34375" style="font-size: 10px; font-family: 'cmr10'">3</tspan>
        <tspan x="5" y="-0.34375" style="font-size: 10px; font-family: 'cmr10'">0</tspan>
        <tspan x="10" y="-0.34375" style="font-size: 10px; font-family: 'cmr10'">0</tspan>
       </text>
      </g>
     </g>
    </g>
    <g id="xtick_4">
     <g id="line2d_7">
      <path d="M 227.616459 307.584 
L 227.616459 41.472 
" clip-path="url(#pcf87870cd0)" style="fill: none; stroke: #b0b0b0; stroke-width: 0.5; stroke-linecap: square"/>
     </g>
     <g id="line2d_8">
      <g>
       <use xlink:href="#m3cf1c044e1" x="227.616459" y="307.584" style="stroke: #000000; stroke-width: 0.5"/>
      </g>
     </g>
     <g id="text_4">
      <!-- $\mathdefault{450}$ -->
      <g transform="translate(220.116459 318.023062)">
       <text>
        <tspan x="0" y="-0.34375" style="font-size: 10px; font-family: 'cmr10'">4</tspan>
        <tspan x="5" y="-0.34375" style="font-size: 10px; font-family: 'cmr10'">5</tspan>
        <tspan x="10" y="-0.34375" style="font-size: 10px; font-family: 'cmr10'">0</tspan>
       </text>
      </g>
     </g>
    </g>
    <g id="xtick_5">
     <g id="line2d_9">
      <path d="M 278.877703 307.584 
L 278.877703 41.472 
" clip-path="url(#pcf87870cd0)" style="fill: none; stroke: #b0b0b0; stroke-width: 0.5; stroke-linecap: square"/>
     </g>
     <g id="line2d_10">
      <g>
       <use xlink:href="#m3cf1c044e1" x="278.877703" y="307.584" style="stroke: #000000; stroke-width: 0.5"/>
      </g>
     </g>
     <g id="text_5">
      <!-- $\mathdefault{600}$ -->
      <g transform="translate(271.377703 318.023062)">
       <text>
        <tspan x="0" y="-0.34375" style="font-size: 10px; font-family: 'cmr10'">6</tspan>
        <tspan x="5" y="-0.34375" style="font-size: 10px; font-family: 'cmr10'">0</tspan>
        <tspan x="10" y="-0.34375" style="font-size: 10px; font-family: 'cmr10'">0</tspan>
       </text>
      </g>
     </g>
    </g>
    <g id="xtick_6">
     <g id="line2d_11">
      <path d="M 330.138947 307.584 
L 330.138947 41.472 
" clip-path="url(#pcf87870cd0)" style="fill: none; stroke: #b0b0b0; stroke-width: 0.5; stroke-linecap: square"/>
     </g>
     <g id="line2d_12">
      <g>
       <use xlink:href="#m3cf1c044e1" x="330.138947" y="307.584" style="stroke: #000000; stroke-width: 0.5"/>
      </g>
     </g>
     <g id="text_6">
      <!-- $\mathdefault{750}$ -->
      <g transform="translate(322.638947 318.023062)">
       <text>
        <tspan x="0" y="-0.234375" style="font-size: 10px; font-family: 'cmr10'">7</tspan>
        <tspan x="5" y="-0.234375" style="font-size: 10px; font-family: 'cmr10'">5</tspan>
        <tspan x="10" y="-0.234375" style="font-size: 10px; font-family: 'cmr10'">0</tspan>
       </text>
      </g>
     </g>
    </g>
    <g id="xtick_7">
     <g id="line2d_13">
      <path d="M 381.400191 307.584 
L 381.400191 41.472 
" clip-path="url(#pcf87870cd0)" style="fill: none; stroke: #b0b0b0; stroke-width: 0.5; stroke-linecap: square"/>
     </g>
     <g id="line2d_14">
      <g>
       <use xlink:href="#m3cf1c044e1" x="381.400191" y="307.584" style="stroke: #000000; stroke-width: 0.5"/>
      </g>
     </g>
     <g id="text_7">
      <!-- $\mathdefault{900}$ -->
      <g transform="translate(373.900191 318.023062)">
       <text>
        <tspan x="0" y="-0.34375" style="font-size: 10px; font-family: 'cmr10'">9</tspan>
        <tspan x="5" y="-0.34375" style="font-size: 10px; font-family: 'cmr10'">0</tspan>
        <tspan x="10" y="-0.34375" style="font-size: 10px; font-family: 'cmr10'">0</tspan>
       </text>
      </g>
     </g>
    </g>
    <g id="xtick_8">
     <g id="line2d_15">
      <defs>
       <path id="m9366dd72d5" d="M 0 0 
L 0 -1.5 
" style="stroke: #000000; stroke-width: 0.5"/>
      </defs>
      <g>
       <use xlink:href="#m9366dd72d5" x="61.017416" y="307.584" style="stroke: #000000; stroke-width: 0.5"/>
      </g>
     </g>
    </g>
    <g id="xtick_9">
     <g id="line2d_16">
      <g>
       <use xlink:href="#m9366dd72d5" x="86.648038" y="307.584" style="stroke: #000000; stroke-width: 0.5"/>
      </g>
     </g>
    </g>
    <g id="xtick_10">
     <g id="line2d_17">
      <g>
       <use xlink:href="#m9366dd72d5" x="99.463349" y="307.584" style="stroke: #000000; stroke-width: 0.5"/>
      </g>
     </g>
    </g>
    <g id="xtick_11">
     <g id="line2d_18">
      <g>
       <use xlink:href="#m9366dd72d5" x="112.27866" y="307.584" style="stroke: #000000; stroke-width: 0.5"/>
      </g>
     </g>
    </g>
    <g id="xtick_12">
     <g id="line2d_19">
      <g>
       <use xlink:href="#m9366dd72d5" x="137.909282" y="307.584" style="stroke: #000000; stroke-width: 0.5"/>
      </g>
     </g>
    </g>
    <g id="xtick_13">
     <g id="line2d_20">
      <g>
       <use xlink:href="#m9366dd72d5" x="150.724593" y="307.584" style="stroke: #000000; stroke-width: 0.5"/>
      </g>
     </g>
    </g>
    <g id="xtick_14">
     <g id="line2d_21">
      <g>
       <use xlink:href="#m9366dd72d5" x="163.539904" y="307.584" style="stroke: #000000; stroke-width: 0.5"/>
      </g>
     </g>
    </g>
    <g id="xtick_15">
     <g id="line2d_22">
      <g>
       <use xlink:href="#m9366dd72d5" x="189.170526" y="307.584" style="stroke: #000000; stroke-width: 0.5"/>
      </g>
     </g>
    </g>
    <g id="xtick_16">
     <g id="line2d_23">
      <g>
       <use xlink:href="#m9366dd72d5" x="201.985837" y="307.584" style="stroke: #000000; stroke-width: 0.5"/>
      </g>
     </g>
    </g>
    <g id="xtick_17">
     <g id="line2d_24">
      <g>
       <use xlink:href="#m9366dd72d5" x="214.801148" y="307.584" style="stroke: #000000; stroke-width: 0.5"/>
      </g>
     </g>
    </g>
    <g id="xtick_18">
     <g id="line2d_25">
      <g>
       <use xlink:href="#m9366dd72d5" x="240.43177" y="307.584" style="stroke: #000000; stroke-width: 0.5"/>
      </g>
     </g>
    </g>
    <g id="xtick_19">
     <g id="line2d_26">
      <g>
       <use xlink:href="#m9366dd72d5" x="253.247081" y="307.584" style="stroke: #000000; stroke-width: 0.5"/>
      </g>
     </g>
    </g>
    <g id="xtick_20">
     <g id="line2d_27">
      <g>
       <use xlink:href="#m9366dd72d5" x="266.062392" y="307.584" style="stroke: #000000; stroke-width: 0.5"/>
      </g>
     </g>
    </g>
    <g id="xtick_21">
     <g id="line2d_28">
      <g>
       <use xlink:href="#m9366dd72d5" x="291.693014" y="307.584" style="stroke: #000000; stroke-width: 0.5"/>
      </g>
     </g>
    </g>
    <g id="xtick_22">
     <g id="line2d_29">
      <g>
       <use xlink:href="#m9366dd72d5" x="304.508325" y="307.584" style="stroke: #000000; stroke-width: 0.5"/>
      </g>
     </g>
    </g>
    <g id="xtick_23">
     <g id="line2d_30">
      <g>
       <use xlink:href="#m9366dd72d5" x="317.323636" y="307.584" style="stroke: #000000; stroke-width: 0.5"/>
      </g>
     </g>
    </g>
    <g id="xtick_24">
     <g id="line2d_31">
      <g>
       <use xlink:href="#m9366dd72d5" x="342.954258" y="307.584" style="stroke: #000000; stroke-width: 0.5"/>
      </g>
     </g>
    </g>
    <g id="xtick_25">
     <g id="line2d_32">
      <g>
       <use xlink:href="#m9366dd72d5" x="355.769569" y="307.584" style="stroke: #000000; stroke-width: 0.5"/>
      </g>
     </g>
    </g>
    <g id="xtick_26">
     <g id="line2d_33">
      <g>
       <use xlink:href="#m9366dd72d5" x="368.58488" y="307.584" style="stroke: #000000; stroke-width: 0.5"/>
      </g>
     </g>
    </g>
    <g id="xtick_27">
     <g id="line2d_34">
      <g>
       <use xlink:href="#m9366dd72d5" x="394.215502" y="307.584" style="stroke: #000000; stroke-width: 0.5"/>
      </g>
     </g>
    </g>
    <g id="xtick_28">
     <g id="line2d_35">
      <g>
       <use xlink:href="#m9366dd72d5" x="407.030813" y="307.584" style="stroke: #000000; stroke-width: 0.5"/>
      </g>
     </g>
    </g>
    <g id="text_8">
     <!-- Nombre d'utilisateurs ($n$) -->
     <g transform="translate(180.21 331.462125)">
      <text>
       <tspan x="0" y="-0.5" style="font-size: 10px; font-family: 'cmr10'">N</tspan>
       <tspan x="7.5" y="-0.5" style="font-size: 10px; font-family: 'cmr10'">o</tspan>
       <tspan x="12.5" y="-0.5" style="font-size: 10px; font-family: 'cmr10'">m</tspan>
       <tspan x="20.830078" y="-0.5" style="font-size: 10px; font-family: 'cmr10'">b</tspan>
       <tspan x="26.381836" y="-0.5" style="font-size: 10px; font-family: 'cmr10'">r</tspan>
       <tspan x="30.292969" y="-0.5" style="font-size: 10px; font-family: 'cmr10'">e</tspan>
       <tspan x="34.731445" y="-0.5" style="font-size: 10px; font-family: 'cmr10'"> </tspan>
       <tspan x="38.061523" y="-0.5" style="font-size: 10px; font-family: 'cmr10'">d</tspan>
       <tspan x="43.613281" y="-0.5" style="font-size: 10px; font-family: 'cmr10'">'</tspan>
       <tspan x="46.381836" y="-0.5" style="font-size: 10px; font-family: 'cmr10'">u</tspan>
       <tspan x="51.933594" y="-0.5" style="font-size: 10px; font-family: 'cmr10'">t</tspan>
       <tspan x="55.81543" y="-0.5" style="font-size: 10px; font-family: 'cmr10'">i</tspan>
       <tspan x="58.583984" y="-0.5" style="font-size: 10px; font-family: 'cmr10'">l</tspan>
       <tspan x="61.352539" y="-0.5" style="font-size: 10px; font-family: 'cmr10'">i</tspan>
       <tspan x="64.121094" y="-0.5" style="font-size: 10px; font-family: 'cmr10'">s</tspan>
       <tspan x="68.061523" y="-0.5" style="font-size: 10px; font-family: 'cmr10'">a</tspan>
       <tspan x="73.061523" y="-0.5" style="font-size: 10px; font-family: 'cmr10'">t</tspan>
       <tspan x="76.943359" y="-0.5" style="font-size: 10px; font-family: 'cmr10'">e</tspan>
       <tspan x="81.381836" y="-0.5" style="font-size: 10px; font-family: 'cmr10'">u</tspan>
       <tspan x="86.933594" y="-0.5" style="font-size: 10px; font-family: 'cmr10'">r</tspan>
       <tspan x="90.844727" y="-0.5" style="font-size: 10px; font-family: 'cmr10'">s</tspan>
       <tspan x="94.785156" y="-0.5" style="font-size: 10px; font-family: 'cmr10'"> </tspan>
       <tspan x="98.115234" y="-0.5" style="font-size: 10px; font-family: 'cmr10'">(</tspan>
       <tspan x="107.998047" y="-0.5" style="font-size: 10px; font-family: 'cmr10'">)</tspan>
       <tspan x="101.99707" y="-0.5" style="font-size: 10px; font-family: 'cmmi10'">n</tspan>
      </text>
     </g>
    </g>
   </g>
   <g id="matplotlib.axis_2">
    <g id="ytick_1">
     <g id="line2d_36">
      <path d="M 57.6 295.488 
L 414.72 295.488 
" clip-path="url(#pcf87870cd0)" style="fill: none; stroke: #b0b0b0; stroke-width: 0.5; stroke-linecap: square"/>
     </g>
     <g id="line2d_37">
      <defs>
       <path id="m8e40e7b855" d="M 0 0 
L 3 0 
" style="stroke: #000000; stroke-width: 0.5"/>
      </defs>
      <g>
       <use xlink:href="#m8e40e7b855" x="57.6" y="295.488" style="stroke: #000000; stroke-width: 0.5"/>
      </g>
     </g>
     <g id="text_9">
      <!-- $\mathdefault{0}$ -->
      <g transform="translate(49.1 298.957531)">
       <text>
        <tspan x="0" y="-0.34375" style="font-size: 10px; font-family: 'cmr10'">0</tspan>
       </text>
      </g>
     </g>
    </g>
    <g id="ytick_2">
     <g id="line2d_38">
      <path d="M 57.6 258.700345 
L 414.72 258.700345 
" clip-path="url(#pcf87870cd0)" style="fill: none; stroke: #b0b0b0; stroke-width: 0.5; stroke-linecap: square"/>
     </g>
     <g id="line2d_39">
      <g>
       <use xlink:href="#m8e40e7b855" x="57.6" y="258.700345" style="stroke: #000000; stroke-width: 0.5"/>
      </g>
     </g>
     <g id="text_10">
      <!-- $\mathdefault{1}$ -->
      <g transform="translate(49.1 262.169876)">
       <text>
        <tspan x="0" y="-0.34375" style="font-size: 10px; font-family: 'cmr10'">1</tspan>
       </text>
      </g>
     </g>
    </g>
    <g id="ytick_3">
     <g id="line2d_40">
      <path d="M 57.6 221.91269 
L 414.72 221.91269 
" clip-path="url(#pcf87870cd0)" style="fill: none; stroke: #b0b0b0; stroke-width: 0.5; stroke-linecap: square"/>
     </g>
     <g id="line2d_41">
      <g>
       <use xlink:href="#m8e40e7b855" x="57.6" y="221.91269" style="stroke: #000000; stroke-width: 0.5"/>
      </g>
     </g>
     <g id="text_11">
      <!-- $\mathdefault{2}$ -->
      <g transform="translate(49.1 225.382221)">
       <text>
        <tspan x="0" y="-0.34375" style="font-size: 10px; font-family: 'cmr10'">2</tspan>
       </text>
      </g>
     </g>
    </g>
    <g id="ytick_4">
     <g id="line2d_42">
      <path d="M 57.6 185.125034 
L 414.72 185.125034 
" clip-path="url(#pcf87870cd0)" style="fill: none; stroke: #b0b0b0; stroke-width: 0.5; stroke-linecap: square"/>
     </g>
     <g id="line2d_43">
      <g>
       <use xlink:href="#m8e40e7b855" x="57.6" y="185.125034" style="stroke: #000000; stroke-width: 0.5"/>
      </g>
     </g>
     <g id="text_12">
      <!-- $\mathdefault{3}$ -->
      <g transform="translate(49.1 188.594566)">
       <text>
        <tspan x="0" y="-0.34375" style="font-size: 10px; font-family: 'cmr10'">3</tspan>
       </text>
      </g>
     </g>
    </g>
    <g id="ytick_5">
     <g id="line2d_44">
      <path d="M 57.6 148.337379 
L 414.72 148.337379 
" clip-path="url(#pcf87870cd0)" style="fill: none; stroke: #b0b0b0; stroke-width: 0.5; stroke-linecap: square"/>
     </g>
     <g id="line2d_45">
      <g>
       <use xlink:href="#m8e40e7b855" x="57.6" y="148.337379" style="stroke: #000000; stroke-width: 0.5"/>
      </g>
     </g>
     <g id="text_13">
      <!-- $\mathdefault{4}$ -->
      <g transform="translate(49.1 151.80691)">
       <text>
        <tspan x="0" y="-0.34375" style="font-size: 10px; font-family: 'cmr10'">4</tspan>
       </text>
      </g>
     </g>
    </g>
    <g id="ytick_6">
     <g id="line2d_46">
      <path d="M 57.6 111.549724 
L 414.72 111.549724 
" clip-path="url(#pcf87870cd0)" style="fill: none; stroke: #b0b0b0; stroke-width: 0.5; stroke-linecap: square"/>
     </g>
     <g id="line2d_47">
      <g>
       <use xlink:href="#m8e40e7b855" x="57.6" y="111.549724" style="stroke: #000000; stroke-width: 0.5"/>
      </g>
     </g>
     <g id="text_14">
      <!-- $\mathdefault{5}$ -->
      <g transform="translate(49.1 115.019255)">
       <text>
        <tspan x="0" y="-0.34375" style="font-size: 10px; font-family: 'cmr10'">5</tspan>
       </text>
      </g>
     </g>
    </g>
    <g id="ytick_7">
     <g id="line2d_48">
      <path d="M 57.6 74.762069 
L 414.72 74.762069 
" clip-path="url(#pcf87870cd0)" style="fill: none; stroke: #b0b0b0; stroke-width: 0.5; stroke-linecap: square"/>
     </g>
     <g id="line2d_49">
      <g>
       <use xlink:href="#m8e40e7b855" x="57.6" y="74.762069" style="stroke: #000000; stroke-width: 0.5"/>
      </g>
     </g>
     <g id="text_15">
      <!-- $\mathdefault{6}$ -->
      <g transform="translate(49.1 78.2316)">
       <text>
        <tspan x="0" y="-0.34375" style="font-size: 10px; font-family: 'cmr10'">6</tspan>
       </text>
      </g>
     </g>
    </g>
    <g id="ytick_8">
     <g id="line2d_50">
      <defs>
       <path id="m48fbbedb2f" d="M 0 0 
L 1.5 0 
" style="stroke: #000000; stroke-width: 0.5"/>
      </defs>
      <g>
       <use xlink:href="#m48fbbedb2f" x="57.6" y="302.845531" style="stroke: #000000; stroke-width: 0.5"/>
      </g>
     </g>
    </g>
    <g id="ytick_9">
     <g id="line2d_51">
      <g>
       <use xlink:href="#m48fbbedb2f" x="57.6" y="288.130469" style="stroke: #000000; stroke-width: 0.5"/>
      </g>
     </g>
    </g>
    <g id="ytick_10">
     <g id="line2d_52">
      <g>
       <use xlink:href="#m48fbbedb2f" x="57.6" y="280.772938" style="stroke: #000000; stroke-width: 0.5"/>
      </g>
     </g>
    </g>
    <g id="ytick_11">
     <g id="line2d_53">
      <g>
       <use xlink:href="#m48fbbedb2f" x="57.6" y="273.415407" style="stroke: #000000; stroke-width: 0.5"/>
      </g>
     </g>
    </g>
    <g id="ytick_12">
     <g id="line2d_54">
      <g>
       <use xlink:href="#m48fbbedb2f" x="57.6" y="266.057876" style="stroke: #000000; stroke-width: 0.5"/>
      </g>
     </g>
    </g>
    <g id="ytick_13">
     <g id="line2d_55">
      <g>
       <use xlink:href="#m48fbbedb2f" x="57.6" y="251.342814" style="stroke: #000000; stroke-width: 0.5"/>
      </g>
     </g>
    </g>
    <g id="ytick_14">
     <g id="line2d_56">
      <g>
       <use xlink:href="#m48fbbedb2f" x="57.6" y="243.985283" style="stroke: #000000; stroke-width: 0.5"/>
      </g>
     </g>
    </g>
    <g id="ytick_15">
     <g id="line2d_57">
      <g>
       <use xlink:href="#m48fbbedb2f" x="57.6" y="236.627752" style="stroke: #000000; stroke-width: 0.5"/>
      </g>
     </g>
    </g>
    <g id="ytick_16">
     <g id="line2d_58">
      <g>
       <use xlink:href="#m48fbbedb2f" x="57.6" y="229.270221" style="stroke: #000000; stroke-width: 0.5"/>
      </g>
     </g>
    </g>
    <g id="ytick_17">
     <g id="line2d_59">
      <g>
       <use xlink:href="#m48fbbedb2f" x="57.6" y="214.555159" style="stroke: #000000; stroke-width: 0.5"/>
      </g>
     </g>
    </g>
    <g id="ytick_18">
     <g id="line2d_60">
      <g>
       <use xlink:href="#m48fbbedb2f" x="57.6" y="207.197628" style="stroke: #000000; stroke-width: 0.5"/>
      </g>
     </g>
    </g>
    <g id="ytick_19">
     <g id="line2d_61">
      <g>
       <use xlink:href="#m48fbbedb2f" x="57.6" y="199.840096" style="stroke: #000000; stroke-width: 0.5"/>
      </g>
     </g>
    </g>
    <g id="ytick_20">
     <g id="line2d_62">
      <g>
       <use xlink:href="#m48fbbedb2f" x="57.6" y="192.482565" style="stroke: #000000; stroke-width: 0.5"/>
      </g>
     </g>
    </g>
    <g id="ytick_21">
     <g id="line2d_63">
      <g>
       <use xlink:href="#m48fbbedb2f" x="57.6" y="177.767503" style="stroke: #000000; stroke-width: 0.5"/>
      </g>
     </g>
    </g>
    <g id="ytick_22">
     <g id="line2d_64">
      <g>
       <use xlink:href="#m48fbbedb2f" x="57.6" y="170.409972" style="stroke: #000000; stroke-width: 0.5"/>
      </g>
     </g>
    </g>
    <g id="ytick_23">
     <g id="line2d_65">
      <g>
       <use xlink:href="#m48fbbedb2f" x="57.6" y="163.052441" style="stroke: #000000; stroke-width: 0.5"/>
      </g>
     </g>
    </g>
    <g id="ytick_24">
     <g id="line2d_66">
      <g>
       <use xlink:href="#m48fbbedb2f" x="57.6" y="155.69491" style="stroke: #000000; stroke-width: 0.5"/>
      </g>
     </g>
    </g>
    <g id="ytick_25">
     <g id="line2d_67">
      <g>
       <use xlink:href="#m48fbbedb2f" x="57.6" y="140.979848" style="stroke: #000000; stroke-width: 0.5"/>
      </g>
     </g>
    </g>
    <g id="ytick_26">
     <g id="line2d_68">
      <g>
       <use xlink:href="#m48fbbedb2f" x="57.6" y="133.622317" style="stroke: #000000; stroke-width: 0.5"/>
      </g>
     </g>
    </g>
    <g id="ytick_27">
     <g id="line2d_69">
      <g>
       <use xlink:href="#m48fbbedb2f" x="57.6" y="126.264786" style="stroke: #000000; stroke-width: 0.5"/>
      </g>
     </g>
    </g>
    <g id="ytick_28">
     <g id="line2d_70">
      <g>
       <use xlink:href="#m48fbbedb2f" x="57.6" y="118.907255" style="stroke: #000000; stroke-width: 0.5"/>
      </g>
     </g>
    </g>
    <g id="ytick_29">
     <g id="line2d_71">
      <g>
       <use xlink:href="#m48fbbedb2f" x="57.6" y="104.192193" style="stroke: #000000; stroke-width: 0.5"/>
      </g>
     </g>
    </g>
    <g id="ytick_30">
     <g id="line2d_72">
      <g>
       <use xlink:href="#m48fbbedb2f" x="57.6" y="96.834662" style="stroke: #000000; stroke-width: 0.5"/>
      </g>
     </g>
    </g>
    <g id="ytick_31">
     <g id="line2d_73">
      <g>
       <use xlink:href="#m48fbbedb2f" x="57.6" y="89.477131" style="stroke: #000000; stroke-width: 0.5"/>
      </g>
     </g>
    </g>
    <g id="ytick_32">
     <g id="line2d_74">
      <g>
       <use xlink:href="#m48fbbedb2f" x="57.6" y="82.1196" style="stroke: #000000; stroke-width: 0.5"/>
      </g>
     </g>
    </g>
    <g id="ytick_33">
     <g id="line2d_75">
      <g>
       <use xlink:href="#m48fbbedb2f" x="57.6" y="67.404538" style="stroke: #000000; stroke-width: 0.5"/>
      </g>
     </g>
    </g>
    <g id="ytick_34">
     <g id="line2d_76">
      <g>
       <use xlink:href="#m48fbbedb2f" x="57.6" y="60.047007" style="stroke: #000000; stroke-width: 0.5"/>
      </g>
     </g>
    </g>
    <g id="ytick_35">
     <g id="line2d_77">
      <g>
       <use xlink:href="#m48fbbedb2f" x="57.6" y="52.689476" style="stroke: #000000; stroke-width: 0.5"/>
      </g>
     </g>
    </g>
    <g id="ytick_36">
     <g id="line2d_78">
      <g>
       <use xlink:href="#m48fbbedb2f" x="57.6" y="45.331945" style="stroke: #000000; stroke-width: 0.5"/>
      </g>
     </g>
    </g>
    <g id="text_16">
     <text style="font-size: 10px; font-family: 'cmr10', serif; text-anchor: middle" x="43.160938" y="174.528" transform="rotate(-90 43.160938 174.528)">Nombre de chiffrements totaux</text>
    </g>
    <g id="text_17">
     <!-- $\times\mathdefault{10^{6}}\mathdefault{}$ -->
     <g transform="translate(57.6 38.472)">
      <text>
       <tspan x="0" y="-0.425625" style="font-size: 10px; font-family: 'cmsy10'">x</tspan>
       <tspan x="7.768555" y="-0.425625" style="font-size: 10px; font-family: 'cmr10'">1</tspan>
       <tspan x="12.768555" y="-0.425625" style="font-size: 10px; font-family: 'cmr10'">0</tspan>
       <tspan x="18.225305" y="-4.340625" style="font-size: 7px; font-family: 'cmr10'">6</tspan>
      </text>
     </g>
    </g>
   </g>
   <g id="line2d_79">
    <path d="M 73.832727 295.488 
L 90.919809 294.827529 
L 108.00689 292.806526 
L 125.093971 289.539164 
L 142.181053 284.753863 
L 159.268134 278.83545 
L 176.355215 271.519224 
L 193.442297 262.771215 
L 210.529378 252.898291 
L 227.616459 241.410515 
L 244.703541 228.594733 
L 261.790622 214.922991 
L 278.877703 199.760929 
L 295.964785 182.850101 
L 313.051866 165.304353 
L 330.138947 144.530048 
L 347.226029 125.8552 
L 364.31311 100.965467 
L 381.400191 79.509464 
L 398.487273 55.539143 
" clip-path="url(#pcf87870cd0)" style="fill: none; stroke: #ff0000; stroke-linecap: square"/>
   </g>
   <g id="line2d_80">
    <path d="M 73.832727 295.488 
L 90.919809 295.101807 
L 108.00689 294.555411 
L 125.093971 293.953705 
L 142.181053 293.299907 
L 159.268134 292.625571 
L 176.355215 291.926731 
L 193.442297 291.211865 
L 210.529378 290.478688 
L 227.616459 289.718548 
L 244.703541 288.941357 
L 261.790622 288.176089 
L 278.877703 287.399255 
L 295.964785 286.611348 
L 313.051866 285.80937 
L 330.138947 284.984974 
L 347.226029 284.18116 
L 364.31311 283.311132 
L 381.400191 282.482766 
L 398.487273 281.63648 
" clip-path="url(#pcf87870cd0)" style="fill: none; stroke: #0000ff; stroke-linecap: square"/>
   </g>
   <g id="line2d_81">
    <path d="M 73.832727 295.488 
L 90.919809 295.122757 
L 108.00689 294.596286 
L 125.093971 294.00524 
L 142.181053 293.386148 
L 159.268134 292.716194 
L 176.355215 292.037892 
L 193.442297 291.346736 
L 210.529378 290.637055 
L 227.616459 289.887926 
L 244.703541 289.106409 
L 261.790622 288.35828 
L 278.877703 287.612065 
L 295.964785 286.84914 
L 313.051866 286.080219 
L 330.138947 285.312947 
L 347.226029 284.505263 
L 364.31311 283.675182 
L 381.400191 282.812644 
L 398.487273 281.973786 
" clip-path="url(#pcf87870cd0)" style="fill: none; stroke: #1f77b4; stroke-linecap: square"/>
   </g>
   <g id="line2d_82">
    <path d="M 73.832727 295.488 
L 90.919809 295.112696 
L 108.00689 294.559494 
L 125.093971 293.937562 
L 142.181053 293.276882 
L 159.268134 292.563959 
L 176.355215 291.858515 
L 193.442297 291.145192 
L 210.529378 290.376028 
L 227.616459 289.614498 
L 244.703541 288.78942 
L 261.790622 287.987519 
L 278.877703 287.22191 
L 295.964785 286.442489 
L 313.051866 285.67117 
L 330.138947 284.829314 
L 347.226029 283.99469 
L 364.31311 283.114424 
L 381.400191 282.218295 
L 398.487273 281.307775 
" clip-path="url(#pcf87870cd0)" style="fill: none; stroke: #ff7f0e; stroke-linecap: square"/>
   </g>
   <g id="line2d_83">
    <path d="M 73.832727 295.488 
L 90.919809 294.822791 
L 108.00689 292.883342 
L 125.093971 291.771417 
L 142.181053 290.531897 
L 159.268134 289.157908 
L 176.355215 287.813771 
L 193.442297 286.393139 
L 210.529378 284.988766 
L 227.616459 283.530614 
L 244.703541 282.061231 
L 261.790622 280.630022 
L 278.877703 279.088917 
L 295.964785 277.620725 
L 313.051866 276.126135 
L 330.138947 274.593333 
L 347.226029 273.073164 
L 364.31311 271.558793 
L 381.400191 269.951709 
L 398.487273 268.39185 
" clip-path="url(#pcf87870cd0)" style="fill: none; stroke: #2ca02c; stroke-linecap: square"/>
   </g>
   <g id="line2d_84">
    <path d="M 73.832727 295.488 
L 90.919809 294.822791 
L 108.00689 292.842791 
L 125.093971 289.442405 
L 142.181053 284.805586 
L 159.268134 283.186076 
L 176.355215 281.206083 
L 193.442297 279.270824 
L 210.529378 277.154063 
L 227.616459 274.909059 
L 244.703541 272.642667 
L 261.790622 270.514895 
L 278.877703 268.143225 
L 295.964785 265.809717 
L 313.051866 263.499854 
L 330.138947 261.162039 
L 347.226029 258.798623 
L 364.31311 256.521107 
L 381.400191 253.980356 
L 398.487273 251.541364 
" clip-path="url(#pcf87870cd0)" style="fill: none; stroke: #d62728; stroke-linecap: square"/>
   </g>
   <g id="patch_3">
    <path d="M 57.6 307.584 
L 57.6 41.472 
" style="fill: none; stroke: #000000; stroke-width: 0.5; stroke-linejoin: miter; stroke-linecap: square"/>
   </g>
   <g id="patch_4">
    <path d="M 414.72 307.584 
L 414.72 41.472 
" style="fill: none; stroke: #000000; stroke-width: 0.5; stroke-linejoin: miter; stroke-linecap: square"/>
   </g>
   <g id="patch_5">
    <path d="M 57.6 307.584 
L 414.72 307.584 
" style="fill: none; stroke: #000000; stroke-width: 0.5; stroke-linejoin: miter; stroke-linecap: square"/>
   </g>
   <g id="patch_6">
    <path d="M 57.6 41.472 
L 414.72 41.472 
" style="fill: none; stroke: #000000; stroke-width: 0.5; stroke-linejoin: miter; stroke-linecap: square"/>
   </g>
   <g id="legend_1">
    <g id="line2d_85">
     <path d="M 66.6 53.972 
L 76.6 53.972 
L 86.6 53.972 
" style="fill: none; stroke: #ff0000; stroke-linecap: square"/>
    </g>
    <g id="text_18">
     <text style="font-size: 10px; font-family: 'cmr10', serif; text-anchor: start" x="94.6" y="57.472" transform="rotate(-0 94.6 57.472)">Unicast uniquement</text>
    </g>
    <g id="line2d_86">
     <path d="M 66.6 67.911063 
L 76.6 67.911063 
L 86.6 67.911063 
" style="fill: none; stroke: #0000ff; stroke-linecap: square"/>
    </g>
    <g id="text_19">
     <text style="font-size: 10px; font-family: 'cmr10', serif; text-anchor: start" x="94.6" y="71.411063" transform="rotate(-0 94.6 71.411063)">LKH</text>
    </g>
    <g id="line2d_87">
     <path d="M 66.6 81.850125 
L 76.6 81.850125 
L 86.6 81.850125 
" style="fill: none; stroke: #1f77b4; stroke-linecap: square"/>
    </g>
    <g id="text_20">
     <text style="font-size: 10px; font-family: 'cmr10', serif; text-anchor: start" x="94.6" y="85.350125" transform="rotate(-0 94.6 85.350125)">LKH+ avec max_user = 2</text>
    </g>
    <g id="line2d_88">
     <path d="M 66.6 95.789188 
L 76.6 95.789188 
L 86.6 95.789188 
" style="fill: none; stroke: #ff7f0e; stroke-linecap: square"/>
    </g>
    <g id="text_21">
     <text style="font-size: 10px; font-family: 'cmr10', serif; text-anchor: start" x="94.6" y="99.289188" transform="rotate(-0 94.6 99.289188)">LKH+ avec max_user = 8</text>
    </g>
    <g id="line2d_89">
     <path d="M 66.6 109.72825 
L 76.6 109.72825 
L 86.6 109.72825 
" style="fill: none; stroke: #2ca02c; stroke-linecap: square"/>
    </g>
    <g id="text_22">
     <text style="font-size: 10px; font-family: 'cmr10', serif; text-anchor: start" x="94.6" y="113.22825" transform="rotate(-0 94.6 113.22825)">LKH+ avec max_user = 64</text>
    </g>
    <g id="line2d_90">
     <path d="M 66.6 123.667313 
L 76.6 123.667313 
L 86.6 123.667313 
" style="fill: none; stroke: #d62728; stroke-linecap: square"/>
    </g>
    <g id="text_23">
     <text style="font-size: 10px; font-family: 'cmr10', serif; text-anchor: start" x="94.6" y="127.167313" transform="rotate(-0 94.6 127.167313)">LKH+ avec max_user = 128</text>
    </g>
   </g>
  </g>
  <g id="text_24">
   <!-- Nombre de chiffrements pour $15n$ actions équiprobables -->
   <g transform="translate(83.4 15.432)">
    <text>
     <tspan x="0" y="-0.53125" style="font-size: 12px; font-family: 'cmr10'">N</tspan>
     <tspan x="9" y="-0.53125" style="font-size: 12px; font-family: 'cmr10'">o</tspan>
     <tspan x="15" y="-0.53125" style="font-size: 12px; font-family: 'cmr10'">m</tspan>
     <tspan x="24.996094" y="-0.53125" style="font-size: 12px; font-family: 'cmr10'">b</tspan>
     <tspan x="31.658203" y="-0.53125" style="font-size: 12px; font-family: 'cmr10'">r</tspan>
     <tspan x="36.351562" y="-0.53125" style="font-size: 12px; font-family: 'cmr10'">e</tspan>
     <tspan x="41.677734" y="-0.53125" style="font-size: 12px; font-family: 'cmr10'"> </tspan>
     <tspan x="45.673828" y="-0.53125" style="font-size: 12px; font-family: 'cmr10'">d</tspan>
     <tspan x="52.335938" y="-0.53125" style="font-size: 12px; font-family: 'cmr10'">e</tspan>
     <tspan x="57.662109" y="-0.53125" style="font-size: 12px; font-family: 'cmr10'"> </tspan>
     <tspan x="61.658203" y="-0.53125" style="font-size: 12px; font-family: 'cmr10'">c</tspan>
     <tspan x="66.984375" y="-0.53125" style="font-size: 12px; font-family: 'cmr10'">h</tspan>
     <tspan x="73.646484" y="-0.53125" style="font-size: 12px; font-family: 'cmr10'">i</tspan>
     <tspan x="76.96875" y="-0.53125" style="font-size: 12px; font-family: 'cmr10'">f</tspan>
     <tspan x="80.630859" y="-0.53125" style="font-size: 12px; font-family: 'cmr10'">f</tspan>
     <tspan x="84.292969" y="-0.53125" style="font-size: 12px; font-family: 'cmr10'">r</tspan>
     <tspan x="88.986328" y="-0.53125" style="font-size: 12px; font-family: 'cmr10'">e</tspan>
     <tspan x="94.3125" y="-0.53125" style="font-size: 12px; font-family: 'cmr10'">m</tspan>
     <tspan x="104.308594" y="-0.53125" style="font-size: 12px; font-family: 'cmr10'">e</tspan>
     <tspan x="109.634766" y="-0.53125" style="font-size: 12px; font-family: 'cmr10'">n</tspan>
     <tspan x="116.296875" y="-0.53125" style="font-size: 12px; font-family: 'cmr10'">t</tspan>
     <tspan x="120.955078" y="-0.53125" style="font-size: 12px; font-family: 'cmr10'">s</tspan>
     <tspan x="125.683594" y="-0.53125" style="font-size: 12px; font-family: 'cmr10'"> </tspan>
     <tspan x="129.679688" y="-0.53125" style="font-size: 12px; font-family: 'cmr10'">p</tspan>
     <tspan x="136.341797" y="-0.53125" style="font-size: 12px; font-family: 'cmr10'">o</tspan>
     <tspan x="142.341797" y="-0.53125" style="font-size: 12px; font-family: 'cmr10'">u</tspan>
     <tspan x="149.003906" y="-0.53125" style="font-size: 12px; font-family: 'cmr10'">r</tspan>
     <tspan x="153.697266" y="-0.53125" style="font-size: 12px; font-family: 'cmr10'"> </tspan>
     <tspan x="157.693359" y="-0.53125" style="font-size: 12px; font-family: 'cmr10'">1</tspan>
     <tspan x="163.693359" y="-0.53125" style="font-size: 12px; font-family: 'cmr10'">5</tspan>
     <tspan x="176.894531" y="-0.53125" style="font-size: 12px; font-family: 'cmr10'"> </tspan>
     <tspan x="180.890625" y="-0.53125" style="font-size: 12px; font-family: 'cmr10'">a</tspan>
     <tspan x="186.890625" y="-0.53125" style="font-size: 12px; font-family: 'cmr10'">c</tspan>
     <tspan x="192.216797" y="-0.53125" style="font-size: 12px; font-family: 'cmr10'">t</tspan>
     <tspan x="196.875" y="-0.53125" style="font-size: 12px; font-family: 'cmr10'">i</tspan>
     <tspan x="200.197266" y="-0.53125" style="font-size: 12px; font-family: 'cmr10'">o</tspan>
     <tspan x="206.197266" y="-0.53125" style="font-size: 12px; font-family: 'cmr10'">n</tspan>
     <tspan x="212.859375" y="-0.53125" style="font-size: 12px; font-family: 'cmr10'">s</tspan>
     <tspan x="217.587891" y="-0.53125" style="font-size: 12px; font-family: 'cmr10'"> </tspan>
     <tspan x="227.583969" y="-0.53125" style="font-size: 12px; font-family: 'cmr10'">q</tspan>
     <tspan x="233.906235" y="-0.53125" style="font-size: 12px; font-family: 'cmr10'">u</tspan>
     <tspan x="240.568344" y="-0.53125" style="font-size: 12px; font-family: 'cmr10'">i</tspan>
     <tspan x="243.89061" y="-0.53125" style="font-size: 12px; font-family: 'cmr10'">p</tspan>
     <tspan x="250.552719" y="-0.53125" style="font-size: 12px; font-family: 'cmr10'">r</tspan>
     <tspan x="255.246078" y="-0.53125" style="font-size: 12px; font-family: 'cmr10'">o</tspan>
     <tspan x="261.246078" y="-0.53125" style="font-size: 12px; font-family: 'cmr10'">b</tspan>
     <tspan x="267.908188" y="-0.53125" style="font-size: 12px; font-family: 'cmr10'">a</tspan>
     <tspan x="273.908188" y="-0.53125" style="font-size: 12px; font-family: 'cmr10'">b</tspan>
     <tspan x="280.570297" y="-0.53125" style="font-size: 12px; font-family: 'cmr10'">l</tspan>
     <tspan x="283.892563" y="-0.53125" style="font-size: 12px; font-family: 'cmr10'">e</tspan>
     <tspan x="289.218735" y="-0.53125" style="font-size: 12px; font-family: 'cmr10'">s</tspan>
     <tspan x="169.693359" y="-0.53125" style="font-size: 12px; font-family: 'cmmi10'">n</tspan>
     <tspan x="221.583984" y="-0.53125" style="font-size: 12px; font-family: 'STIXGeneral'">é</tspan>
    </text>
   </g>
  </g>
 </g>
 <defs>
  <clipPath id="pcf87870cd0">
   <rect x="57.6" y="41.472" width="357.12" height="266.112"/>
  </clipPath>
 </defs>
</svg>
