<?xml version="1.0" encoding="utf-8" standalone="no"?>
<!DOCTYPE svg PUBLIC "-//W3C//DTD SVG 1.1//EN"
  "http://www.w3.org/Graphics/SVG/1.1/DTD/svg11.dtd">
<svg xmlns:xlink="http://www.w3.org/1999/xlink" width="1440pt" height="720pt" viewBox="0 0 1440 720" xmlns="http://www.w3.org/2000/svg" version="1.1">
 <metadata>
  <rdf:RDF xmlns:dc="http://purl.org/dc/elements/1.1/" xmlns:cc="http://creativecommons.org/ns#" xmlns:rdf="http://www.w3.org/1999/02/22-rdf-syntax-ns#">
   <cc:Work>
    <dc:type rdf:resource="http://purl.org/dc/dcmitype/StillImage"/>
    <dc:date>2026-04-15T10:46:17.361043</dc:date>
    <dc:format>image/svg+xml</dc:format>
    <dc:creator>
     <cc:Agent>
      <dc:title>Matplotlib v3.10.8, https://matplotlib.org/</dc:title>
     </cc:Agent>
    </dc:creator>
   </cc:Work>
  </rdf:RDF>
 </metadata>
 <defs>
  <style type="text/css">*{stroke-linejoin: round; stroke-linecap: butt}</style>
 </defs>
 <g id="figure_1">
  <g id="patch_1">
   <path d="M 0 720 
L 1440 720 
L 1440 0 
L 0 0 
z
" style="fill: #ffffff"/>
  </g>
  <g id="axes_1">
   <g id="line2d_1">
    <path d="M 738 94.208451 
L 514.8 172.292958 
" clip-path="url(#p1ce2dd149d)" style="fill: none; stroke: #000000; stroke-width: 1.5; stroke-linecap: square"/>
   </g>
   <g id="line2d_2">
    <path d="M 514.8 172.292958 
L 403.2 250.377465 
" clip-path="url(#p1ce2dd149d)" style="fill: none; stroke: #000000; stroke-width: 1.5; stroke-linecap: square"/>
   </g>
   <g id="line2d_3">
    <path d="M 403.2 250.377465 
L 347.4 328.461972 
" clip-path="url(#p1ce2dd149d)" style="fill: none; stroke: #000000; stroke-width: 1.5; stroke-linecap: square"/>
   </g>
   <g id="line2d_4">
    <path d="M 347.4 328.461972 
L 319.5 406.546479 
" clip-path="url(#p1ce2dd149d)" style="fill: none; stroke: #000000; stroke-width: 1.5; stroke-linecap: square"/>
   </g>
   <g id="line2d_5">
    <path d="M 319.5 406.546479 
L 305.55 484.630986 
" clip-path="url(#p1ce2dd149d)" style="fill: none; stroke: #000000; stroke-width: 1.5; stroke-linecap: square"/>
   </g>
   <g id="line2d_6">
    <path d="M 319.5 406.546479 
L 333.45 484.630986 
" clip-path="url(#p1ce2dd149d)" style="fill: none; stroke: #000000; stroke-width: 1.5; stroke-linecap: square"/>
   </g>
   <g id="line2d_7">
    <path d="M 347.4 328.461972 
L 375.3 406.546479 
" clip-path="url(#p1ce2dd149d)" style="fill: none; stroke: #000000; stroke-width: 1.5; stroke-linecap: square"/>
   </g>
   <g id="line2d_8">
    <path d="M 375.3 406.546479 
L 361.35 484.630986 
" clip-path="url(#p1ce2dd149d)" style="fill: none; stroke: #000000; stroke-width: 1.5; stroke-linecap: square"/>
   </g>
   <g id="line2d_9">
    <path d="M 375.3 406.546479 
L 389.25 484.630986 
" clip-path="url(#p1ce2dd149d)" style="fill: none; stroke: #000000; stroke-width: 1.5; stroke-linecap: square"/>
   </g>
   <g id="line2d_10">
    <path d="M 403.2 250.377465 
L 459 328.461972 
" clip-path="url(#p1ce2dd149d)" style="fill: none; stroke: #000000; stroke-width: 1.5; stroke-linecap: square"/>
   </g>
   <g id="line2d_11">
    <path d="M 459 328.461972 
L 431.1 406.546479 
" clip-path="url(#p1ce2dd149d)" style="fill: none; stroke: #000000; stroke-width: 1.5; stroke-linecap: square"/>
   </g>
   <g id="line2d_12">
    <path d="M 431.1 406.546479 
L 417.15 484.630986 
" clip-path="url(#p1ce2dd149d)" style="fill: none; stroke: #000000; stroke-width: 1.5; stroke-linecap: square"/>
   </g>
   <g id="line2d_13">
    <path d="M 431.1 406.546479 
L 445.05 484.630986 
" clip-path="url(#p1ce2dd149d)" style="fill: none; stroke: #000000; stroke-width: 1.5; stroke-linecap: square"/>
   </g>
   <g id="line2d_14">
    <path d="M 459 328.461972 
L 486.9 406.546479 
" clip-path="url(#p1ce2dd149d)" style="fill: none; stroke: #000000; stroke-width: 1.5; stroke-linecap: square"/>
   </g>
   <g id="line2d_15">
    <path d="M 486.9 406.546479 
L 472.95 484.630986 
" clip-path="url(#p1ce2dd149d)" style="fill: none; stroke: #000000; stroke-width: 1.5; stroke-linecap: square"/>
   </g>
   <g id="line2d_16">
    <path d="M 486.9 406.546479 
L 500.85 484.630986 
" clip-path="url(#p1ce2dd149d)" style="fill: none; stroke: #000000; stroke-width: 1.5; stroke-linecap: square"/>
   </g>
   <g id="line2d_17">
    <path d="M 514.8 172.292958 
L 626.4 250.377465 
" clip-path="url(#p1ce2dd149d)" style="fill: none; stroke: #000000; stroke-width: 1.5; stroke-linecap: square"/>
   </g>
   <g id="line2d_18">
    <path d="M 626.4 250.377465 
L 570.6 328.461972 
" clip-path="url(#p1ce2dd149d)" style="fill: none; stroke: #000000; stroke-width: 1.5; stroke-linecap: square"/>
   </g>
   <g id="line2d_19">
    <path d="M 570.6 328.461972 
L 542.7 406.546479 
" clip-path="url(#p1ce2dd149d)" style="fill: none; stroke: #000000; stroke-width: 1.5; stroke-linecap: square"/>
   </g>
   <g id="line2d_20">
    <path d="M 542.7 406.546479 
L 528.75 484.630986 
" clip-path="url(#p1ce2dd149d)" style="fill: none; stroke: #000000; stroke-width: 1.5; stroke-linecap: square"/>
   </g>
   <g id="line2d_21">
    <path d="M 542.7 406.546479 
L 556.65 484.630986 
" clip-path="url(#p1ce2dd149d)" style="fill: none; stroke: #000000; stroke-width: 1.5; stroke-linecap: square"/>
   </g>
   <g id="line2d_22">
    <path d="M 570.6 328.461972 
L 598.5 406.546479 
" clip-path="url(#p1ce2dd149d)" style="fill: none; stroke: #000000; stroke-width: 1.5; stroke-linecap: square"/>
   </g>
   <g id="line2d_23">
    <path d="M 598.5 406.546479 
L 584.55 484.630986 
" clip-path="url(#p1ce2dd149d)" style="fill: none; stroke: #000000; stroke-width: 1.5; stroke-linecap: square"/>
   </g>
   <g id="line2d_24">
    <path d="M 598.5 406.546479 
L 612.45 484.630986 
" clip-path="url(#p1ce2dd149d)" style="fill: none; stroke: #000000; stroke-width: 1.5; stroke-linecap: square"/>
   </g>
   <g id="line2d_25">
    <path d="M 626.4 250.377465 
L 682.2 328.461972 
" clip-path="url(#p1ce2dd149d)" style="fill: none; stroke: #000000; stroke-width: 1.5; stroke-linecap: square"/>
   </g>
   <g id="line2d_26">
    <path d="M 682.2 328.461972 
L 654.3 406.546479 
" clip-path="url(#p1ce2dd149d)" style="fill: none; stroke: #000000; stroke-width: 1.5; stroke-linecap: square"/>
   </g>
   <g id="line2d_27">
    <path d="M 654.3 406.546479 
L 640.35 484.630986 
" clip-path="url(#p1ce2dd149d)" style="fill: none; stroke: #000000; stroke-width: 1.5; stroke-linecap: square"/>
   </g>
   <g id="line2d_28">
    <path d="M 654.3 406.546479 
L 668.25 484.630986 
" clip-path="url(#p1ce2dd149d)" style="fill: none; stroke: #000000; stroke-width: 1.5; stroke-linecap: square"/>
   </g>
   <g id="line2d_29">
    <path d="M 682.2 328.461972 
L 710.1 406.546479 
" clip-path="url(#p1ce2dd149d)" style="fill: none; stroke: #000000; stroke-width: 1.5; stroke-linecap: square"/>
   </g>
   <g id="line2d_30">
    <path d="M 710.1 406.546479 
L 696.15 484.630986 
" clip-path="url(#p1ce2dd149d)" style="fill: none; stroke: #000000; stroke-width: 1.5; stroke-linecap: square"/>
   </g>
   <g id="line2d_31">
    <path d="M 710.1 406.546479 
L 724.05 484.630986 
" clip-path="url(#p1ce2dd149d)" style="fill: none; stroke: #000000; stroke-width: 1.5; stroke-linecap: square"/>
   </g>
   <g id="line2d_32">
    <path d="M 738 94.208451 
L 961.2 172.292958 
" clip-path="url(#p1ce2dd149d)" style="fill: none; stroke: #000000; stroke-width: 1.5; stroke-linecap: square"/>
   </g>
   <g id="line2d_33">
    <path d="M 961.2 172.292958 
L 849.6 250.377465 
" clip-path="url(#p1ce2dd149d)" style="fill: none; stroke: #000000; stroke-width: 1.5; stroke-linecap: square"/>
   </g>
   <g id="line2d_34">
    <path d="M 849.6 250.377465 
L 793.8 328.461972 
" clip-path="url(#p1ce2dd149d)" style="fill: none; stroke: #000000; stroke-width: 1.5; stroke-linecap: square"/>
   </g>
   <g id="line2d_35">
    <path d="M 793.8 328.461972 
L 765.9 406.546479 
" clip-path="url(#p1ce2dd149d)" style="fill: none; stroke: #000000; stroke-width: 1.5; stroke-linecap: square"/>
   </g>
   <g id="line2d_36">
    <path d="M 765.9 406.546479 
L 751.95 484.630986 
" clip-path="url(#p1ce2dd149d)" style="fill: none; stroke: #000000; stroke-width: 1.5; stroke-linecap: square"/>
   </g>
   <g id="line2d_37">
    <path d="M 765.9 406.546479 
L 779.85 484.630986 
" clip-path="url(#p1ce2dd149d)" style="fill: none; stroke: #000000; stroke-width: 1.5; stroke-linecap: square"/>
   </g>
   <g id="line2d_38">
    <path d="M 793.8 328.461972 
L 821.7 406.546479 
" clip-path="url(#p1ce2dd149d)" style="fill: none; stroke: #000000; stroke-width: 1.5; stroke-linecap: square"/>
   </g>
   <g id="line2d_39">
    <path d="M 821.7 406.546479 
L 807.75 484.630986 
" clip-path="url(#p1ce2dd149d)" style="fill: none; stroke: #000000; stroke-width: 1.5; stroke-linecap: square"/>
   </g>
   <g id="line2d_40">
    <path d="M 821.7 406.546479 
L 835.65 484.630986 
" clip-path="url(#p1ce2dd149d)" style="fill: none; stroke: #000000; stroke-width: 1.5; stroke-linecap: square"/>
   </g>
   <g id="line2d_41">
    <path d="M 849.6 250.377465 
L 905.4 328.461972 
" clip-path="url(#p1ce2dd149d)" style="fill: none; stroke: #000000; stroke-width: 1.5; stroke-linecap: square"/>
   </g>
   <g id="line2d_42">
    <path d="M 905.4 328.461972 
L 877.5 406.546479 
" clip-path="url(#p1ce2dd149d)" style="fill: none; stroke: #000000; stroke-width: 1.5; stroke-linecap: square"/>
   </g>
   <g id="line2d_43">
    <path d="M 877.5 406.546479 
L 863.55 484.630986 
" clip-path="url(#p1ce2dd149d)" style="fill: none; stroke: #000000; stroke-width: 1.5; stroke-linecap: square"/>
   </g>
   <g id="line2d_44">
    <path d="M 877.5 406.546479 
L 891.45 484.630986 
" clip-path="url(#p1ce2dd149d)" style="fill: none; stroke: #000000; stroke-width: 1.5; stroke-linecap: square"/>
   </g>
   <g id="line2d_45">
    <path d="M 905.4 328.461972 
L 933.3 406.546479 
" clip-path="url(#p1ce2dd149d)" style="fill: none; stroke: #000000; stroke-width: 1.5; stroke-linecap: square"/>
   </g>
   <g id="line2d_46">
    <path d="M 933.3 406.546479 
L 919.35 484.630986 
" clip-path="url(#p1ce2dd149d)" style="fill: none; stroke: #000000; stroke-width: 1.5; stroke-linecap: square"/>
   </g>
   <g id="line2d_47">
    <path d="M 933.3 406.546479 
L 947.25 484.630986 
" clip-path="url(#p1ce2dd149d)" style="fill: none; stroke: #000000; stroke-width: 1.5; stroke-linecap: square"/>
   </g>
   <g id="line2d_48">
    <path d="M 961.2 172.292958 
L 1072.8 250.377465 
" clip-path="url(#p1ce2dd149d)" style="fill: none; stroke: #000000; stroke-width: 1.5; stroke-linecap: square"/>
   </g>
   <g id="line2d_49">
    <path d="M 1072.8 250.377465 
L 1017 328.461972 
" clip-path="url(#p1ce2dd149d)" style="fill: none; stroke: #000000; stroke-width: 1.5; stroke-linecap: square"/>
   </g>
   <g id="line2d_50">
    <path d="M 1017 328.461972 
L 989.1 406.546479 
" clip-path="url(#p1ce2dd149d)" style="fill: none; stroke: #000000; stroke-width: 1.5; stroke-linecap: square"/>
   </g>
   <g id="line2d_51">
    <path d="M 989.1 406.546479 
L 975.15 484.630986 
" clip-path="url(#p1ce2dd149d)" style="fill: none; stroke: #000000; stroke-width: 1.5; stroke-linecap: square"/>
   </g>
   <g id="line2d_52">
    <path d="M 989.1 406.546479 
L 1003.05 484.630986 
" clip-path="url(#p1ce2dd149d)" style="fill: none; stroke: #000000; stroke-width: 1.5; stroke-linecap: square"/>
   </g>
   <g id="line2d_53">
    <path d="M 1017 328.461972 
L 1044.9 406.546479 
" clip-path="url(#p1ce2dd149d)" style="fill: none; stroke: #000000; stroke-width: 1.5; stroke-linecap: square"/>
   </g>
   <g id="line2d_54">
    <path d="M 1044.9 406.546479 
L 1030.95 484.630986 
" clip-path="url(#p1ce2dd149d)" style="fill: none; stroke: #000000; stroke-width: 1.5; stroke-linecap: square"/>
   </g>
   <g id="line2d_55">
    <path d="M 1044.9 406.546479 
L 1058.85 484.630986 
" clip-path="url(#p1ce2dd149d)" style="fill: none; stroke: #000000; stroke-width: 1.5; stroke-linecap: square"/>
   </g>
   <g id="line2d_56">
    <path d="M 1072.8 250.377465 
L 1128.6 328.461972 
" clip-path="url(#p1ce2dd149d)" style="fill: none; stroke: #000000; stroke-width: 1.5; stroke-linecap: square"/>
   </g>
   <g id="line2d_57">
    <path d="M 1128.6 328.461972 
L 1100.7 406.546479 
" clip-path="url(#p1ce2dd149d)" style="fill: none; stroke: #000000; stroke-width: 1.5; stroke-linecap: square"/>
   </g>
   <g id="line2d_58">
    <path d="M 1100.7 406.546479 
L 1086.75 484.630986 
" clip-path="url(#p1ce2dd149d)" style="fill: none; stroke: #000000; stroke-width: 1.5; stroke-linecap: square"/>
   </g>
   <g id="line2d_59">
    <path d="M 1100.7 406.546479 
L 1114.65 484.630986 
" clip-path="url(#p1ce2dd149d)" style="fill: none; stroke: #000000; stroke-width: 1.5; stroke-linecap: square"/>
   </g>
   <g id="line2d_60">
    <path d="M 1128.6 328.461972 
L 1156.5 406.546479 
" clip-path="url(#p1ce2dd149d)" style="fill: none; stroke: #000000; stroke-width: 1.5; stroke-linecap: square"/>
   </g>
   <g id="line2d_61">
    <path d="M 1156.5 406.546479 
L 1142.55 484.630986 
" clip-path="url(#p1ce2dd149d)" style="fill: none; stroke: #000000; stroke-width: 1.5; stroke-linecap: square"/>
   </g>
   <g id="line2d_62">
    <path d="M 1156.5 406.546479 
L 1170.45 484.630986 
" clip-path="url(#p1ce2dd149d)" style="fill: none; stroke: #000000; stroke-width: 1.5; stroke-linecap: square"/>
   </g>
   <g id="text_1">
    <g id="patch_2">
     <path d="M 738 102.047513 
C 740.078944 102.047513 742.073019 101.22154 743.543054 99.751505 
C 745.013089 98.28147 745.839063 96.287394 745.839063 94.208451 
C 745.839063 92.129507 745.013089 90.135432 743.543054 88.665396 
C 742.073019 87.195361 740.078944 86.369388 738 86.369388 
C 735.921056 86.369388 733.926981 87.195361 732.456946 88.665396 
C 730.986911 90.135432 730.160938 92.129507 730.160938 94.208451 
C 730.160938 96.287394 730.986911 98.28147 732.456946 99.751505 
C 733.926981 101.22154 735.921056 102.047513 738 102.047513 
z
" style="fill: #f08080; stroke: #000000; stroke-linejoin: miter"/>
    </g>
    <!-- 1 -->
    <g transform="translate(734.81875 96.967826) scale(0.1 -0.1)">
     <defs>
      <path id="DejaVuSans-31" d="M 794 531 
L 1825 531 
L 1825 4091 
L 703 3866 
L 703 4441 
L 1819 4666 
L 2450 4666 
L 2450 531 
L 3481 531 
L 3481 0 
L 794 0 
L 794 531 
z
" transform="scale(0.015625)"/>
     </defs>
     <use xlink:href="#DejaVuSans-31"/>
    </g>
   </g>
   <g id="text_2">
    <!-- 3 -->
    <g transform="translate(735.455 119.841303) scale(0.08 -0.08)">
     <defs>
      <path id="DejaVuSans-33" d="M 2597 2516 
Q 3050 2419 3304 2112 
Q 3559 1806 3559 1356 
Q 3559 666 3084 287 
Q 2609 -91 1734 -91 
Q 1441 -91 1130 -33 
Q 819 25 488 141 
L 488 750 
Q 750 597 1062 519 
Q 1375 441 1716 441 
Q 2309 441 2620 675 
Q 2931 909 2931 1356 
Q 2931 1769 2642 2001 
Q 2353 2234 1838 2234 
L 1294 2234 
L 1294 2753 
L 1863 2753 
Q 2328 2753 2575 2939 
Q 2822 3125 2822 3475 
Q 2822 3834 2567 4026 
Q 2313 4219 1838 4219 
Q 1578 4219 1281 4162 
Q 984 4106 628 3988 
L 628 4550 
Q 988 4650 1302 4700 
Q 1616 4750 1894 4750 
Q 2613 4750 3031 4423 
Q 3450 4097 3450 3541 
Q 3450 3153 3228 2886 
Q 3006 2619 2597 2516 
z
" transform="scale(0.015625)"/>
     </defs>
     <use xlink:href="#DejaVuSans-33"/>
    </g>
   </g>
   <g id="text_3">
    <g id="patch_3">
     <path d="M 514.8 180.13202 
C 516.878944 180.13202 518.873019 179.306047 520.343054 177.836012 
C 521.813089 176.365977 522.639063 174.371901 522.639063 172.292958 
C 522.639063 170.214014 521.813089 168.219939 520.343054 166.749903 
C 518.873019 165.279868 516.878944 164.453895 514.8 164.453895 
C 512.721056 164.453895 510.726981 165.279868 509.256946 166.749903 
C 507.786911 168.219939 506.960938 170.214014 506.960938 172.292958 
C 506.960938 174.371901 507.786911 176.365977 509.256946 177.836012 
C 510.726981 179.306047 512.721056 180.13202 514.8 180.13202 
z
" style="fill: #add8e6; stroke: #000000; stroke-linejoin: miter"/>
    </g>
    <!-- 2 -->
    <g transform="translate(511.61875 175.052333) scale(0.1 -0.1)">
     <defs>
      <path id="DejaVuSans-32" d="M 1228 531 
L 3431 531 
L 3431 0 
L 469 0 
L 469 531 
Q 828 903 1448 1529 
Q 2069 2156 2228 2338 
Q 2531 2678 2651 2914 
Q 2772 3150 2772 3378 
Q 2772 3750 2511 3984 
Q 2250 4219 1831 4219 
Q 1534 4219 1204 4116 
Q 875 4013 500 3803 
L 500 4441 
Q 881 4594 1212 4672 
Q 1544 4750 1819 4750 
Q 2544 4750 2975 4387 
Q 3406 4025 3406 3419 
Q 3406 3131 3298 2873 
Q 3191 2616 2906 2266 
Q 2828 2175 2409 1742 
Q 1991 1309 1228 531 
z
" transform="scale(0.015625)"/>
     </defs>
     <use xlink:href="#DejaVuSans-32"/>
    </g>
   </g>
   <g id="text_4">
    <!-- 5 -->
    <g transform="translate(512.255 197.92581) scale(0.08 -0.08)">
     <defs>
      <path id="DejaVuSans-35" d="M 691 4666 
L 3169 4666 
L 3169 4134 
L 1269 4134 
L 1269 2991 
Q 1406 3038 1543 3061 
Q 1681 3084 1819 3084 
Q 2600 3084 3056 2656 
Q 3513 2228 3513 1497 
Q 3513 744 3044 326 
Q 2575 -91 1722 -91 
Q 1428 -91 1123 -41 
Q 819 9 494 109 
L 494 744 
Q 775 591 1075 516 
Q 1375 441 1709 441 
Q 2250 441 2565 725 
Q 2881 1009 2881 1497 
Q 2881 1984 2565 2268 
Q 2250 2553 1709 2553 
Q 1456 2553 1204 2497 
Q 953 2441 691 2322 
L 691 4666 
z
" transform="scale(0.015625)"/>
     </defs>
     <use xlink:href="#DejaVuSans-35"/>
    </g>
   </g>
   <g id="text_5">
    <g id="patch_4">
     <path d="M 403.2 258.216527 
C 405.278944 258.216527 407.273019 257.390554 408.743054 255.920519 
C 410.213089 254.450484 411.039062 252.456408 411.039062 250.377465 
C 411.039062 248.298521 410.213089 246.304446 408.743054 244.834411 
C 407.273019 243.364375 405.278944 242.538402 403.2 242.538402 
C 401.121056 242.538402 399.126981 243.364375 397.656946 244.834411 
C 396.186911 246.304446 395.360938 248.298521 395.360938 250.377465 
C 395.360938 252.456408 396.186911 254.450484 397.656946 255.920519 
C 399.126981 257.390554 401.121056 258.216527 403.2 258.216527 
z
" style="fill: #add8e6; stroke: #000000; stroke-linejoin: miter"/>
    </g>
    <!-- 4 -->
    <g transform="translate(400.01875 253.13684) scale(0.1 -0.1)">
     <defs>
      <path id="DejaVuSans-34" d="M 2419 4116 
L 825 1625 
L 2419 1625 
L 2419 4116 
z
M 2253 4666 
L 3047 4666 
L 3047 1625 
L 3713 1625 
L 3713 1100 
L 3047 1100 
L 3047 0 
L 2419 0 
L 2419 1100 
L 313 1100 
L 313 1709 
L 2253 4666 
z
" transform="scale(0.015625)"/>
     </defs>
     <use xlink:href="#DejaVuSans-34"/>
    </g>
   </g>
   <g id="text_6">
    <!-- 9 -->
    <g transform="translate(400.655 276.010317) scale(0.08 -0.08)">
     <defs>
      <path id="DejaVuSans-39" d="M 703 97 
L 703 672 
Q 941 559 1184 500 
Q 1428 441 1663 441 
Q 2288 441 2617 861 
Q 2947 1281 2994 2138 
Q 2813 1869 2534 1725 
Q 2256 1581 1919 1581 
Q 1219 1581 811 2004 
Q 403 2428 403 3163 
Q 403 3881 828 4315 
Q 1253 4750 1959 4750 
Q 2769 4750 3195 4129 
Q 3622 3509 3622 2328 
Q 3622 1225 3098 567 
Q 2575 -91 1691 -91 
Q 1453 -91 1209 -44 
Q 966 3 703 97 
z
M 1959 2075 
Q 2384 2075 2632 2365 
Q 2881 2656 2881 3163 
Q 2881 3666 2632 3958 
Q 2384 4250 1959 4250 
Q 1534 4250 1286 3958 
Q 1038 3666 1038 3163 
Q 1038 2656 1286 2365 
Q 1534 2075 1959 2075 
z
" transform="scale(0.015625)"/>
     </defs>
     <use xlink:href="#DejaVuSans-39"/>
    </g>
   </g>
   <g id="text_7">
    <g id="patch_5">
     <path d="M 347.4 336.301034 
C 349.478944 336.301034 351.473019 335.475061 352.943054 334.005026 
C 354.413089 332.534991 355.239062 330.540916 355.239062 328.461972 
C 355.239062 326.383028 354.413089 324.388953 352.943054 322.918918 
C 351.473019 321.448882 349.478944 320.622909 347.4 320.622909 
C 345.321056 320.622909 343.326981 321.448882 341.856946 322.918918 
C 340.386911 324.388953 339.560938 326.383028 339.560938 328.461972 
C 339.560938 330.540916 340.386911 332.534991 341.856946 334.005026 
C 343.326981 335.475061 345.321056 336.301034 347.4 336.301034 
z
" style="fill: #add8e6; stroke: #000000; stroke-linejoin: miter"/>
    </g>
    <!-- 8 -->
    <g transform="translate(344.21875 331.221347) scale(0.1 -0.1)">
     <defs>
      <path id="DejaVuSans-38" d="M 2034 2216 
Q 1584 2216 1326 1975 
Q 1069 1734 1069 1313 
Q 1069 891 1326 650 
Q 1584 409 2034 409 
Q 2484 409 2743 651 
Q 3003 894 3003 1313 
Q 3003 1734 2745 1975 
Q 2488 2216 2034 2216 
z
M 1403 2484 
Q 997 2584 770 2862 
Q 544 3141 544 3541 
Q 544 4100 942 4425 
Q 1341 4750 2034 4750 
Q 2731 4750 3128 4425 
Q 3525 4100 3525 3541 
Q 3525 3141 3298 2862 
Q 3072 2584 2669 2484 
Q 3125 2378 3379 2068 
Q 3634 1759 3634 1313 
Q 3634 634 3220 271 
Q 2806 -91 2034 -91 
Q 1263 -91 848 271 
Q 434 634 434 1313 
Q 434 1759 690 2068 
Q 947 2378 1403 2484 
z
M 1172 3481 
Q 1172 3119 1398 2916 
Q 1625 2713 2034 2713 
Q 2441 2713 2670 2916 
Q 2900 3119 2900 3481 
Q 2900 3844 2670 4047 
Q 2441 4250 2034 4250 
Q 1625 4250 1398 4047 
Q 1172 3844 1172 3481 
z
" transform="scale(0.015625)"/>
     </defs>
     <use xlink:href="#DejaVuSans-38"/>
    </g>
   </g>
   <g id="text_8">
    <!-- 17 -->
    <g transform="translate(342.31 354.094824) scale(0.08 -0.08)">
     <defs>
      <path id="DejaVuSans-37" d="M 525 4666 
L 3525 4666 
L 3525 4397 
L 1831 0 
L 1172 0 
L 2766 4134 
L 525 4134 
L 525 4666 
z
" transform="scale(0.015625)"/>
     </defs>
     <use xlink:href="#DejaVuSans-31"/>
     <use xlink:href="#DejaVuSans-37" transform="translate(63.623047 0)"/>
    </g>
   </g>
   <g id="text_9">
    <g id="patch_6">
     <path d="M 319.5 415.908979 
C 321.982964 415.908979 324.364567 414.922487 326.120287 413.166766 
C 327.876008 411.411045 328.8625 409.029443 328.8625 406.546479 
C 328.8625 404.063515 327.876008 401.681912 326.120287 399.926192 
C 324.364567 398.170471 321.982964 397.183979 319.5 397.183979 
C 317.017036 397.183979 314.635433 398.170471 312.879713 399.926192 
C 311.123992 401.681912 310.1375 404.063515 310.1375 406.546479 
C 310.1375 409.029443 311.123992 411.411045 312.879713 413.166766 
C 314.635433 414.922487 317.017036 415.908979 319.5 415.908979 
z
" style="fill: #add8e6; stroke: #000000; stroke-linejoin: miter"/>
    </g>
    <!-- 16 -->
    <g transform="translate(313.1375 409.305854) scale(0.1 -0.1)">
     <defs>
      <path id="DejaVuSans-36" d="M 2113 2584 
Q 1688 2584 1439 2293 
Q 1191 2003 1191 1497 
Q 1191 994 1439 701 
Q 1688 409 2113 409 
Q 2538 409 2786 701 
Q 3034 994 3034 1497 
Q 3034 2003 2786 2293 
Q 2538 2584 2113 2584 
z
M 3366 4563 
L 3366 3988 
Q 3128 4100 2886 4159 
Q 2644 4219 2406 4219 
Q 1781 4219 1451 3797 
Q 1122 3375 1075 2522 
Q 1259 2794 1537 2939 
Q 1816 3084 2150 3084 
Q 2853 3084 3261 2657 
Q 3669 2231 3669 1497 
Q 3669 778 3244 343 
Q 2819 -91 2113 -91 
Q 1303 -91 875 529 
Q 447 1150 447 2328 
Q 447 3434 972 4092 
Q 1497 4750 2381 4750 
Q 2619 4750 2861 4703 
Q 3103 4656 3366 4563 
z
" transform="scale(0.015625)"/>
     </defs>
     <use xlink:href="#DejaVuSans-31"/>
     <use xlink:href="#DejaVuSans-36" transform="translate(63.623047 0)"/>
    </g>
   </g>
   <g id="text_10">
    <!-- 33 -->
    <g transform="translate(314.41 432.179331) scale(0.08 -0.08)">
     <use xlink:href="#DejaVuSans-33"/>
     <use xlink:href="#DejaVuSans-33" transform="translate(63.623047 0)"/>
    </g>
   </g>
   <g id="text_11">
    <g id="patch_7">
     <path d="M 305.55 493.993486 
C 308.032964 493.993486 310.414567 493.006994 312.170287 491.251273 
C 313.926008 489.495552 314.9125 487.11395 314.9125 484.630986 
C 314.9125 482.148022 313.926008 479.766419 312.170287 478.010699 
C 310.414567 476.254978 308.032964 475.268486 305.55 475.268486 
C 303.067036 475.268486 300.685433 476.254978 298.929713 478.010699 
C 297.173992 479.766419 296.1875 482.148022 296.1875 484.630986 
C 296.1875 487.11395 297.173992 489.495552 298.929713 491.251273 
C 300.685433 493.006994 303.067036 493.993486 305.55 493.993486 
z
" style="fill: #add8e6; stroke: #000000; stroke-linejoin: miter"/>
    </g>
    <!-- 32 -->
    <g transform="translate(299.1875 487.390361) scale(0.1 -0.1)">
     <use xlink:href="#DejaVuSans-33"/>
     <use xlink:href="#DejaVuSans-32" transform="translate(63.623047 0)"/>
    </g>
   </g>
   <g id="text_12">
    <!-- 1 -->
    <g transform="translate(303.005 510.263838) scale(0.08 -0.08)">
     <use xlink:href="#DejaVuSans-31"/>
    </g>
   </g>
   <g id="text_13">
    <!-- 1 -->
    <g style="fill: #ff0000" transform="translate(300.46 551.513592) scale(0.16 -0.16)">
     <use xlink:href="#DejaVuSans-31"/>
    </g>
   </g>
   <g id="text_14">
    <g id="patch_8">
     <path d="M 333.45 493.993486 
C 335.932964 493.993486 338.314567 493.006994 340.070287 491.251273 
C 341.826008 489.495552 342.8125 487.11395 342.8125 484.630986 
C 342.8125 482.148022 341.826008 479.766419 340.070287 478.010699 
C 338.314567 476.254978 335.932964 475.268486 333.45 475.268486 
C 330.967036 475.268486 328.585433 476.254978 326.829713 478.010699 
C 325.073992 479.766419 324.0875 482.148022 324.0875 484.630986 
C 324.0875 487.11395 325.073992 489.495552 326.829713 491.251273 
C 328.585433 493.006994 330.967036 493.993486 333.45 493.993486 
z
" style="fill: #add8e6; stroke: #000000; stroke-linejoin: miter"/>
    </g>
    <!-- 33 -->
    <g transform="translate(327.0875 487.390361) scale(0.1 -0.1)">
     <use xlink:href="#DejaVuSans-33"/>
     <use xlink:href="#DejaVuSans-33" transform="translate(63.623047 0)"/>
    </g>
   </g>
   <g id="text_15">
    <!-- 32 -->
    <g transform="translate(328.36 510.263838) scale(0.08 -0.08)">
     <use xlink:href="#DejaVuSans-33"/>
     <use xlink:href="#DejaVuSans-32" transform="translate(63.623047 0)"/>
    </g>
   </g>
   <g id="text_16">
    <!-- 17 -->
    <g style="fill: #ff0000" transform="translate(323.27 551.513592) scale(0.16 -0.16)">
     <use xlink:href="#DejaVuSans-31"/>
     <use xlink:href="#DejaVuSans-37" transform="translate(63.623047 0)"/>
    </g>
   </g>
   <g id="text_17">
    <g id="patch_9">
     <path d="M 375.3 415.908979 
C 377.782964 415.908979 380.164567 414.922487 381.920287 413.166766 
C 383.676008 411.411045 384.6625 409.029443 384.6625 406.546479 
C 384.6625 404.063515 383.676008 401.681912 381.920287 399.926192 
C 380.164567 398.170471 377.782964 397.183979 375.3 397.183979 
C 372.817036 397.183979 370.435433 398.170471 368.679713 399.926192 
C 366.923992 401.681912 365.9375 404.063515 365.9375 406.546479 
C 365.9375 409.029443 366.923992 411.411045 368.679713 413.166766 
C 370.435433 414.922487 372.817036 415.908979 375.3 415.908979 
z
" style="fill: #add8e6; stroke: #000000; stroke-linejoin: miter"/>
    </g>
    <!-- 17 -->
    <g transform="translate(368.9375 409.305854) scale(0.1 -0.1)">
     <use xlink:href="#DejaVuSans-31"/>
     <use xlink:href="#DejaVuSans-37" transform="translate(63.623047 0)"/>
    </g>
   </g>
   <g id="text_18">
    <!-- 49 -->
    <g transform="translate(370.21 432.179331) scale(0.08 -0.08)">
     <use xlink:href="#DejaVuSans-34"/>
     <use xlink:href="#DejaVuSans-39" transform="translate(63.623047 0)"/>
    </g>
   </g>
   <g id="text_19">
    <g id="patch_10">
     <path d="M 361.35 493.993486 
C 363.832964 493.993486 366.214567 493.006994 367.970287 491.251273 
C 369.726008 489.495552 370.7125 487.11395 370.7125 484.630986 
C 370.7125 482.148022 369.726008 479.766419 367.970287 478.010699 
C 366.214567 476.254978 363.832964 475.268486 361.35 475.268486 
C 358.867036 475.268486 356.485433 476.254978 354.729713 478.010699 
C 352.973992 479.766419 351.9875 482.148022 351.9875 484.630986 
C 351.9875 487.11395 352.973992 489.495552 354.729713 491.251273 
C 356.485433 493.006994 358.867036 493.993486 361.35 493.993486 
z
" style="fill: #add8e6; stroke: #000000; stroke-linejoin: miter"/>
    </g>
    <!-- 34 -->
    <g transform="translate(354.9875 487.390361) scale(0.1 -0.1)">
     <use xlink:href="#DejaVuSans-33"/>
     <use xlink:href="#DejaVuSans-34" transform="translate(63.623047 0)"/>
    </g>
   </g>
   <g id="text_20">
    <!-- 16 -->
    <g transform="translate(356.26 510.263838) scale(0.08 -0.08)">
     <use xlink:href="#DejaVuSans-31"/>
     <use xlink:href="#DejaVuSans-36" transform="translate(63.623047 0)"/>
    </g>
   </g>
   <g id="text_21">
    <!-- 9 -->
    <g style="fill: #ff0000" transform="translate(356.26 551.513592) scale(0.16 -0.16)">
     <use xlink:href="#DejaVuSans-39"/>
    </g>
   </g>
   <g id="text_22">
    <g id="patch_11">
     <path d="M 389.25 493.993486 
C 391.732964 493.993486 394.114567 493.006994 395.870287 491.251273 
C 397.626008 489.495552 398.6125 487.11395 398.6125 484.630986 
C 398.6125 482.148022 397.626008 479.766419 395.870287 478.010699 
C 394.114567 476.254978 391.732964 475.268486 389.25 475.268486 
C 386.767036 475.268486 384.385433 476.254978 382.629713 478.010699 
C 380.873992 479.766419 379.8875 482.148022 379.8875 484.630986 
C 379.8875 487.11395 380.873992 489.495552 382.629713 491.251273 
C 384.385433 493.006994 386.767036 493.993486 389.25 493.993486 
z
" style="fill: #add8e6; stroke: #000000; stroke-linejoin: miter"/>
    </g>
    <!-- 35 -->
    <g transform="translate(382.8875 487.390361) scale(0.1 -0.1)">
     <use xlink:href="#DejaVuSans-33"/>
     <use xlink:href="#DejaVuSans-35" transform="translate(63.623047 0)"/>
    </g>
   </g>
   <g id="text_23">
    <!-- 48 -->
    <g transform="translate(384.16 510.263838) scale(0.08 -0.08)">
     <use xlink:href="#DejaVuSans-34"/>
     <use xlink:href="#DejaVuSans-38" transform="translate(63.623047 0)"/>
    </g>
   </g>
   <g id="text_24">
    <!-- 25 -->
    <g style="fill: #ff0000" transform="translate(379.07 551.513592) scale(0.16 -0.16)">
     <use xlink:href="#DejaVuSans-32"/>
     <use xlink:href="#DejaVuSans-35" transform="translate(63.623047 0)"/>
    </g>
   </g>
   <g id="text_25">
    <g id="patch_12">
     <path d="M 459 336.301034 
C 461.078944 336.301034 463.073019 335.475061 464.543054 334.005026 
C 466.013089 332.534991 466.839063 330.540916 466.839063 328.461972 
C 466.839063 326.383028 466.013089 324.388953 464.543054 322.918918 
C 463.073019 321.448882 461.078944 320.622909 459 320.622909 
C 456.921056 320.622909 454.926981 321.448882 453.456946 322.918918 
C 451.986911 324.388953 451.160938 326.383028 451.160938 328.461972 
C 451.160938 330.540916 451.986911 332.534991 453.456946 334.005026 
C 454.926981 335.475061 456.921056 336.301034 459 336.301034 
z
" style="fill: #add8e6; stroke: #000000; stroke-linejoin: miter"/>
    </g>
    <!-- 9 -->
    <g transform="translate(455.81875 331.221347) scale(0.1 -0.1)">
     <use xlink:href="#DejaVuSans-39"/>
    </g>
   </g>
   <g id="text_26">
    <!-- 25 -->
    <g transform="translate(453.91 354.094824) scale(0.08 -0.08)">
     <use xlink:href="#DejaVuSans-32"/>
     <use xlink:href="#DejaVuSans-35" transform="translate(63.623047 0)"/>
    </g>
   </g>
   <g id="text_27">
    <g id="patch_13">
     <path d="M 431.1 415.908979 
C 433.582964 415.908979 435.964567 414.922487 437.720287 413.166766 
C 439.476008 411.411045 440.4625 409.029443 440.4625 406.546479 
C 440.4625 404.063515 439.476008 401.681912 437.720287 399.926192 
C 435.964567 398.170471 433.582964 397.183979 431.1 397.183979 
C 428.617036 397.183979 426.235433 398.170471 424.479713 399.926192 
C 422.723992 401.681912 421.7375 404.063515 421.7375 406.546479 
C 421.7375 409.029443 422.723992 411.411045 424.479713 413.166766 
C 426.235433 414.922487 428.617036 415.908979 431.1 415.908979 
z
" style="fill: #add8e6; stroke: #000000; stroke-linejoin: miter"/>
    </g>
    <!-- 18 -->
    <g transform="translate(424.7375 409.305854) scale(0.1 -0.1)">
     <use xlink:href="#DejaVuSans-31"/>
     <use xlink:href="#DejaVuSans-38" transform="translate(63.623047 0)"/>
    </g>
   </g>
   <g id="text_28">
    <!-- 41 -->
    <g transform="translate(426.01 432.179331) scale(0.08 -0.08)">
     <use xlink:href="#DejaVuSans-34"/>
     <use xlink:href="#DejaVuSans-31" transform="translate(63.623047 0)"/>
    </g>
   </g>
   <g id="text_29">
    <g id="patch_14">
     <path d="M 417.15 493.993486 
C 419.632964 493.993486 422.014567 493.006994 423.770287 491.251273 
C 425.526008 489.495552 426.5125 487.11395 426.5125 484.630986 
C 426.5125 482.148022 425.526008 479.766419 423.770287 478.010699 
C 422.014567 476.254978 419.632964 475.268486 417.15 475.268486 
C 414.667036 475.268486 412.285433 476.254978 410.529713 478.010699 
C 408.773992 479.766419 407.7875 482.148022 407.7875 484.630986 
C 407.7875 487.11395 408.773992 489.495552 410.529713 491.251273 
C 412.285433 493.006994 414.667036 493.993486 417.15 493.993486 
z
" style="fill: #add8e6; stroke: #000000; stroke-linejoin: miter"/>
    </g>
    <!-- 36 -->
    <g transform="translate(410.7875 487.390361) scale(0.1 -0.1)">
     <use xlink:href="#DejaVuSans-33"/>
     <use xlink:href="#DejaVuSans-36" transform="translate(63.623047 0)"/>
    </g>
   </g>
   <g id="text_30">
    <!-- 8 -->
    <g transform="translate(414.605 510.263838) scale(0.08 -0.08)">
     <use xlink:href="#DejaVuSans-38"/>
    </g>
   </g>
   <g id="text_31">
    <!-- 5 -->
    <g style="fill: #ff0000" transform="translate(412.06 551.513592) scale(0.16 -0.16)">
     <use xlink:href="#DejaVuSans-35"/>
    </g>
   </g>
   <g id="text_32">
    <g id="patch_15">
     <path d="M 445.05 493.993486 
C 447.532964 493.993486 449.914567 493.006994 451.670287 491.251273 
C 453.426008 489.495552 454.4125 487.11395 454.4125 484.630986 
C 454.4125 482.148022 453.426008 479.766419 451.670287 478.010699 
C 449.914567 476.254978 447.532964 475.268486 445.05 475.268486 
C 442.567036 475.268486 440.185433 476.254978 438.429713 478.010699 
C 436.673992 479.766419 435.6875 482.148022 435.6875 484.630986 
C 435.6875 487.11395 436.673992 489.495552 438.429713 491.251273 
C 440.185433 493.006994 442.567036 493.993486 445.05 493.993486 
z
" style="fill: #add8e6; stroke: #000000; stroke-linejoin: miter"/>
    </g>
    <!-- 37 -->
    <g transform="translate(438.6875 487.390361) scale(0.1 -0.1)">
     <use xlink:href="#DejaVuSans-33"/>
     <use xlink:href="#DejaVuSans-37" transform="translate(63.623047 0)"/>
    </g>
   </g>
   <g id="text_33">
    <!-- 40 -->
    <g transform="translate(439.96 510.263838) scale(0.08 -0.08)">
     <defs>
      <path id="DejaVuSans-30" d="M 2034 4250 
Q 1547 4250 1301 3770 
Q 1056 3291 1056 2328 
Q 1056 1369 1301 889 
Q 1547 409 2034 409 
Q 2525 409 2770 889 
Q 3016 1369 3016 2328 
Q 3016 3291 2770 3770 
Q 2525 4250 2034 4250 
z
M 2034 4750 
Q 2819 4750 3233 4129 
Q 3647 3509 3647 2328 
Q 3647 1150 3233 529 
Q 2819 -91 2034 -91 
Q 1250 -91 836 529 
Q 422 1150 422 2328 
Q 422 3509 836 4129 
Q 1250 4750 2034 4750 
z
" transform="scale(0.015625)"/>
     </defs>
     <use xlink:href="#DejaVuSans-34"/>
     <use xlink:href="#DejaVuSans-30" transform="translate(63.623047 0)"/>
    </g>
   </g>
   <g id="text_34">
    <!-- 21 -->
    <g style="fill: #ff0000" transform="translate(434.87 551.513592) scale(0.16 -0.16)">
     <use xlink:href="#DejaVuSans-32"/>
     <use xlink:href="#DejaVuSans-31" transform="translate(63.623047 0)"/>
    </g>
   </g>
   <g id="text_35">
    <g id="patch_16">
     <path d="M 486.9 415.908979 
C 489.382964 415.908979 491.764567 414.922487 493.520287 413.166766 
C 495.276008 411.411045 496.2625 409.029443 496.2625 406.546479 
C 496.2625 404.063515 495.276008 401.681912 493.520287 399.926192 
C 491.764567 398.170471 489.382964 397.183979 486.9 397.183979 
C 484.417036 397.183979 482.035433 398.170471 480.279713 399.926192 
C 478.523992 401.681912 477.5375 404.063515 477.5375 406.546479 
C 477.5375 409.029443 478.523992 411.411045 480.279713 413.166766 
C 482.035433 414.922487 484.417036 415.908979 486.9 415.908979 
z
" style="fill: #add8e6; stroke: #000000; stroke-linejoin: miter"/>
    </g>
    <!-- 19 -->
    <g transform="translate(480.5375 409.305854) scale(0.1 -0.1)">
     <use xlink:href="#DejaVuSans-31"/>
     <use xlink:href="#DejaVuSans-39" transform="translate(63.623047 0)"/>
    </g>
   </g>
   <g id="text_36">
    <!-- 57 -->
    <g transform="translate(481.81 432.179331) scale(0.08 -0.08)">
     <use xlink:href="#DejaVuSans-35"/>
     <use xlink:href="#DejaVuSans-37" transform="translate(63.623047 0)"/>
    </g>
   </g>
   <g id="text_37">
    <g id="patch_17">
     <path d="M 472.95 493.993486 
C 475.432964 493.993486 477.814567 493.006994 479.570287 491.251273 
C 481.326008 489.495552 482.3125 487.11395 482.3125 484.630986 
C 482.3125 482.148022 481.326008 479.766419 479.570287 478.010699 
C 477.814567 476.254978 475.432964 475.268486 472.95 475.268486 
C 470.467036 475.268486 468.085433 476.254978 466.329713 478.010699 
C 464.573992 479.766419 463.5875 482.148022 463.5875 484.630986 
C 463.5875 487.11395 464.573992 489.495552 466.329713 491.251273 
C 468.085433 493.006994 470.467036 493.993486 472.95 493.993486 
z
" style="fill: #add8e6; stroke: #000000; stroke-linejoin: miter"/>
    </g>
    <!-- 38 -->
    <g transform="translate(466.5875 487.390361) scale(0.1 -0.1)">
     <use xlink:href="#DejaVuSans-33"/>
     <use xlink:href="#DejaVuSans-38" transform="translate(63.623047 0)"/>
    </g>
   </g>
   <g id="text_38">
    <!-- 24 -->
    <g transform="translate(467.86 510.263838) scale(0.08 -0.08)">
     <use xlink:href="#DejaVuSans-32"/>
     <use xlink:href="#DejaVuSans-34" transform="translate(63.623047 0)"/>
    </g>
   </g>
   <g id="text_39">
    <!-- 13 -->
    <g style="fill: #ff0000" transform="translate(462.77 551.513592) scale(0.16 -0.16)">
     <use xlink:href="#DejaVuSans-31"/>
     <use xlink:href="#DejaVuSans-33" transform="translate(63.623047 0)"/>
    </g>
   </g>
   <g id="text_40">
    <g id="patch_18">
     <path d="M 500.85 493.993486 
C 503.332964 493.993486 505.714567 493.006994 507.470287 491.251273 
C 509.226008 489.495552 510.2125 487.11395 510.2125 484.630986 
C 510.2125 482.148022 509.226008 479.766419 507.470287 478.010699 
C 505.714567 476.254978 503.332964 475.268486 500.85 475.268486 
C 498.367036 475.268486 495.985433 476.254978 494.229713 478.010699 
C 492.473992 479.766419 491.4875 482.148022 491.4875 484.630986 
C 491.4875 487.11395 492.473992 489.495552 494.229713 491.251273 
C 495.985433 493.006994 498.367036 493.993486 500.85 493.993486 
z
" style="fill: #add8e6; stroke: #000000; stroke-linejoin: miter"/>
    </g>
    <!-- 39 -->
    <g transform="translate(494.4875 487.390361) scale(0.1 -0.1)">
     <use xlink:href="#DejaVuSans-33"/>
     <use xlink:href="#DejaVuSans-39" transform="translate(63.623047 0)"/>
    </g>
   </g>
   <g id="text_41">
    <!-- 56 -->
    <g transform="translate(495.76 510.263838) scale(0.08 -0.08)">
     <use xlink:href="#DejaVuSans-35"/>
     <use xlink:href="#DejaVuSans-36" transform="translate(63.623047 0)"/>
    </g>
   </g>
   <g id="text_42">
    <!-- 29 -->
    <g style="fill: #ff0000" transform="translate(490.67 551.513592) scale(0.16 -0.16)">
     <use xlink:href="#DejaVuSans-32"/>
     <use xlink:href="#DejaVuSans-39" transform="translate(63.623047 0)"/>
    </g>
   </g>
   <g id="text_43">
    <g id="patch_19">
     <path d="M 626.4 258.216527 
C 628.478944 258.216527 630.473019 257.390554 631.943054 255.920519 
C 633.413089 254.450484 634.239063 252.456408 634.239063 250.377465 
C 634.239063 248.298521 633.413089 246.304446 631.943054 244.834411 
C 630.473019 243.364375 628.478944 242.538402 626.4 242.538402 
C 624.321056 242.538402 622.326981 243.364375 620.856946 244.834411 
C 619.386911 246.304446 618.560938 248.298521 618.560938 250.377465 
C 618.560938 252.456408 619.386911 254.450484 620.856946 255.920519 
C 622.326981 257.390554 624.321056 258.216527 626.4 258.216527 
z
" style="fill: #add8e6; stroke: #000000; stroke-linejoin: miter"/>
    </g>
    <!-- 5 -->
    <g transform="translate(623.21875 253.13684) scale(0.1 -0.1)">
     <use xlink:href="#DejaVuSans-35"/>
    </g>
   </g>
   <g id="text_44">
    <!-- 13 -->
    <g transform="translate(621.31 276.010317) scale(0.08 -0.08)">
     <use xlink:href="#DejaVuSans-31"/>
     <use xlink:href="#DejaVuSans-33" transform="translate(63.623047 0)"/>
    </g>
   </g>
   <g id="text_45">
    <g id="patch_20">
     <path d="M 570.6 337.824472 
C 573.082964 337.824472 575.464567 336.83798 577.220287 335.082259 
C 578.976008 333.326538 579.9625 330.944936 579.9625 328.461972 
C 579.9625 325.979008 578.976008 323.597405 577.220287 321.841685 
C 575.464567 320.085964 573.082964 319.099472 570.6 319.099472 
C 568.117036 319.099472 565.735433 320.085964 563.979713 321.841685 
C 562.223992 323.597405 561.2375 325.979008 561.2375 328.461972 
C 561.2375 330.944936 562.223992 333.326538 563.979713 335.082259 
C 565.735433 336.83798 568.117036 337.824472 570.6 337.824472 
z
" style="fill: #add8e6; stroke: #000000; stroke-linejoin: miter"/>
    </g>
    <!-- 10 -->
    <g transform="translate(564.2375 331.221347) scale(0.1 -0.1)">
     <use xlink:href="#DejaVuSans-31"/>
     <use xlink:href="#DejaVuSans-30" transform="translate(63.623047 0)"/>
    </g>
   </g>
   <g id="text_46">
    <!-- 21 -->
    <g transform="translate(565.51 354.094824) scale(0.08 -0.08)">
     <use xlink:href="#DejaVuSans-32"/>
     <use xlink:href="#DejaVuSans-31" transform="translate(63.623047 0)"/>
    </g>
   </g>
   <g id="text_47">
    <g id="patch_21">
     <path d="M 542.7 415.908979 
C 545.182964 415.908979 547.564567 414.922487 549.320287 413.166766 
C 551.076008 411.411045 552.0625 409.029443 552.0625 406.546479 
C 552.0625 404.063515 551.076008 401.681912 549.320287 399.926192 
C 547.564567 398.170471 545.182964 397.183979 542.7 397.183979 
C 540.217036 397.183979 537.835433 398.170471 536.079713 399.926192 
C 534.323992 401.681912 533.3375 404.063515 533.3375 406.546479 
C 533.3375 409.029443 534.323992 411.411045 536.079713 413.166766 
C 537.835433 414.922487 540.217036 415.908979 542.7 415.908979 
z
" style="fill: #add8e6; stroke: #000000; stroke-linejoin: miter"/>
    </g>
    <!-- 20 -->
    <g transform="translate(536.3375 409.305854) scale(0.1 -0.1)">
     <use xlink:href="#DejaVuSans-32"/>
     <use xlink:href="#DejaVuSans-30" transform="translate(63.623047 0)"/>
    </g>
   </g>
   <g id="text_48">
    <!-- 37 -->
    <g transform="translate(537.61 432.179331) scale(0.08 -0.08)">
     <use xlink:href="#DejaVuSans-33"/>
     <use xlink:href="#DejaVuSans-37" transform="translate(63.623047 0)"/>
    </g>
   </g>
   <g id="text_49">
    <g id="patch_22">
     <path d="M 528.75 493.993486 
C 531.232964 493.993486 533.614567 493.006994 535.370287 491.251273 
C 537.126008 489.495552 538.1125 487.11395 538.1125 484.630986 
C 538.1125 482.148022 537.126008 479.766419 535.370287 478.010699 
C 533.614567 476.254978 531.232964 475.268486 528.75 475.268486 
C 526.267036 475.268486 523.885433 476.254978 522.129713 478.010699 
C 520.373992 479.766419 519.3875 482.148022 519.3875 484.630986 
C 519.3875 487.11395 520.373992 489.495552 522.129713 491.251273 
C 523.885433 493.006994 526.267036 493.993486 528.75 493.993486 
z
" style="fill: #add8e6; stroke: #000000; stroke-linejoin: miter"/>
    </g>
    <!-- 40 -->
    <g transform="translate(522.3875 487.390361) scale(0.1 -0.1)">
     <use xlink:href="#DejaVuSans-34"/>
     <use xlink:href="#DejaVuSans-30" transform="translate(63.623047 0)"/>
    </g>
   </g>
   <g id="text_50">
    <!-- 4 -->
    <g transform="translate(526.205 510.263838) scale(0.08 -0.08)">
     <use xlink:href="#DejaVuSans-34"/>
    </g>
   </g>
   <g id="text_51">
    <!-- 3 -->
    <g style="fill: #ff0000" transform="translate(523.66 551.513592) scale(0.16 -0.16)">
     <use xlink:href="#DejaVuSans-33"/>
    </g>
   </g>
   <g id="text_52">
    <g id="patch_23">
     <path d="M 556.65 493.993486 
C 559.132964 493.993486 561.514567 493.006994 563.270287 491.251273 
C 565.026008 489.495552 566.0125 487.11395 566.0125 484.630986 
C 566.0125 482.148022 565.026008 479.766419 563.270287 478.010699 
C 561.514567 476.254978 559.132964 475.268486 556.65 475.268486 
C 554.167036 475.268486 551.785433 476.254978 550.029713 478.010699 
C 548.273992 479.766419 547.2875 482.148022 547.2875 484.630986 
C 547.2875 487.11395 548.273992 489.495552 550.029713 491.251273 
C 551.785433 493.006994 554.167036 493.993486 556.65 493.993486 
z
" style="fill: #add8e6; stroke: #000000; stroke-linejoin: miter"/>
    </g>
    <!-- 41 -->
    <g transform="translate(550.2875 487.390361) scale(0.1 -0.1)">
     <use xlink:href="#DejaVuSans-34"/>
     <use xlink:href="#DejaVuSans-31" transform="translate(63.623047 0)"/>
    </g>
   </g>
   <g id="text_53">
    <!-- 36 -->
    <g transform="translate(551.56 510.263838) scale(0.08 -0.08)">
     <use xlink:href="#DejaVuSans-33"/>
     <use xlink:href="#DejaVuSans-36" transform="translate(63.623047 0)"/>
    </g>
   </g>
   <g id="text_54">
    <!-- 19 -->
    <g style="fill: #ff0000" transform="translate(546.47 551.513592) scale(0.16 -0.16)">
     <use xlink:href="#DejaVuSans-31"/>
     <use xlink:href="#DejaVuSans-39" transform="translate(63.623047 0)"/>
    </g>
   </g>
   <g id="text_55">
    <g id="patch_24">
     <path d="M 598.5 415.908979 
C 600.982964 415.908979 603.364567 414.922487 605.120287 413.166766 
C 606.876008 411.411045 607.8625 409.029443 607.8625 406.546479 
C 607.8625 404.063515 606.876008 401.681912 605.120287 399.926192 
C 603.364567 398.170471 600.982964 397.183979 598.5 397.183979 
C 596.017036 397.183979 593.635433 398.170471 591.879713 399.926192 
C 590.123992 401.681912 589.1375 404.063515 589.1375 406.546479 
C 589.1375 409.029443 590.123992 411.411045 591.879713 413.166766 
C 593.635433 414.922487 596.017036 415.908979 598.5 415.908979 
z
" style="fill: #add8e6; stroke: #000000; stroke-linejoin: miter"/>
    </g>
    <!-- 21 -->
    <g transform="translate(592.1375 409.305854) scale(0.1 -0.1)">
     <use xlink:href="#DejaVuSans-32"/>
     <use xlink:href="#DejaVuSans-31" transform="translate(63.623047 0)"/>
    </g>
   </g>
   <g id="text_56">
    <!-- 53 -->
    <g transform="translate(593.41 432.179331) scale(0.08 -0.08)">
     <use xlink:href="#DejaVuSans-35"/>
     <use xlink:href="#DejaVuSans-33" transform="translate(63.623047 0)"/>
    </g>
   </g>
   <g id="text_57">
    <g id="patch_25">
     <path d="M 584.55 493.993486 
C 587.032964 493.993486 589.414567 493.006994 591.170287 491.251273 
C 592.926008 489.495552 593.9125 487.11395 593.9125 484.630986 
C 593.9125 482.148022 592.926008 479.766419 591.170287 478.010699 
C 589.414567 476.254978 587.032964 475.268486 584.55 475.268486 
C 582.067036 475.268486 579.685433 476.254978 577.929713 478.010699 
C 576.173992 479.766419 575.1875 482.148022 575.1875 484.630986 
C 575.1875 487.11395 576.173992 489.495552 577.929713 491.251273 
C 579.685433 493.006994 582.067036 493.993486 584.55 493.993486 
z
" style="fill: #add8e6; stroke: #000000; stroke-linejoin: miter"/>
    </g>
    <!-- 42 -->
    <g transform="translate(578.1875 487.390361) scale(0.1 -0.1)">
     <use xlink:href="#DejaVuSans-34"/>
     <use xlink:href="#DejaVuSans-32" transform="translate(63.623047 0)"/>
    </g>
   </g>
   <g id="text_58">
    <!-- 20 -->
    <g transform="translate(579.46 510.263838) scale(0.08 -0.08)">
     <use xlink:href="#DejaVuSans-32"/>
     <use xlink:href="#DejaVuSans-30" transform="translate(63.623047 0)"/>
    </g>
   </g>
   <g id="text_59">
    <!-- 11 -->
    <g style="fill: #ff0000" transform="translate(574.37 551.513592) scale(0.16 -0.16)">
     <use xlink:href="#DejaVuSans-31"/>
     <use xlink:href="#DejaVuSans-31" transform="translate(63.623047 0)"/>
    </g>
   </g>
   <g id="text_60">
    <g id="patch_26">
     <path d="M 612.45 493.993486 
C 614.932964 493.993486 617.314567 493.006994 619.070287 491.251273 
C 620.826008 489.495552 621.8125 487.11395 621.8125 484.630986 
C 621.8125 482.148022 620.826008 479.766419 619.070287 478.010699 
C 617.314567 476.254978 614.932964 475.268486 612.45 475.268486 
C 609.967036 475.268486 607.585433 476.254978 605.829713 478.010699 
C 604.073992 479.766419 603.0875 482.148022 603.0875 484.630986 
C 603.0875 487.11395 604.073992 489.495552 605.829713 491.251273 
C 607.585433 493.006994 609.967036 493.993486 612.45 493.993486 
z
" style="fill: #add8e6; stroke: #000000; stroke-linejoin: miter"/>
    </g>
    <!-- 43 -->
    <g transform="translate(606.0875 487.390361) scale(0.1 -0.1)">
     <use xlink:href="#DejaVuSans-34"/>
     <use xlink:href="#DejaVuSans-33" transform="translate(63.623047 0)"/>
    </g>
   </g>
   <g id="text_61">
    <!-- 52 -->
    <g transform="translate(607.36 510.263838) scale(0.08 -0.08)">
     <use xlink:href="#DejaVuSans-35"/>
     <use xlink:href="#DejaVuSans-32" transform="translate(63.623047 0)"/>
    </g>
   </g>
   <g id="text_62">
    <!-- 27 -->
    <g style="fill: #ff0000" transform="translate(602.27 551.513592) scale(0.16 -0.16)">
     <use xlink:href="#DejaVuSans-32"/>
     <use xlink:href="#DejaVuSans-37" transform="translate(63.623047 0)"/>
    </g>
   </g>
   <g id="text_63">
    <g id="patch_27">
     <path d="M 682.2 337.824472 
C 684.682964 337.824472 687.064567 336.83798 688.820287 335.082259 
C 690.576008 333.326538 691.5625 330.944936 691.5625 328.461972 
C 691.5625 325.979008 690.576008 323.597405 688.820287 321.841685 
C 687.064567 320.085964 684.682964 319.099472 682.2 319.099472 
C 679.717036 319.099472 677.335433 320.085964 675.579713 321.841685 
C 673.823992 323.597405 672.8375 325.979008 672.8375 328.461972 
C 672.8375 330.944936 673.823992 333.326538 675.579713 335.082259 
C 677.335433 336.83798 679.717036 337.824472 682.2 337.824472 
z
" style="fill: #add8e6; stroke: #000000; stroke-linejoin: miter"/>
    </g>
    <!-- 11 -->
    <g transform="translate(675.8375 331.221347) scale(0.1 -0.1)">
     <use xlink:href="#DejaVuSans-31"/>
     <use xlink:href="#DejaVuSans-31" transform="translate(63.623047 0)"/>
    </g>
   </g>
   <g id="text_64">
    <!-- 29 -->
    <g transform="translate(677.11 354.094824) scale(0.08 -0.08)">
     <use xlink:href="#DejaVuSans-32"/>
     <use xlink:href="#DejaVuSans-39" transform="translate(63.623047 0)"/>
    </g>
   </g>
   <g id="text_65">
    <g id="patch_28">
     <path d="M 654.3 415.908979 
C 656.782964 415.908979 659.164567 414.922487 660.920287 413.166766 
C 662.676008 411.411045 663.6625 409.029443 663.6625 406.546479 
C 663.6625 404.063515 662.676008 401.681912 660.920287 399.926192 
C 659.164567 398.170471 656.782964 397.183979 654.3 397.183979 
C 651.817036 397.183979 649.435433 398.170471 647.679713 399.926192 
C 645.923992 401.681912 644.9375 404.063515 644.9375 406.546479 
C 644.9375 409.029443 645.923992 411.411045 647.679713 413.166766 
C 649.435433 414.922487 651.817036 415.908979 654.3 415.908979 
z
" style="fill: #add8e6; stroke: #000000; stroke-linejoin: miter"/>
    </g>
    <!-- 22 -->
    <g transform="translate(647.9375 409.305854) scale(0.1 -0.1)">
     <use xlink:href="#DejaVuSans-32"/>
     <use xlink:href="#DejaVuSans-32" transform="translate(63.623047 0)"/>
    </g>
   </g>
   <g id="text_66">
    <!-- 45 -->
    <g transform="translate(649.21 432.179331) scale(0.08 -0.08)">
     <use xlink:href="#DejaVuSans-34"/>
     <use xlink:href="#DejaVuSans-35" transform="translate(63.623047 0)"/>
    </g>
   </g>
   <g id="text_67">
    <g id="patch_29">
     <path d="M 640.35 493.993486 
C 642.832964 493.993486 645.214567 493.006994 646.970287 491.251273 
C 648.726008 489.495552 649.7125 487.11395 649.7125 484.630986 
C 649.7125 482.148022 648.726008 479.766419 646.970287 478.010699 
C 645.214567 476.254978 642.832964 475.268486 640.35 475.268486 
C 637.867036 475.268486 635.485433 476.254978 633.729713 478.010699 
C 631.973992 479.766419 630.9875 482.148022 630.9875 484.630986 
C 630.9875 487.11395 631.973992 489.495552 633.729713 491.251273 
C 635.485433 493.006994 637.867036 493.993486 640.35 493.993486 
z
" style="fill: #add8e6; stroke: #000000; stroke-linejoin: miter"/>
    </g>
    <!-- 44 -->
    <g transform="translate(633.9875 487.390361) scale(0.1 -0.1)">
     <use xlink:href="#DejaVuSans-34"/>
     <use xlink:href="#DejaVuSans-34" transform="translate(63.623047 0)"/>
    </g>
   </g>
   <g id="text_68">
    <!-- 12 -->
    <g transform="translate(635.26 510.263838) scale(0.08 -0.08)">
     <use xlink:href="#DejaVuSans-31"/>
     <use xlink:href="#DejaVuSans-32" transform="translate(63.623047 0)"/>
    </g>
   </g>
   <g id="text_69">
    <!-- 7 -->
    <g style="fill: #ff0000" transform="translate(635.26 551.513592) scale(0.16 -0.16)">
     <use xlink:href="#DejaVuSans-37"/>
    </g>
   </g>
   <g id="text_70">
    <g id="patch_30">
     <path d="M 668.25 493.993486 
C 670.732964 493.993486 673.114567 493.006994 674.870287 491.251273 
C 676.626008 489.495552 677.6125 487.11395 677.6125 484.630986 
C 677.6125 482.148022 676.626008 479.766419 674.870287 478.010699 
C 673.114567 476.254978 670.732964 475.268486 668.25 475.268486 
C 665.767036 475.268486 663.385433 476.254978 661.629713 478.010699 
C 659.873992 479.766419 658.8875 482.148022 658.8875 484.630986 
C 658.8875 487.11395 659.873992 489.495552 661.629713 491.251273 
C 663.385433 493.006994 665.767036 493.993486 668.25 493.993486 
z
" style="fill: #add8e6; stroke: #000000; stroke-linejoin: miter"/>
    </g>
    <!-- 45 -->
    <g transform="translate(661.8875 487.390361) scale(0.1 -0.1)">
     <use xlink:href="#DejaVuSans-34"/>
     <use xlink:href="#DejaVuSans-35" transform="translate(63.623047 0)"/>
    </g>
   </g>
   <g id="text_71">
    <!-- 44 -->
    <g transform="translate(663.16 510.263838) scale(0.08 -0.08)">
     <use xlink:href="#DejaVuSans-34"/>
     <use xlink:href="#DejaVuSans-34" transform="translate(63.623047 0)"/>
    </g>
   </g>
   <g id="text_72">
    <!-- 23 -->
    <g style="fill: #ff0000" transform="translate(658.07 551.513592) scale(0.16 -0.16)">
     <use xlink:href="#DejaVuSans-32"/>
     <use xlink:href="#DejaVuSans-33" transform="translate(63.623047 0)"/>
    </g>
   </g>
   <g id="text_73">
    <g id="patch_31">
     <path d="M 710.1 415.908979 
C 712.582964 415.908979 714.964567 414.922487 716.720287 413.166766 
C 718.476008 411.411045 719.4625 409.029443 719.4625 406.546479 
C 719.4625 404.063515 718.476008 401.681912 716.720287 399.926192 
C 714.964567 398.170471 712.582964 397.183979 710.1 397.183979 
C 707.617036 397.183979 705.235433 398.170471 703.479713 399.926192 
C 701.723992 401.681912 700.7375 404.063515 700.7375 406.546479 
C 700.7375 409.029443 701.723992 411.411045 703.479713 413.166766 
C 705.235433 414.922487 707.617036 415.908979 710.1 415.908979 
z
" style="fill: #add8e6; stroke: #000000; stroke-linejoin: miter"/>
    </g>
    <!-- 23 -->
    <g transform="translate(703.7375 409.305854) scale(0.1 -0.1)">
     <use xlink:href="#DejaVuSans-32"/>
     <use xlink:href="#DejaVuSans-33" transform="translate(63.623047 0)"/>
    </g>
   </g>
   <g id="text_74">
    <!-- 61 -->
    <g transform="translate(705.01 432.179331) scale(0.08 -0.08)">
     <use xlink:href="#DejaVuSans-36"/>
     <use xlink:href="#DejaVuSans-31" transform="translate(63.623047 0)"/>
    </g>
   </g>
   <g id="text_75">
    <g id="patch_32">
     <path d="M 696.15 493.993486 
C 698.632964 493.993486 701.014567 493.006994 702.770287 491.251273 
C 704.526008 489.495552 705.5125 487.11395 705.5125 484.630986 
C 705.5125 482.148022 704.526008 479.766419 702.770287 478.010699 
C 701.014567 476.254978 698.632964 475.268486 696.15 475.268486 
C 693.667036 475.268486 691.285433 476.254978 689.529713 478.010699 
C 687.773992 479.766419 686.7875 482.148022 686.7875 484.630986 
C 686.7875 487.11395 687.773992 489.495552 689.529713 491.251273 
C 691.285433 493.006994 693.667036 493.993486 696.15 493.993486 
z
" style="fill: #add8e6; stroke: #000000; stroke-linejoin: miter"/>
    </g>
    <!-- 46 -->
    <g transform="translate(689.7875 487.390361) scale(0.1 -0.1)">
     <use xlink:href="#DejaVuSans-34"/>
     <use xlink:href="#DejaVuSans-36" transform="translate(63.623047 0)"/>
    </g>
   </g>
   <g id="text_76">
    <!-- 28 -->
    <g transform="translate(691.06 510.263838) scale(0.08 -0.08)">
     <use xlink:href="#DejaVuSans-32"/>
     <use xlink:href="#DejaVuSans-38" transform="translate(63.623047 0)"/>
    </g>
   </g>
   <g id="text_77">
    <!-- 15 -->
    <g style="fill: #ff0000" transform="translate(685.97 551.513592) scale(0.16 -0.16)">
     <use xlink:href="#DejaVuSans-31"/>
     <use xlink:href="#DejaVuSans-35" transform="translate(63.623047 0)"/>
    </g>
   </g>
   <g id="text_78">
    <g id="patch_33">
     <path d="M 724.05 493.993486 
C 726.532964 493.993486 728.914567 493.006994 730.670287 491.251273 
C 732.426008 489.495552 733.4125 487.11395 733.4125 484.630986 
C 733.4125 482.148022 732.426008 479.766419 730.670287 478.010699 
C 728.914567 476.254978 726.532964 475.268486 724.05 475.268486 
C 721.567036 475.268486 719.185433 476.254978 717.429713 478.010699 
C 715.673992 479.766419 714.6875 482.148022 714.6875 484.630986 
C 714.6875 487.11395 715.673992 489.495552 717.429713 491.251273 
C 719.185433 493.006994 721.567036 493.993486 724.05 493.993486 
z
" style="fill: #add8e6; stroke: #000000; stroke-linejoin: miter"/>
    </g>
    <!-- 47 -->
    <g transform="translate(717.6875 487.390361) scale(0.1 -0.1)">
     <use xlink:href="#DejaVuSans-34"/>
     <use xlink:href="#DejaVuSans-37" transform="translate(63.623047 0)"/>
    </g>
   </g>
   <g id="text_79">
    <!-- 60 -->
    <g transform="translate(718.96 510.263838) scale(0.08 -0.08)">
     <use xlink:href="#DejaVuSans-36"/>
     <use xlink:href="#DejaVuSans-30" transform="translate(63.623047 0)"/>
    </g>
   </g>
   <g id="text_80">
    <!-- 31 -->
    <g style="fill: #ff0000" transform="translate(713.87 551.513592) scale(0.16 -0.16)">
     <use xlink:href="#DejaVuSans-33"/>
     <use xlink:href="#DejaVuSans-31" transform="translate(63.623047 0)"/>
    </g>
   </g>
   <g id="text_81">
    <g id="patch_34">
     <path d="M 961.2 180.13202 
C 963.278944 180.13202 965.273019 179.306047 966.743054 177.836012 
C 968.213089 176.365977 969.039063 174.371901 969.039063 172.292958 
C 969.039063 170.214014 968.213089 168.219939 966.743054 166.749903 
C 965.273019 165.279868 963.278944 164.453895 961.2 164.453895 
C 959.121056 164.453895 957.126981 165.279868 955.656946 166.749903 
C 954.186911 168.219939 953.360938 170.214014 953.360938 172.292958 
C 953.360938 174.371901 954.186911 176.365977 955.656946 177.836012 
C 957.126981 179.306047 959.121056 180.13202 961.2 180.13202 
z
" style="fill: #f08080; stroke: #000000; stroke-linejoin: miter"/>
    </g>
    <!-- 3 -->
    <g transform="translate(958.01875 175.052333) scale(0.1 -0.1)">
     <use xlink:href="#DejaVuSans-33"/>
    </g>
   </g>
   <g id="text_82">
    <!-- 7 -->
    <g transform="translate(958.655 197.92581) scale(0.08 -0.08)">
     <use xlink:href="#DejaVuSans-37"/>
    </g>
   </g>
   <g id="text_83">
    <g id="patch_35">
     <path d="M 849.6 258.216527 
C 851.678944 258.216527 853.673019 257.390554 855.143054 255.920519 
C 856.613089 254.450484 857.439063 252.456408 857.439063 250.377465 
C 857.439063 248.298521 856.613089 246.304446 855.143054 244.834411 
C 853.673019 243.364375 851.678944 242.538402 849.6 242.538402 
C 847.521056 242.538402 845.526981 243.364375 844.056946 244.834411 
C 842.586911 246.304446 841.760938 248.298521 841.760938 250.377465 
C 841.760938 252.456408 842.586911 254.450484 844.056946 255.920519 
C 845.526981 257.390554 847.521056 258.216527 849.6 258.216527 
z
" style="fill: #add8e6; stroke: #000000; stroke-linejoin: miter"/>
    </g>
    <!-- 6 -->
    <g transform="translate(846.41875 253.13684) scale(0.1 -0.1)">
     <use xlink:href="#DejaVuSans-36"/>
    </g>
   </g>
   <g id="text_84">
    <!-- 11 -->
    <g transform="translate(844.51 276.010317) scale(0.08 -0.08)">
     <use xlink:href="#DejaVuSans-31"/>
     <use xlink:href="#DejaVuSans-31" transform="translate(63.623047 0)"/>
    </g>
   </g>
   <g id="text_85">
    <g id="patch_36">
     <path d="M 793.8 337.824472 
C 796.282964 337.824472 798.664567 336.83798 800.420287 335.082259 
C 802.176008 333.326538 803.1625 330.944936 803.1625 328.461972 
C 803.1625 325.979008 802.176008 323.597405 800.420287 321.841685 
C 798.664567 320.085964 796.282964 319.099472 793.8 319.099472 
C 791.317036 319.099472 788.935433 320.085964 787.179713 321.841685 
C 785.423992 323.597405 784.4375 325.979008 784.4375 328.461972 
C 784.4375 330.944936 785.423992 333.326538 787.179713 335.082259 
C 788.935433 336.83798 791.317036 337.824472 793.8 337.824472 
z
" style="fill: #add8e6; stroke: #000000; stroke-linejoin: miter"/>
    </g>
    <!-- 12 -->
    <g transform="translate(787.4375 331.221347) scale(0.1 -0.1)">
     <use xlink:href="#DejaVuSans-31"/>
     <use xlink:href="#DejaVuSans-32" transform="translate(63.623047 0)"/>
    </g>
   </g>
   <g id="text_86">
    <!-- 19 -->
    <g transform="translate(788.71 354.094824) scale(0.08 -0.08)">
     <use xlink:href="#DejaVuSans-31"/>
     <use xlink:href="#DejaVuSans-39" transform="translate(63.623047 0)"/>
    </g>
   </g>
   <g id="text_87">
    <g id="patch_37">
     <path d="M 765.9 415.908979 
C 768.382964 415.908979 770.764567 414.922487 772.520287 413.166766 
C 774.276008 411.411045 775.2625 409.029443 775.2625 406.546479 
C 775.2625 404.063515 774.276008 401.681912 772.520287 399.926192 
C 770.764567 398.170471 768.382964 397.183979 765.9 397.183979 
C 763.417036 397.183979 761.035433 398.170471 759.279713 399.926192 
C 757.523992 401.681912 756.5375 404.063515 756.5375 406.546479 
C 756.5375 409.029443 757.523992 411.411045 759.279713 413.166766 
C 761.035433 414.922487 763.417036 415.908979 765.9 415.908979 
z
" style="fill: #add8e6; stroke: #000000; stroke-linejoin: miter"/>
    </g>
    <!-- 24 -->
    <g transform="translate(759.5375 409.305854) scale(0.1 -0.1)">
     <use xlink:href="#DejaVuSans-32"/>
     <use xlink:href="#DejaVuSans-34" transform="translate(63.623047 0)"/>
    </g>
   </g>
   <g id="text_88">
    <!-- 35 -->
    <g transform="translate(760.81 432.179331) scale(0.08 -0.08)">
     <use xlink:href="#DejaVuSans-33"/>
     <use xlink:href="#DejaVuSans-35" transform="translate(63.623047 0)"/>
    </g>
   </g>
   <g id="text_89">
    <g id="patch_38">
     <path d="M 751.95 493.993486 
C 754.432964 493.993486 756.814567 493.006994 758.570287 491.251273 
C 760.326008 489.495552 761.3125 487.11395 761.3125 484.630986 
C 761.3125 482.148022 760.326008 479.766419 758.570287 478.010699 
C 756.814567 476.254978 754.432964 475.268486 751.95 475.268486 
C 749.467036 475.268486 747.085433 476.254978 745.329713 478.010699 
C 743.573992 479.766419 742.5875 482.148022 742.5875 484.630986 
C 742.5875 487.11395 743.573992 489.495552 745.329713 491.251273 
C 747.085433 493.006994 749.467036 493.993486 751.95 493.993486 
z
" style="fill: #add8e6; stroke: #000000; stroke-linejoin: miter"/>
    </g>
    <!-- 48 -->
    <g transform="translate(745.5875 487.390361) scale(0.1 -0.1)">
     <use xlink:href="#DejaVuSans-34"/>
     <use xlink:href="#DejaVuSans-38" transform="translate(63.623047 0)"/>
    </g>
   </g>
   <g id="text_90">
    <!-- 2 -->
    <g transform="translate(749.405 510.263838) scale(0.08 -0.08)">
     <use xlink:href="#DejaVuSans-32"/>
    </g>
   </g>
   <g id="text_91">
    <!-- 2 -->
    <g style="fill: #ff0000" transform="translate(746.86 551.513592) scale(0.16 -0.16)">
     <use xlink:href="#DejaVuSans-32"/>
    </g>
   </g>
   <g id="text_92">
    <g id="patch_39">
     <path d="M 779.85 493.993486 
C 782.332964 493.993486 784.714567 493.006994 786.470287 491.251273 
C 788.226008 489.495552 789.2125 487.11395 789.2125 484.630986 
C 789.2125 482.148022 788.226008 479.766419 786.470287 478.010699 
C 784.714567 476.254978 782.332964 475.268486 779.85 475.268486 
C 777.367036 475.268486 774.985433 476.254978 773.229713 478.010699 
C 771.473992 479.766419 770.4875 482.148022 770.4875 484.630986 
C 770.4875 487.11395 771.473992 489.495552 773.229713 491.251273 
C 774.985433 493.006994 777.367036 493.993486 779.85 493.993486 
z
" style="fill: #add8e6; stroke: #000000; stroke-linejoin: miter"/>
    </g>
    <!-- 49 -->
    <g transform="translate(773.4875 487.390361) scale(0.1 -0.1)">
     <use xlink:href="#DejaVuSans-34"/>
     <use xlink:href="#DejaVuSans-39" transform="translate(63.623047 0)"/>
    </g>
   </g>
   <g id="text_93">
    <!-- 34 -->
    <g transform="translate(774.76 510.263838) scale(0.08 -0.08)">
     <use xlink:href="#DejaVuSans-33"/>
     <use xlink:href="#DejaVuSans-34" transform="translate(63.623047 0)"/>
    </g>
   </g>
   <g id="text_94">
    <!-- 18 -->
    <g style="fill: #ff0000" transform="translate(769.67 551.513592) scale(0.16 -0.16)">
     <use xlink:href="#DejaVuSans-31"/>
     <use xlink:href="#DejaVuSans-38" transform="translate(63.623047 0)"/>
    </g>
   </g>
   <g id="text_95">
    <g id="patch_40">
     <path d="M 821.7 415.908979 
C 824.182964 415.908979 826.564567 414.922487 828.320287 413.166766 
C 830.076008 411.411045 831.0625 409.029443 831.0625 406.546479 
C 831.0625 404.063515 830.076008 401.681912 828.320287 399.926192 
C 826.564567 398.170471 824.182964 397.183979 821.7 397.183979 
C 819.217036 397.183979 816.835433 398.170471 815.079713 399.926192 
C 813.323992 401.681912 812.3375 404.063515 812.3375 406.546479 
C 812.3375 409.029443 813.323992 411.411045 815.079713 413.166766 
C 816.835433 414.922487 819.217036 415.908979 821.7 415.908979 
z
" style="fill: #add8e6; stroke: #000000; stroke-linejoin: miter"/>
    </g>
    <!-- 25 -->
    <g transform="translate(815.3375 409.305854) scale(0.1 -0.1)">
     <use xlink:href="#DejaVuSans-32"/>
     <use xlink:href="#DejaVuSans-35" transform="translate(63.623047 0)"/>
    </g>
   </g>
   <g id="text_96">
    <!-- 51 -->
    <g transform="translate(816.61 432.179331) scale(0.08 -0.08)">
     <use xlink:href="#DejaVuSans-35"/>
     <use xlink:href="#DejaVuSans-31" transform="translate(63.623047 0)"/>
    </g>
   </g>
   <g id="text_97">
    <g id="patch_41">
     <path d="M 807.75 493.993486 
C 810.232964 493.993486 812.614567 493.006994 814.370287 491.251273 
C 816.126008 489.495552 817.1125 487.11395 817.1125 484.630986 
C 817.1125 482.148022 816.126008 479.766419 814.370287 478.010699 
C 812.614567 476.254978 810.232964 475.268486 807.75 475.268486 
C 805.267036 475.268486 802.885433 476.254978 801.129713 478.010699 
C 799.373992 479.766419 798.3875 482.148022 798.3875 484.630986 
C 798.3875 487.11395 799.373992 489.495552 801.129713 491.251273 
C 802.885433 493.006994 805.267036 493.993486 807.75 493.993486 
z
" style="fill: #add8e6; stroke: #000000; stroke-linejoin: miter"/>
    </g>
    <!-- 50 -->
    <g transform="translate(801.3875 487.390361) scale(0.1 -0.1)">
     <use xlink:href="#DejaVuSans-35"/>
     <use xlink:href="#DejaVuSans-30" transform="translate(63.623047 0)"/>
    </g>
   </g>
   <g id="text_98">
    <!-- 18 -->
    <g transform="translate(802.66 510.263838) scale(0.08 -0.08)">
     <use xlink:href="#DejaVuSans-31"/>
     <use xlink:href="#DejaVuSans-38" transform="translate(63.623047 0)"/>
    </g>
   </g>
   <g id="text_99">
    <!-- 10 -->
    <g style="fill: #ff0000" transform="translate(797.57 551.513592) scale(0.16 -0.16)">
     <use xlink:href="#DejaVuSans-31"/>
     <use xlink:href="#DejaVuSans-30" transform="translate(63.623047 0)"/>
    </g>
   </g>
   <g id="text_100">
    <g id="patch_42">
     <path d="M 835.65 493.993486 
C 838.132964 493.993486 840.514567 493.006994 842.270287 491.251273 
C 844.026008 489.495552 845.0125 487.11395 845.0125 484.630986 
C 845.0125 482.148022 844.026008 479.766419 842.270287 478.010699 
C 840.514567 476.254978 838.132964 475.268486 835.65 475.268486 
C 833.167036 475.268486 830.785433 476.254978 829.029713 478.010699 
C 827.273992 479.766419 826.2875 482.148022 826.2875 484.630986 
C 826.2875 487.11395 827.273992 489.495552 829.029713 491.251273 
C 830.785433 493.006994 833.167036 493.993486 835.65 493.993486 
z
" style="fill: #add8e6; stroke: #000000; stroke-linejoin: miter"/>
    </g>
    <!-- 51 -->
    <g transform="translate(829.2875 487.390361) scale(0.1 -0.1)">
     <use xlink:href="#DejaVuSans-35"/>
     <use xlink:href="#DejaVuSans-31" transform="translate(63.623047 0)"/>
    </g>
   </g>
   <g id="text_101">
    <!-- 50 -->
    <g transform="translate(830.56 510.263838) scale(0.08 -0.08)">
     <use xlink:href="#DejaVuSans-35"/>
     <use xlink:href="#DejaVuSans-30" transform="translate(63.623047 0)"/>
    </g>
   </g>
   <g id="text_102">
    <!-- 26 -->
    <g style="fill: #ff0000" transform="translate(825.47 551.513592) scale(0.16 -0.16)">
     <use xlink:href="#DejaVuSans-32"/>
     <use xlink:href="#DejaVuSans-36" transform="translate(63.623047 0)"/>
    </g>
   </g>
   <g id="text_103">
    <g id="patch_43">
     <path d="M 905.4 337.824472 
C 907.882964 337.824472 910.264567 336.83798 912.020287 335.082259 
C 913.776008 333.326538 914.7625 330.944936 914.7625 328.461972 
C 914.7625 325.979008 913.776008 323.597405 912.020287 321.841685 
C 910.264567 320.085964 907.882964 319.099472 905.4 319.099472 
C 902.917036 319.099472 900.535433 320.085964 898.779713 321.841685 
C 897.023992 323.597405 896.0375 325.979008 896.0375 328.461972 
C 896.0375 330.944936 897.023992 333.326538 898.779713 335.082259 
C 900.535433 336.83798 902.917036 337.824472 905.4 337.824472 
z
" style="fill: #add8e6; stroke: #000000; stroke-linejoin: miter"/>
    </g>
    <!-- 13 -->
    <g transform="translate(899.0375 331.221347) scale(0.1 -0.1)">
     <use xlink:href="#DejaVuSans-31"/>
     <use xlink:href="#DejaVuSans-33" transform="translate(63.623047 0)"/>
    </g>
   </g>
   <g id="text_104">
    <!-- 27 -->
    <g transform="translate(900.31 354.094824) scale(0.08 -0.08)">
     <use xlink:href="#DejaVuSans-32"/>
     <use xlink:href="#DejaVuSans-37" transform="translate(63.623047 0)"/>
    </g>
   </g>
   <g id="text_105">
    <g id="patch_44">
     <path d="M 877.5 415.908979 
C 879.982964 415.908979 882.364567 414.922487 884.120287 413.166766 
C 885.876008 411.411045 886.8625 409.029443 886.8625 406.546479 
C 886.8625 404.063515 885.876008 401.681912 884.120287 399.926192 
C 882.364567 398.170471 879.982964 397.183979 877.5 397.183979 
C 875.017036 397.183979 872.635433 398.170471 870.879713 399.926192 
C 869.123992 401.681912 868.1375 404.063515 868.1375 406.546479 
C 868.1375 409.029443 869.123992 411.411045 870.879713 413.166766 
C 872.635433 414.922487 875.017036 415.908979 877.5 415.908979 
z
" style="fill: #add8e6; stroke: #000000; stroke-linejoin: miter"/>
    </g>
    <!-- 26 -->
    <g transform="translate(871.1375 409.305854) scale(0.1 -0.1)">
     <use xlink:href="#DejaVuSans-32"/>
     <use xlink:href="#DejaVuSans-36" transform="translate(63.623047 0)"/>
    </g>
   </g>
   <g id="text_106">
    <!-- 43 -->
    <g transform="translate(872.41 432.179331) scale(0.08 -0.08)">
     <use xlink:href="#DejaVuSans-34"/>
     <use xlink:href="#DejaVuSans-33" transform="translate(63.623047 0)"/>
    </g>
   </g>
   <g id="text_107">
    <g id="patch_45">
     <path d="M 863.55 493.993486 
C 866.032964 493.993486 868.414567 493.006994 870.170287 491.251273 
C 871.926008 489.495552 872.9125 487.11395 872.9125 484.630986 
C 872.9125 482.148022 871.926008 479.766419 870.170287 478.010699 
C 868.414567 476.254978 866.032964 475.268486 863.55 475.268486 
C 861.067036 475.268486 858.685433 476.254978 856.929713 478.010699 
C 855.173992 479.766419 854.1875 482.148022 854.1875 484.630986 
C 854.1875 487.11395 855.173992 489.495552 856.929713 491.251273 
C 858.685433 493.006994 861.067036 493.993486 863.55 493.993486 
z
" style="fill: #add8e6; stroke: #000000; stroke-linejoin: miter"/>
    </g>
    <!-- 52 -->
    <g transform="translate(857.1875 487.390361) scale(0.1 -0.1)">
     <use xlink:href="#DejaVuSans-35"/>
     <use xlink:href="#DejaVuSans-32" transform="translate(63.623047 0)"/>
    </g>
   </g>
   <g id="text_108">
    <!-- 10 -->
    <g transform="translate(858.46 510.263838) scale(0.08 -0.08)">
     <use xlink:href="#DejaVuSans-31"/>
     <use xlink:href="#DejaVuSans-30" transform="translate(63.623047 0)"/>
    </g>
   </g>
   <g id="text_109">
    <!-- 6 -->
    <g style="fill: #ff0000" transform="translate(858.46 551.513592) scale(0.16 -0.16)">
     <use xlink:href="#DejaVuSans-36"/>
    </g>
   </g>
   <g id="text_110">
    <g id="patch_46">
     <path d="M 891.45 493.993486 
C 893.932964 493.993486 896.314567 493.006994 898.070287 491.251273 
C 899.826008 489.495552 900.8125 487.11395 900.8125 484.630986 
C 900.8125 482.148022 899.826008 479.766419 898.070287 478.010699 
C 896.314567 476.254978 893.932964 475.268486 891.45 475.268486 
C 888.967036 475.268486 886.585433 476.254978 884.829713 478.010699 
C 883.073992 479.766419 882.0875 482.148022 882.0875 484.630986 
C 882.0875 487.11395 883.073992 489.495552 884.829713 491.251273 
C 886.585433 493.006994 888.967036 493.993486 891.45 493.993486 
z
" style="fill: #add8e6; stroke: #000000; stroke-linejoin: miter"/>
    </g>
    <!-- 53 -->
    <g transform="translate(885.0875 487.390361) scale(0.1 -0.1)">
     <use xlink:href="#DejaVuSans-35"/>
     <use xlink:href="#DejaVuSans-33" transform="translate(63.623047 0)"/>
    </g>
   </g>
   <g id="text_111">
    <!-- 42 -->
    <g transform="translate(886.36 510.263838) scale(0.08 -0.08)">
     <use xlink:href="#DejaVuSans-34"/>
     <use xlink:href="#DejaVuSans-32" transform="translate(63.623047 0)"/>
    </g>
   </g>
   <g id="text_112">
    <!-- 22 -->
    <g style="fill: #ff0000" transform="translate(881.27 551.513592) scale(0.16 -0.16)">
     <use xlink:href="#DejaVuSans-32"/>
     <use xlink:href="#DejaVuSans-32" transform="translate(63.623047 0)"/>
    </g>
   </g>
   <g id="text_113">
    <g id="patch_47">
     <path d="M 933.3 415.908979 
C 935.782964 415.908979 938.164567 414.922487 939.920287 413.166766 
C 941.676008 411.411045 942.6625 409.029443 942.6625 406.546479 
C 942.6625 404.063515 941.676008 401.681912 939.920287 399.926192 
C 938.164567 398.170471 935.782964 397.183979 933.3 397.183979 
C 930.817036 397.183979 928.435433 398.170471 926.679713 399.926192 
C 924.923992 401.681912 923.9375 404.063515 923.9375 406.546479 
C 923.9375 409.029443 924.923992 411.411045 926.679713 413.166766 
C 928.435433 414.922487 930.817036 415.908979 933.3 415.908979 
z
" style="fill: #add8e6; stroke: #000000; stroke-linejoin: miter"/>
    </g>
    <!-- 27 -->
    <g transform="translate(926.9375 409.305854) scale(0.1 -0.1)">
     <use xlink:href="#DejaVuSans-32"/>
     <use xlink:href="#DejaVuSans-37" transform="translate(63.623047 0)"/>
    </g>
   </g>
   <g id="text_114">
    <!-- 59 -->
    <g transform="translate(928.21 432.179331) scale(0.08 -0.08)">
     <use xlink:href="#DejaVuSans-35"/>
     <use xlink:href="#DejaVuSans-39" transform="translate(63.623047 0)"/>
    </g>
   </g>
   <g id="text_115">
    <g id="patch_48">
     <path d="M 919.35 493.993486 
C 921.832964 493.993486 924.214567 493.006994 925.970287 491.251273 
C 927.726008 489.495552 928.7125 487.11395 928.7125 484.630986 
C 928.7125 482.148022 927.726008 479.766419 925.970287 478.010699 
C 924.214567 476.254978 921.832964 475.268486 919.35 475.268486 
C 916.867036 475.268486 914.485433 476.254978 912.729713 478.010699 
C 910.973992 479.766419 909.9875 482.148022 909.9875 484.630986 
C 909.9875 487.11395 910.973992 489.495552 912.729713 491.251273 
C 914.485433 493.006994 916.867036 493.993486 919.35 493.993486 
z
" style="fill: #add8e6; stroke: #000000; stroke-linejoin: miter"/>
    </g>
    <!-- 54 -->
    <g transform="translate(912.9875 487.390361) scale(0.1 -0.1)">
     <use xlink:href="#DejaVuSans-35"/>
     <use xlink:href="#DejaVuSans-34" transform="translate(63.623047 0)"/>
    </g>
   </g>
   <g id="text_116">
    <!-- 26 -->
    <g transform="translate(914.26 510.263838) scale(0.08 -0.08)">
     <use xlink:href="#DejaVuSans-32"/>
     <use xlink:href="#DejaVuSans-36" transform="translate(63.623047 0)"/>
    </g>
   </g>
   <g id="text_117">
    <!-- 14 -->
    <g style="fill: #ff0000" transform="translate(909.17 551.513592) scale(0.16 -0.16)">
     <use xlink:href="#DejaVuSans-31"/>
     <use xlink:href="#DejaVuSans-34" transform="translate(63.623047 0)"/>
    </g>
   </g>
   <g id="text_118">
    <g id="patch_49">
     <path d="M 947.25 493.993486 
C 949.732964 493.993486 952.114567 493.006994 953.870287 491.251273 
C 955.626008 489.495552 956.6125 487.11395 956.6125 484.630986 
C 956.6125 482.148022 955.626008 479.766419 953.870287 478.010699 
C 952.114567 476.254978 949.732964 475.268486 947.25 475.268486 
C 944.767036 475.268486 942.385433 476.254978 940.629713 478.010699 
C 938.873992 479.766419 937.8875 482.148022 937.8875 484.630986 
C 937.8875 487.11395 938.873992 489.495552 940.629713 491.251273 
C 942.385433 493.006994 944.767036 493.993486 947.25 493.993486 
z
" style="fill: #add8e6; stroke: #000000; stroke-linejoin: miter"/>
    </g>
    <!-- 55 -->
    <g transform="translate(940.8875 487.390361) scale(0.1 -0.1)">
     <use xlink:href="#DejaVuSans-35"/>
     <use xlink:href="#DejaVuSans-35" transform="translate(63.623047 0)"/>
    </g>
   </g>
   <g id="text_119">
    <!-- 58 -->
    <g transform="translate(942.16 510.263838) scale(0.08 -0.08)">
     <use xlink:href="#DejaVuSans-35"/>
     <use xlink:href="#DejaVuSans-38" transform="translate(63.623047 0)"/>
    </g>
   </g>
   <g id="text_120">
    <!-- 30 -->
    <g style="fill: #ff0000" transform="translate(937.07 551.513592) scale(0.16 -0.16)">
     <use xlink:href="#DejaVuSans-33"/>
     <use xlink:href="#DejaVuSans-30" transform="translate(63.623047 0)"/>
    </g>
   </g>
   <g id="text_121">
    <g id="patch_50">
     <path d="M 1072.8 258.216527 
C 1074.878944 258.216527 1076.873019 257.390554 1078.343054 255.920519 
C 1079.813089 254.450484 1080.639062 252.456408 1080.639062 250.377465 
C 1080.639062 248.298521 1079.813089 246.304446 1078.343054 244.834411 
C 1076.873019 243.364375 1074.878944 242.538402 1072.8 242.538402 
C 1070.721056 242.538402 1068.726981 243.364375 1067.256946 244.834411 
C 1065.786911 246.304446 1064.960937 248.298521 1064.960937 250.377465 
C 1064.960937 252.456408 1065.786911 254.450484 1067.256946 255.920519 
C 1068.726981 257.390554 1070.721056 258.216527 1072.8 258.216527 
z
" style="fill: #f08080; stroke: #000000; stroke-linejoin: miter"/>
    </g>
    <!-- 7 -->
    <g transform="translate(1069.61875 253.13684) scale(0.1 -0.1)">
     <use xlink:href="#DejaVuSans-37"/>
    </g>
   </g>
   <g id="text_122">
    <!-- 15 -->
    <g transform="translate(1067.71 276.010317) scale(0.08 -0.08)">
     <use xlink:href="#DejaVuSans-31"/>
     <use xlink:href="#DejaVuSans-35" transform="translate(63.623047 0)"/>
    </g>
   </g>
   <g id="text_123">
    <g id="patch_51">
     <path d="M 1017 337.824472 
C 1019.482964 337.824472 1021.864567 336.83798 1023.620287 335.082259 
C 1025.376008 333.326538 1026.3625 330.944936 1026.3625 328.461972 
C 1026.3625 325.979008 1025.376008 323.597405 1023.620287 321.841685 
C 1021.864567 320.085964 1019.482964 319.099472 1017 319.099472 
C 1014.517036 319.099472 1012.135433 320.085964 1010.379713 321.841685 
C 1008.623992 323.597405 1007.6375 325.979008 1007.6375 328.461972 
C 1007.6375 330.944936 1008.623992 333.326538 1010.379713 335.082259 
C 1012.135433 336.83798 1014.517036 337.824472 1017 337.824472 
z
" style="fill: #add8e6; stroke: #000000; stroke-linejoin: miter"/>
    </g>
    <!-- 14 -->
    <g transform="translate(1010.6375 331.221347) scale(0.1 -0.1)">
     <use xlink:href="#DejaVuSans-31"/>
     <use xlink:href="#DejaVuSans-34" transform="translate(63.623047 0)"/>
    </g>
   </g>
   <g id="text_124">
    <!-- 23 -->
    <g transform="translate(1011.91 354.094824) scale(0.08 -0.08)">
     <use xlink:href="#DejaVuSans-32"/>
     <use xlink:href="#DejaVuSans-33" transform="translate(63.623047 0)"/>
    </g>
   </g>
   <g id="text_125">
    <g id="patch_52">
     <path d="M 989.1 415.908979 
C 991.582964 415.908979 993.964567 414.922487 995.720287 413.166766 
C 997.476008 411.411045 998.4625 409.029443 998.4625 406.546479 
C 998.4625 404.063515 997.476008 401.681912 995.720287 399.926192 
C 993.964567 398.170471 991.582964 397.183979 989.1 397.183979 
C 986.617036 397.183979 984.235433 398.170471 982.479713 399.926192 
C 980.723992 401.681912 979.7375 404.063515 979.7375 406.546479 
C 979.7375 409.029443 980.723992 411.411045 982.479713 413.166766 
C 984.235433 414.922487 986.617036 415.908979 989.1 415.908979 
z
" style="fill: #add8e6; stroke: #000000; stroke-linejoin: miter"/>
    </g>
    <!-- 28 -->
    <g transform="translate(982.7375 409.305854) scale(0.1 -0.1)">
     <use xlink:href="#DejaVuSans-32"/>
     <use xlink:href="#DejaVuSans-38" transform="translate(63.623047 0)"/>
    </g>
   </g>
   <g id="text_126">
    <!-- 39 -->
    <g transform="translate(984.01 432.179331) scale(0.08 -0.08)">
     <use xlink:href="#DejaVuSans-33"/>
     <use xlink:href="#DejaVuSans-39" transform="translate(63.623047 0)"/>
    </g>
   </g>
   <g id="text_127">
    <g id="patch_53">
     <path d="M 975.15 493.993486 
C 977.632964 493.993486 980.014567 493.006994 981.770287 491.251273 
C 983.526008 489.495552 984.5125 487.11395 984.5125 484.630986 
C 984.5125 482.148022 983.526008 479.766419 981.770287 478.010699 
C 980.014567 476.254978 977.632964 475.268486 975.15 475.268486 
C 972.667036 475.268486 970.285433 476.254978 968.529713 478.010699 
C 966.773992 479.766419 965.7875 482.148022 965.7875 484.630986 
C 965.7875 487.11395 966.773992 489.495552 968.529713 491.251273 
C 970.285433 493.006994 972.667036 493.993486 975.15 493.993486 
z
" style="fill: #add8e6; stroke: #000000; stroke-linejoin: miter"/>
    </g>
    <!-- 56 -->
    <g transform="translate(968.7875 487.390361) scale(0.1 -0.1)">
     <use xlink:href="#DejaVuSans-35"/>
     <use xlink:href="#DejaVuSans-36" transform="translate(63.623047 0)"/>
    </g>
   </g>
   <g id="text_128">
    <!-- 6 -->
    <g transform="translate(972.605 510.263838) scale(0.08 -0.08)">
     <use xlink:href="#DejaVuSans-36"/>
    </g>
   </g>
   <g id="text_129">
    <!-- 4 -->
    <g style="fill: #ff0000" transform="translate(970.06 551.513592) scale(0.16 -0.16)">
     <use xlink:href="#DejaVuSans-34"/>
    </g>
   </g>
   <g id="text_130">
    <g id="patch_54">
     <path d="M 1003.05 493.993486 
C 1005.532964 493.993486 1007.914567 493.006994 1009.670287 491.251273 
C 1011.426008 489.495552 1012.4125 487.11395 1012.4125 484.630986 
C 1012.4125 482.148022 1011.426008 479.766419 1009.670287 478.010699 
C 1007.914567 476.254978 1005.532964 475.268486 1003.05 475.268486 
C 1000.567036 475.268486 998.185433 476.254978 996.429713 478.010699 
C 994.673992 479.766419 993.6875 482.148022 993.6875 484.630986 
C 993.6875 487.11395 994.673992 489.495552 996.429713 491.251273 
C 998.185433 493.006994 1000.567036 493.993486 1003.05 493.993486 
z
" style="fill: #add8e6; stroke: #000000; stroke-linejoin: miter"/>
    </g>
    <!-- 57 -->
    <g transform="translate(996.6875 487.390361) scale(0.1 -0.1)">
     <use xlink:href="#DejaVuSans-35"/>
     <use xlink:href="#DejaVuSans-37" transform="translate(63.623047 0)"/>
    </g>
   </g>
   <g id="text_131">
    <!-- 38 -->
    <g transform="translate(997.96 510.263838) scale(0.08 -0.08)">
     <use xlink:href="#DejaVuSans-33"/>
     <use xlink:href="#DejaVuSans-38" transform="translate(63.623047 0)"/>
    </g>
   </g>
   <g id="text_132">
    <!-- 20 -->
    <g style="fill: #ff0000" transform="translate(992.87 551.513592) scale(0.16 -0.16)">
     <use xlink:href="#DejaVuSans-32"/>
     <use xlink:href="#DejaVuSans-30" transform="translate(63.623047 0)"/>
    </g>
   </g>
   <g id="text_133">
    <g id="patch_55">
     <path d="M 1044.9 415.908979 
C 1047.382964 415.908979 1049.764567 414.922487 1051.520287 413.166766 
C 1053.276008 411.411045 1054.2625 409.029443 1054.2625 406.546479 
C 1054.2625 404.063515 1053.276008 401.681912 1051.520287 399.926192 
C 1049.764567 398.170471 1047.382964 397.183979 1044.9 397.183979 
C 1042.417036 397.183979 1040.035433 398.170471 1038.279713 399.926192 
C 1036.523992 401.681912 1035.5375 404.063515 1035.5375 406.546479 
C 1035.5375 409.029443 1036.523992 411.411045 1038.279713 413.166766 
C 1040.035433 414.922487 1042.417036 415.908979 1044.9 415.908979 
z
" style="fill: #add8e6; stroke: #000000; stroke-linejoin: miter"/>
    </g>
    <!-- 29 -->
    <g transform="translate(1038.5375 409.305854) scale(0.1 -0.1)">
     <use xlink:href="#DejaVuSans-32"/>
     <use xlink:href="#DejaVuSans-39" transform="translate(63.623047 0)"/>
    </g>
   </g>
   <g id="text_134">
    <!-- 55 -->
    <g transform="translate(1039.81 432.179331) scale(0.08 -0.08)">
     <use xlink:href="#DejaVuSans-35"/>
     <use xlink:href="#DejaVuSans-35" transform="translate(63.623047 0)"/>
    </g>
   </g>
   <g id="text_135">
    <g id="patch_56">
     <path d="M 1030.95 493.993486 
C 1033.432964 493.993486 1035.814567 493.006994 1037.570287 491.251273 
C 1039.326008 489.495552 1040.3125 487.11395 1040.3125 484.630986 
C 1040.3125 482.148022 1039.326008 479.766419 1037.570287 478.010699 
C 1035.814567 476.254978 1033.432964 475.268486 1030.95 475.268486 
C 1028.467036 475.268486 1026.085433 476.254978 1024.329713 478.010699 
C 1022.573992 479.766419 1021.5875 482.148022 1021.5875 484.630986 
C 1021.5875 487.11395 1022.573992 489.495552 1024.329713 491.251273 
C 1026.085433 493.006994 1028.467036 493.993486 1030.95 493.993486 
z
" style="fill: #add8e6; stroke: #000000; stroke-linejoin: miter"/>
    </g>
    <!-- 58 -->
    <g transform="translate(1024.5875 487.390361) scale(0.1 -0.1)">
     <use xlink:href="#DejaVuSans-35"/>
     <use xlink:href="#DejaVuSans-38" transform="translate(63.623047 0)"/>
    </g>
   </g>
   <g id="text_136">
    <!-- 22 -->
    <g transform="translate(1025.86 510.263838) scale(0.08 -0.08)">
     <use xlink:href="#DejaVuSans-32"/>
     <use xlink:href="#DejaVuSans-32" transform="translate(63.623047 0)"/>
    </g>
   </g>
   <g id="text_137">
    <!-- 12 -->
    <g style="fill: #ff0000" transform="translate(1020.77 551.513592) scale(0.16 -0.16)">
     <use xlink:href="#DejaVuSans-31"/>
     <use xlink:href="#DejaVuSans-32" transform="translate(63.623047 0)"/>
    </g>
   </g>
   <g id="text_138">
    <g id="patch_57">
     <path d="M 1058.85 493.993486 
C 1061.332964 493.993486 1063.714567 493.006994 1065.470287 491.251273 
C 1067.226008 489.495552 1068.2125 487.11395 1068.2125 484.630986 
C 1068.2125 482.148022 1067.226008 479.766419 1065.470287 478.010699 
C 1063.714567 476.254978 1061.332964 475.268486 1058.85 475.268486 
C 1056.367036 475.268486 1053.985433 476.254978 1052.229713 478.010699 
C 1050.473992 479.766419 1049.4875 482.148022 1049.4875 484.630986 
C 1049.4875 487.11395 1050.473992 489.495552 1052.229713 491.251273 
C 1053.985433 493.006994 1056.367036 493.993486 1058.85 493.993486 
z
" style="fill: #add8e6; stroke: #000000; stroke-linejoin: miter"/>
    </g>
    <!-- 59 -->
    <g transform="translate(1052.4875 487.390361) scale(0.1 -0.1)">
     <use xlink:href="#DejaVuSans-35"/>
     <use xlink:href="#DejaVuSans-39" transform="translate(63.623047 0)"/>
    </g>
   </g>
   <g id="text_139">
    <!-- 54 -->
    <g transform="translate(1053.76 510.263838) scale(0.08 -0.08)">
     <use xlink:href="#DejaVuSans-35"/>
     <use xlink:href="#DejaVuSans-34" transform="translate(63.623047 0)"/>
    </g>
   </g>
   <g id="text_140">
    <!-- 28 -->
    <g style="fill: #ff0000" transform="translate(1048.67 551.513592) scale(0.16 -0.16)">
     <use xlink:href="#DejaVuSans-32"/>
     <use xlink:href="#DejaVuSans-38" transform="translate(63.623047 0)"/>
    </g>
   </g>
   <g id="text_141">
    <g id="patch_58">
     <path d="M 1128.6 337.824472 
C 1131.082964 337.824472 1133.464567 336.83798 1135.220287 335.082259 
C 1136.976008 333.326538 1137.9625 330.944936 1137.9625 328.461972 
C 1137.9625 325.979008 1136.976008 323.597405 1135.220287 321.841685 
C 1133.464567 320.085964 1131.082964 319.099472 1128.6 319.099472 
C 1126.117036 319.099472 1123.735433 320.085964 1121.979713 321.841685 
C 1120.223992 323.597405 1119.2375 325.979008 1119.2375 328.461972 
C 1119.2375 330.944936 1120.223992 333.326538 1121.979713 335.082259 
C 1123.735433 336.83798 1126.117036 337.824472 1128.6 337.824472 
z
" style="fill: #f08080; stroke: #000000; stroke-linejoin: miter"/>
    </g>
    <!-- 15 -->
    <g transform="translate(1122.2375 331.221347) scale(0.1 -0.1)">
     <use xlink:href="#DejaVuSans-31"/>
     <use xlink:href="#DejaVuSans-35" transform="translate(63.623047 0)"/>
    </g>
   </g>
   <g id="text_142">
    <!-- 31 -->
    <g transform="translate(1123.51 354.094824) scale(0.08 -0.08)">
     <use xlink:href="#DejaVuSans-33"/>
     <use xlink:href="#DejaVuSans-31" transform="translate(63.623047 0)"/>
    </g>
   </g>
   <g id="text_143">
    <g id="patch_59">
     <path d="M 1100.7 415.908979 
C 1103.182964 415.908979 1105.564567 414.922487 1107.320287 413.166766 
C 1109.076008 411.411045 1110.0625 409.029443 1110.0625 406.546479 
C 1110.0625 404.063515 1109.076008 401.681912 1107.320287 399.926192 
C 1105.564567 398.170471 1103.182964 397.183979 1100.7 397.183979 
C 1098.217036 397.183979 1095.835433 398.170471 1094.079713 399.926192 
C 1092.323992 401.681912 1091.3375 404.063515 1091.3375 406.546479 
C 1091.3375 409.029443 1092.323992 411.411045 1094.079713 413.166766 
C 1095.835433 414.922487 1098.217036 415.908979 1100.7 415.908979 
z
" style="fill: #add8e6; stroke: #000000; stroke-linejoin: miter"/>
    </g>
    <!-- 30 -->
    <g transform="translate(1094.3375 409.305854) scale(0.1 -0.1)">
     <use xlink:href="#DejaVuSans-33"/>
     <use xlink:href="#DejaVuSans-30" transform="translate(63.623047 0)"/>
    </g>
   </g>
   <g id="text_144">
    <!-- 47 -->
    <g transform="translate(1095.61 432.179331) scale(0.08 -0.08)">
     <use xlink:href="#DejaVuSans-34"/>
     <use xlink:href="#DejaVuSans-37" transform="translate(63.623047 0)"/>
    </g>
   </g>
   <g id="text_145">
    <g id="patch_60">
     <path d="M 1086.75 493.993486 
C 1089.232964 493.993486 1091.614567 493.006994 1093.370287 491.251273 
C 1095.126008 489.495552 1096.1125 487.11395 1096.1125 484.630986 
C 1096.1125 482.148022 1095.126008 479.766419 1093.370287 478.010699 
C 1091.614567 476.254978 1089.232964 475.268486 1086.75 475.268486 
C 1084.267036 475.268486 1081.885433 476.254978 1080.129713 478.010699 
C 1078.373992 479.766419 1077.3875 482.148022 1077.3875 484.630986 
C 1077.3875 487.11395 1078.373992 489.495552 1080.129713 491.251273 
C 1081.885433 493.006994 1084.267036 493.993486 1086.75 493.993486 
z
" style="fill: #add8e6; stroke: #000000; stroke-linejoin: miter"/>
    </g>
    <!-- 60 -->
    <g transform="translate(1080.3875 487.390361) scale(0.1 -0.1)">
     <use xlink:href="#DejaVuSans-36"/>
     <use xlink:href="#DejaVuSans-30" transform="translate(63.623047 0)"/>
    </g>
   </g>
   <g id="text_146">
    <!-- 14 -->
    <g transform="translate(1081.66 510.263838) scale(0.08 -0.08)">
     <use xlink:href="#DejaVuSans-31"/>
     <use xlink:href="#DejaVuSans-34" transform="translate(63.623047 0)"/>
    </g>
   </g>
   <g id="text_147">
    <!-- 8 -->
    <g style="fill: #ff0000" transform="translate(1081.66 551.513592) scale(0.16 -0.16)">
     <use xlink:href="#DejaVuSans-38"/>
    </g>
   </g>
   <g id="text_148">
    <g id="patch_61">
     <path d="M 1114.65 493.993486 
C 1117.132964 493.993486 1119.514567 493.006994 1121.270287 491.251273 
C 1123.026008 489.495552 1124.0125 487.11395 1124.0125 484.630986 
C 1124.0125 482.148022 1123.026008 479.766419 1121.270287 478.010699 
C 1119.514567 476.254978 1117.132964 475.268486 1114.65 475.268486 
C 1112.167036 475.268486 1109.785433 476.254978 1108.029713 478.010699 
C 1106.273992 479.766419 1105.2875 482.148022 1105.2875 484.630986 
C 1105.2875 487.11395 1106.273992 489.495552 1108.029713 491.251273 
C 1109.785433 493.006994 1112.167036 493.993486 1114.65 493.993486 
z
" style="fill: #add8e6; stroke: #000000; stroke-linejoin: miter"/>
    </g>
    <!-- 61 -->
    <g transform="translate(1108.2875 487.390361) scale(0.1 -0.1)">
     <use xlink:href="#DejaVuSans-36"/>
     <use xlink:href="#DejaVuSans-31" transform="translate(63.623047 0)"/>
    </g>
   </g>
   <g id="text_149">
    <!-- 46 -->
    <g transform="translate(1109.56 510.263838) scale(0.08 -0.08)">
     <use xlink:href="#DejaVuSans-34"/>
     <use xlink:href="#DejaVuSans-36" transform="translate(63.623047 0)"/>
    </g>
   </g>
   <g id="text_150">
    <!-- 24 -->
    <g style="fill: #ff0000" transform="translate(1104.47 551.513592) scale(0.16 -0.16)">
     <use xlink:href="#DejaVuSans-32"/>
     <use xlink:href="#DejaVuSans-34" transform="translate(63.623047 0)"/>
    </g>
   </g>
   <g id="text_151">
    <g id="patch_62">
     <path d="M 1156.5 415.908979 
C 1158.982964 415.908979 1161.364567 414.922487 1163.120287 413.166766 
C 1164.876008 411.411045 1165.8625 409.029443 1165.8625 406.546479 
C 1165.8625 404.063515 1164.876008 401.681912 1163.120287 399.926192 
C 1161.364567 398.170471 1158.982964 397.183979 1156.5 397.183979 
C 1154.017036 397.183979 1151.635433 398.170471 1149.879713 399.926192 
C 1148.123992 401.681912 1147.1375 404.063515 1147.1375 406.546479 
C 1147.1375 409.029443 1148.123992 411.411045 1149.879713 413.166766 
C 1151.635433 414.922487 1154.017036 415.908979 1156.5 415.908979 
z
" style="fill: #f08080; stroke: #000000; stroke-linejoin: miter"/>
    </g>
    <!-- 31 -->
    <g transform="translate(1150.1375 409.305854) scale(0.1 -0.1)">
     <use xlink:href="#DejaVuSans-33"/>
     <use xlink:href="#DejaVuSans-31" transform="translate(63.623047 0)"/>
    </g>
   </g>
   <g id="text_152">
    <!-- 63 -->
    <g transform="translate(1151.41 432.179331) scale(0.08 -0.08)">
     <use xlink:href="#DejaVuSans-36"/>
     <use xlink:href="#DejaVuSans-33" transform="translate(63.623047 0)"/>
    </g>
   </g>
   <g id="text_153">
    <g id="patch_63">
     <path d="M 1142.55 493.993486 
C 1145.032964 493.993486 1147.414567 493.006994 1149.170287 491.251273 
C 1150.926008 489.495552 1151.9125 487.11395 1151.9125 484.630986 
C 1151.9125 482.148022 1150.926008 479.766419 1149.170287 478.010699 
C 1147.414567 476.254978 1145.032964 475.268486 1142.55 475.268486 
C 1140.067036 475.268486 1137.685433 476.254978 1135.929713 478.010699 
C 1134.173992 479.766419 1133.1875 482.148022 1133.1875 484.630986 
C 1133.1875 487.11395 1134.173992 489.495552 1135.929713 491.251273 
C 1137.685433 493.006994 1140.067036 493.993486 1142.55 493.993486 
z
" style="fill: #add8e6; stroke: #000000; stroke-linejoin: miter"/>
    </g>
    <!-- 62 -->
    <g transform="translate(1136.1875 487.390361) scale(0.1 -0.1)">
     <use xlink:href="#DejaVuSans-36"/>
     <use xlink:href="#DejaVuSans-32" transform="translate(63.623047 0)"/>
    </g>
   </g>
   <g id="text_154">
    <!-- 30 -->
    <g transform="translate(1137.46 510.263838) scale(0.08 -0.08)">
     <use xlink:href="#DejaVuSans-33"/>
     <use xlink:href="#DejaVuSans-30" transform="translate(63.623047 0)"/>
    </g>
   </g>
   <g id="text_155">
    <!-- 16 -->
    <g style="fill: #ff0000" transform="translate(1132.37 551.513592) scale(0.16 -0.16)">
     <use xlink:href="#DejaVuSans-31"/>
     <use xlink:href="#DejaVuSans-36" transform="translate(63.623047 0)"/>
    </g>
   </g>
   <g id="text_156">
    <g id="patch_64">
     <path d="M 1170.45 493.993486 
C 1172.932964 493.993486 1175.314567 493.006994 1177.070287 491.251273 
C 1178.826008 489.495552 1179.8125 487.11395 1179.8125 484.630986 
C 1179.8125 482.148022 1178.826008 479.766419 1177.070287 478.010699 
C 1175.314567 476.254978 1172.932964 475.268486 1170.45 475.268486 
C 1167.967036 475.268486 1165.585433 476.254978 1163.829713 478.010699 
C 1162.073992 479.766419 1161.0875 482.148022 1161.0875 484.630986 
C 1161.0875 487.11395 1162.073992 489.495552 1163.829713 491.251273 
C 1165.585433 493.006994 1167.967036 493.993486 1170.45 493.993486 
z
" style="fill: #add8e6; stroke: #000000; stroke-linejoin: miter"/>
    </g>
    <!-- 63 -->
    <g transform="translate(1164.0875 487.390361) scale(0.1 -0.1)">
     <use xlink:href="#DejaVuSans-36"/>
     <use xlink:href="#DejaVuSans-33" transform="translate(63.623047 0)"/>
    </g>
   </g>
   <g id="text_157">
    <!-- 62 -->
    <g transform="translate(1165.36 510.263838) scale(0.08 -0.08)">
     <use xlink:href="#DejaVuSans-36"/>
     <use xlink:href="#DejaVuSans-32" transform="translate(63.623047 0)"/>
    </g>
   </g>
   <g id="text_158">
    <!-- 32 -->
    <g style="fill: #ff0000" transform="translate(1160.27 551.513592) scale(0.16 -0.16)">
     <use xlink:href="#DejaVuSans-33"/>
     <use xlink:href="#DejaVuSans-32" transform="translate(63.623047 0)"/>
    </g>
   </g>
  </g>
 </g>
 <defs>
  <clipPath id="p1ce2dd149d">
   <rect x="180" y="86.4" width="1116" height="554.4"/>
  </clipPath>
 </defs>
</svg>
